<svg width="118" height="26" fill="none" xmlns="http://www.w3.org/2000/svg"><path d="M28.299 24.622V4.575h19.26v5.905h-9.02v2.333h8.43v3.552h-8.43v2.374h9.02v5.884h-19.26zM61.423 4.574h-10.24v20.048h10.24V4.575zM75.31 25.22c-6.385 0-9.925-2.043-10.895-2.683v-5.802c4.53 2.808 11 3.365 11.463 1.734.464-1.59-1.56-1.528-4.13-1.817-5.963-.702-7.944-2.911-7.944-5.781 0-.909-.105-6.876 12.306-6.876 3.877 0 7.375.517 9.988 1.735v5.802c-2.592-1.136-5.563-1.714-7.986-1.714-1.918 0-2.992.165-2.992 1.3 0 2.664 12.2-.887 12.2 6.629-.021 4.893-5.331 7.474-12.01 7.474zM12.58 4.574H0v20.048h12.58c10.577 0 13.317-4.728 13.317-10.034 0-5.286-2.74-10.014-13.317-10.014zm.063 15.34H10.24V9.303h2.402c3.013 0 3.582 3.53 3.603 5.307-.021 1.755-.59 5.306-3.603 5.306zm87.362 5.306c-6.385 0-9.925-2.043-10.894-2.683v-5.802c4.53 2.808 10.999 3.365 11.463 1.734.464-1.59-1.56-1.528-4.13-1.817-5.963-.702-7.944-2.911-7.944-5.781 0-.909-.105-6.876 12.306-6.876 3.877 0 7.375.517 9.988 1.735v5.802c-2.592-1.136-5.563-1.714-7.986-1.714-1.918 0-2.993.165-2.993 1.3 0 2.664 12.201-.887 12.201 6.629-.042 4.893-5.331 7.474-12.011 7.474zm16.162-21.905a.839.839 0 00.316-.289c.084-.123.105-.268.105-.433a.688.688 0 00-.126-.412.763.763 0 00-.337-.288 1.328 1.328 0 00-.527-.104h-1.601v2.619h.758V3.293l.927 1.113h.906l-.864-.989a1 1 0 00.443-.103zm-.864-.268h-.548v-.722h.59c.148 0 .253.021.337.083.085.062.106.144.106.247 0 .268-.169.392-.485.392z" fill="#F99D21"/><path d="M115.282 1.006c1.18 0 2.128.928 2.128 2.083 0 1.155-.948 2.083-2.128 2.083-1.18 0-2.129-.928-2.129-2.083 0-1.134.97-2.083 2.129-2.083zm0-.556c-1.496 0-2.719 1.196-2.719 2.66 0 1.464 1.223 2.66 2.719 2.66 1.496 0 2.718-1.196 2.718-2.66 0-1.464-1.222-2.66-2.718-2.66z" fill="#F99D21"/></svg>