<svg width="575" height="410" fill="none" xmlns="http://www.w3.org/2000/svg"><path opacity=".12" fill-rule="evenodd" clip-rule="evenodd" d="M512.721 120.87c-38.382-31.362-100.298-33.043-154.205-46.418-47.312-11.738-92.284-33.499-141.369-26.914-49.839 6.686-87.511 35.037-122.718 62.342-36.477 28.29-70.496 58.76-82.745 97.009-13.46 42.029-21.393 90.599 11.27 126.167 32.181 35.041 97.803 37.234 151.48 51.052 48.099 12.382 94.126 26.325 144.983 25.263 60.319-1.26 124.946-2.999 171.453-31.872 49.578-30.778 79.586-78.384 83.685-126.522 4.012-47.123-19.288-95.343-61.834-130.107z" fill="url(#paint0_linear_7945_49580)"/><path d="M276.469 9.619l-96.414 125.205 259.293-64.43L294.924 4.992a15.293 15.293 0 00-18.455 4.627z" fill="#EBEBEB"/><path d="M178.691 135.716l97.357-126.41a15.75 15.75 0 0119.103-4.748l145.852 66.04-262.312 65.118zM288.587 4.102a14.684 14.684 0 00-11.688 5.811l-95.483 124.031 256.316-63.69L294.715 5.458a14.793 14.793 0 00-6.128-1.306v-.05z" fill="#E0E0E0"/><path d="M180.051 134.827l260.206-64.655 35.057 140.961a10.842 10.842 0 01-7.911 13.138l-239.151 59.424a10.852 10.852 0 01-13.145-7.907l-35.056-140.961z" fill="#F0F0F0"/><path d="M424.242 77.896l-90.145 92.059-136.251-30.656-15.588-72.235a14.576 14.576 0 0110.686-17.434L390.048.66a14.568 14.568 0 0117.664 10.63l16.53 66.606z" fill="#fff"/><path d="M321.722 162.718l-107.05 111.811a11.933 11.933 0 0014.464 8.696l237.314-58.973a11.933 11.933 0 007.343-5.423 11.92 11.92 0 001.357-9.024l-.222-.891-139.978-49.355a12.526 12.526 0 00-13.228 3.159zM287.511 60.294l-77.109 19.174 1.959 7.87 77.109-19.175-1.959-7.87zm98.945-3.415L215.371 99.42l2.213 8.891L388.669 65.77l-2.213-8.891zm5.418 21.721l-171.085 42.543 2.213 8.891 171.085-42.542-2.213-8.892zm3.59 28.787l-5.358 5.356-143.625 37.53-18.768-4.384-.709-2.035 170.536-42.4.729 2.946-2.805 2.987zm-36.739 37.411l-64.712 16.077-19.771-4.516 96.698-24.045-12.215 12.484z" fill="#E0E0E0"/><path d="M317.807 166.786s-.071.111-.243.304l-.77.84-2.978 3.189-11.03 11.673a8220.818 8220.818 0 01-36.615 38.31c-14.332 14.893-27.499 28.257-37.101 37.834a1447.092 1447.092 0 01-11.425 11.299l-3.13 3.037-.831.779a1.473 1.473 0 01-.293.253c.074-.105.159-.204.253-.293l.79-.82 3.038-3.108 11.314-11.41a4451.994 4451.994 0 0036.99-37.946c14.362-14.902 27.347-28.347 36.716-38.198l11.142-11.551 3.039-3.119.81-.8c.223-.192.324-.273.324-.273zm157.114 42.106c-.051.142-29.9-10.215-66.667-23.133-36.767-12.919-66.535-23.508-66.484-23.65.05-.142 29.899 10.205 66.666 23.123 36.767 12.919 66.535 23.509 66.485 23.66zM428.517 73.46c-.057.09-.121.175-.193.253l-.567.699-2.401 2.662-8.943 9.71a2083.226 2083.226 0 01-29.961 31.587c-11.83 12.219-22.749 23.123-30.669 30.959l-9.43 9.233-2.593 2.481-.679.638c-.162.141-.243.212-.253.202.064-.086.136-.168.213-.243l.638-.678 2.522-2.551 9.298-9.355a3456.833 3456.833 0 0030.497-31.071 3633.571 3633.571 0 0030.083-31.425l9.065-9.588 2.481-2.592.659-.668c.066-.094.145-.179.233-.253zm-110.713 93.327a1.63 1.63 0 01-.354-.061l-1.013-.243-4.051-1.013a973.439 973.439 0 00-14.728-3.553c-12.448-2.946-29.717-6.743-48.799-10.873-19.083-4.131-36.342-7.988-48.77-11.036-6.219-1.518-11.243-2.794-14.697-3.725l-3.98-1.084-1.013-.293a1.396 1.396 0 01-.344-.122l.354.071 1.013.233 4.052 1.012c3.474.871 8.508 2.086 14.737 3.554 12.448 2.946 29.707 6.743 48.8 10.873 19.092 4.131 36.341 7.988 48.769 11.035 6.219 1.519 11.243 2.785 14.697 3.726l3.97 1.083 1.013.294.344.122z" fill="#FAFAFA"/><path d="M424.238 77.896s-.101-.334-.274-1.013l-.739-2.865c-.648-2.54-1.59-6.256-2.806-11.045L410.22 22.355c-.54-2.146-1.091-4.343-1.651-6.59a340.843 340.843 0 00-.851-3.403c-.142-.577-.283-1.154-.466-1.71a11.268 11.268 0 00-.608-1.66A14.292 14.292 0 00395.25.578a14.085 14.085 0 00-3.859-.001c-1.276.223-2.573.577-3.88.89l-7.951 2.026-16.621 4.1-73.848 18.426-73.939 18.345-16.601 4.11-4.051 1.013a22.627 22.627 0 00-3.849 1.164 14.39 14.39 0 00-5.996 4.85 14.793 14.793 0 00-1.783 3.35 15.622 15.622 0 00-.82 3.635c-.294 2.48.395 4.87.881 7.229a23649.6 23649.6 0 012.907 13.576c3.697 17.302 6.685 31.294 8.751 40.983 1.013 4.839 1.813 8.585 2.36 11.136.253 1.266.456 2.237.598 2.906.141.668.182 1.012.182 1.012s-.091-.334-.243-1.012l-.648-2.886c-.568-2.561-1.388-6.307-2.452-11.136-2.116-9.679-5.165-23.67-8.933-40.942-.932-4.323-1.924-8.849-2.947-13.577-.487-2.328-1.196-4.798-.892-7.36a15.21 15.21 0 01.831-3.756 15.51 15.51 0 011.833-3.462 14.216 14.216 0 012.725-2.906 13.772 13.772 0 013.454-2.106 22.411 22.411 0 013.919-1.194l4.052-1.013 16.631-4.11L289 25.483l73.939-18.345 16.601-4.11 7.951-1.964c1.307-.324 2.583-.668 3.92-.901a14.854 14.854 0 0111.141 2.835 14.729 14.729 0 014.599 5.821c.254.553.464 1.125.628 1.711.182.577.324 1.154.466 1.731.283 1.144.557 2.288.84 3.412.558 2.248 1.094 4.444 1.631 6.59l10.028 40.69c1.164 4.798 2.076 8.524 2.694 11.065.304 1.266.537 2.228.689 2.886.151.658.111.992.111.992z" fill="#E0E0E0"/><path d="M526.022 395.348c0 .152-91.604.273-204.599.273-112.995 0-204.599-.111-204.599-.273 0-.162 91.594-.284 204.599-.284s204.599.142 204.599.284z" fill="#263238"/><path d="M310.983 24.462l-10.007 7.623.486 14.559-9.177-7.28-5.054 4.334-19.254-23.752 43.006 4.516z" fill="url(#paint1_linear_7945_49580)"/><path d="M297.209 35.184c0 .445 4.254 11.46 4.254 11.46l-9.166-7.28 4.912-4.18z" fill="url(#paint2_linear_7945_49580)"/><path opacity=".3" d="M297.213 35.182c0 .445 4.254 11.46 4.254 11.46l-9.166-7.28 4.912-4.18z" fill="#000"/><path d="M267.977 19.946l29.231 15.237 4.254 11.46-.486-14.558-32.999-12.139z" fill="url(#paint3_linear_7945_49580)"/><path opacity=".1" d="M267.977 19.946l29.231 15.237 4.254 11.46-.486-14.558-32.999-12.139z" fill="#000"/><path d="M349.016 216.375a13.08 13.08 0 01-5.196-1.266c1.801.06 3.57.491 5.196 1.266zm8.295 2.025c0 .152-.759.101-1.61-.101-.851-.203-1.519-.507-1.489-.659.03-.151.76-.101 1.621.112.86.212 1.519.496 1.478.648zM323.11 44.74a7.901 7.901 0 01-2.644-.415 7.405 7.405 0 01-2.552-.8 5.958 5.958 0 012.684.264c.902.11 1.764.436 2.512.951zm9.797 4.202a18.165 18.165 0 01-4.77-2.39 5.766 5.766 0 012.542.871c1.327.669 2.309 1.387 2.228 1.519zm8.503 6.44c-.112.11-1.013-.648-2.148-1.6-1.134-.952-2.025-1.762-1.894-1.893a5.867 5.867 0 012.279 1.468c1.104.972 1.874 1.923 1.763 2.025zm6.484 8.453c-.141.071-.81-.911-1.62-2.126a7.93 7.93 0 01-1.317-2.328c.111-.092.962.78 1.783 2.024.571.708.967 1.54 1.154 2.43zm3.672 9.992a8.11 8.11 0 01-.892-2.521 7.665 7.665 0 01-.557-2.622 5.908 5.908 0 011.084 2.47c.34.847.466 1.765.365 2.673zm.554 10.63a8.33 8.33 0 01-.111-2.673 7.616 7.616 0 01.243-2.663c.309.855.416 1.77.314 2.673a5.785 5.785 0 01-.446 2.663zm-2.768 10.265a8.25 8.25 0 01.749-2.562 8.51 8.51 0 011.013-2.46 5.353 5.353 0 01-.537 2.643 5.496 5.496 0 01-1.225 2.379zm-6.187 8.648c-.101-.121.689-1.012 1.651-2.106.962-1.093 1.732-2.024 1.864-1.913a5.543 5.543 0 01-1.449 2.278c-.982 1.134-1.965 1.853-2.066 1.741zm-8.935 5.749a8.359 8.359 0 012.29-1.377 8.191 8.191 0 012.441-1.094 5.601 5.601 0 01-2.188 1.59 5.524 5.524 0 01-2.543.881zm-10.394 2.238a8.09 8.09 0 012.644-.496 8.346 8.346 0 012.674-.172 5.55 5.55 0 01-2.604.718 5.402 5.402 0 01-2.714-.05zm-10.43-1.974c1.732.36 3.427.879 5.065 1.549a5.26 5.26 0 01-2.674-.365 5.16 5.16 0 01-2.391-1.184zm-7.39-7.33c.152-.051.617 1.012 1.448 2.207.831 1.194 1.631 2.024 1.519 2.176-.111.152-1.104-.607-1.975-1.852a4.049 4.049 0 01-.992-2.531zm4.495-8.291c0 .162-1.104.516-2.259 1.336-1.155.82-1.772 1.843-1.914 1.762-.142-.081.304-1.296 1.59-2.207a3.709 3.709 0 012.583-.891zm9.15 3.795c-.142.081-.79-.91-1.843-1.883-1.054-.972-2.127-1.458-2.026-1.61a3.697 3.697 0 012.451 1.205 3.929 3.929 0 011.418 2.288zm.351 10.339c.075-.883.241-1.754.496-2.602.076-.886.242-1.761.496-2.612a4.612 4.612 0 010 2.713 4.52 4.52 0 01-.992 2.501zm-6.943 7.946c-.091-.132.83-.891 1.934-1.833 1.104-.941 2.026-1.751 2.097-1.65.071.101-.588 1.094-1.732 2.025-1.145.931-2.218 1.589-2.299 1.458zm-9.467 4.92a6.723 6.723 0 012.309-1.366 6.564 6.564 0 012.542-.861 12.91 12.91 0 01-4.851 2.227zm-9.535 4.84c-.081-.132.881-.85 2.158-1.62a6.077 6.077 0 012.491-1.012c.081.152-.952.769-2.218 1.498a6.537 6.537 0 01-2.431 1.134zm-8.106 6.964c-.112-.101.587-1.093 1.651-2.136a5.947 5.947 0 012.157-1.61c.101.122-.719 1.013-1.762 2.025-1.043 1.013-1.884 1.822-2.046 1.721zm-6.074 8.727a5.893 5.893 0 011.094-2.46c.78-1.265 1.58-2.177 1.701-2.086a7.54 7.54 0 01-1.225 2.38c-.77 1.245-1.428 2.237-1.57 2.166zm-3.893 9.922a5.68 5.68 0 01.486-2.643 5.75 5.75 0 011.165-2.429 18.046 18.046 0 01-1.651 5.062v.01zm-1.39 10.569a9.92 9.92 0 01.365-5.325 7.79 7.79 0 010 2.673 7.647 7.647 0 01-.365 2.652zm1.395 10.561a6.509 6.509 0 01-.841-2.552 5.446 5.446 0 01-.223-2.683c.392.811.652 1.679.77 2.572.281.858.381 1.764.294 2.663zm4.129 9.82c-.132.081-.851-.891-1.509-2.227a5.643 5.643 0 01-.861-2.551 7.705 7.705 0 011.357 2.308c.48.758.823 1.594 1.013 2.47zm6.399 8.534c-.101.101-1.013-.668-2.026-1.802a6.003 6.003 0 01-1.458-2.268c.132-.101.932.79 1.884 1.903.952 1.114 1.712 2.055 1.6 2.167zm8.215 6.783a5.805 5.805 0 01-2.37-1.286c-1.195-.871-2.026-1.742-1.945-1.863a7.756 7.756 0 012.279 1.417c1.175.861 2.117 1.6 2.036 1.732zm9.629 4.597a5.656 5.656 0 01-2.613-.658 5.508 5.508 0 01-2.34-1.336 8.107 8.107 0 012.542.82 8.467 8.467 0 012.411 1.174zm5.36 1.368c0 .141-.091.263-.142.253-.051-.01-.071-.142 0-.294s.091-.263.142-.253c.05.01.03.142 0 .294z" fill="#263238"/><path d="M301.986 176.933l-11.076-3.636-2.263 6.887 11.077 3.636 2.262-6.887z" fill="url(#paint4_linear_7945_49580)"/><path opacity=".3" d="M301.986 176.933l-11.076-3.636-2.263 6.887 11.077 3.636 2.262-6.887z" fill="#000"/><path d="M301.965 176.951a46.074 46.074 0 01-6.421 2.633l-.193.07-.121-.161-.193-.243a45.404 45.404 0 01-4.142-5.943 47.707 47.707 0 014.588 5.608l.182.243-.314-.091a43.18 43.18 0 016.614-2.116z" fill="url(#paint5_linear_7945_49580)"/><path opacity=".1" d="M301.961 176.951a46.025 46.025 0 01-6.421 2.633l-.193.07-.121-.161-.193-.243a45.404 45.404 0 01-4.142-5.943 47.707 47.707 0 014.588 5.608l.182.243-.314-.091a43.18 43.18 0 016.614-2.116z" fill="#000"/><path d="M294.073 177.529a8.327 8.327 0 01-2.603 1.59 8.908 8.908 0 01-2.857 1.083 8.603 8.603 0 012.613-1.589 8.991 8.991 0 012.847-1.084z" fill="url(#paint6_linear_7945_49580)"/><path opacity=".1" d="M294.073 177.527a8.327 8.327 0 01-2.603 1.59 8.908 8.908 0 01-2.857 1.083 8.603 8.603 0 012.613-1.589 8.991 8.991 0 012.847-1.084z" fill="#000"/><path d="M299.894 183.897a8.347 8.347 0 01-1.418-2.562c-.668-1.508-1.114-2.804-.911-2.784a8.466 8.466 0 011.428 2.561c.472.864.778 1.808.901 2.785z" fill="url(#paint7_linear_7945_49580)"/><path opacity=".1" d="M299.898 183.898a8.347 8.347 0 01-1.418-2.562c-.668-1.508-1.114-2.804-.911-2.784a8.466 8.466 0 011.428 2.561c.472.864.777 1.808.901 2.785z" fill="#000"/><path d="M347.133 203.911l-28.485-9.349-5.821 17.717 28.485 9.35 5.821-17.718z" fill="url(#paint8_linear_7945_49580)"/><path d="M347.122 203.932a7.283 7.283 0 01-1.276.577l-3.545 1.387a1390.634 1390.634 0 01-11.851 4.414l-.192.071-.122-.162-.476-.628a643.16 643.16 0 01-7.89-10.549l-2.38-3.23a8.073 8.073 0 01-.8-1.235c.371.336.71.705 1.013 1.104l2.481 3.128a913.487 913.487 0 018.022 10.448l.476.618-.314-.091c4.659-1.701 8.863-3.2 11.901-4.253l3.606-1.225a7.473 7.473 0 011.347-.374z" fill="url(#paint9_linear_7945_49580)"/><path opacity=".2" d="M347.118 203.931a7.283 7.283 0 01-1.276.577l-3.545 1.387a1401.578 1401.578 0 01-11.85 4.414l-.193.071-.121-.162-.476-.628a638.229 638.229 0 01-7.891-10.549l-2.38-3.23a8.073 8.073 0 01-.8-1.235c.371.336.71.705 1.013 1.104l2.481 3.128a913.487 913.487 0 018.022 10.448l.476.618-.314-.091c4.659-1.701 8.863-3.2 11.901-4.253l3.606-1.225a7.52 7.52 0 011.347-.374z" fill="#000"/><path d="M326.865 205.44a56.254 56.254 0 01-6.908 3.675 56.73 56.73 0 01-7.141 3.179 53.622 53.622 0 016.898-3.685 53.347 53.347 0 017.151-3.169z" fill="url(#paint10_linear_7945_49580)"/><path opacity=".2" d="M326.865 205.438a56.254 56.254 0 01-6.908 3.675 56.73 56.73 0 01-7.141 3.179 53.622 53.622 0 016.898-3.685 53.475 53.475 0 017.151-3.169z" fill="#000"/><path d="M341.814 221.811a51.61 51.61 0 01-3.251-6.762 51.144 51.144 0 01-2.735-6.996 51.305 51.305 0 013.251 6.773 50.622 50.622 0 012.735 6.985z" fill="url(#paint11_linear_7945_49580)"/><path opacity=".2" d="M341.814 221.811a51.61 51.61 0 01-3.251-6.762 51.144 51.144 0 01-2.735-6.996 51.305 51.305 0 013.251 6.773 50.622 50.622 0 012.735 6.985z" fill="#000"/><path d="M320.206 198.941a4.45 4.45 0 01-6.659-1.702 4.446 4.446 0 01.747-4.881 4.45 4.45 0 016.864.367 4.438 4.438 0 01-.952 6.216z" fill="#263238"/><path d="M320.4 194.537a20.28 20.28 0 01-2.988 1.842l-.709.395-.131.071-.071-.121c-.48-.76-.887-1.564-1.216-2.4a13.307 13.307 0 011.469 2.258l-.193-.061.709-.405a20.171 20.171 0 013.13-1.579z" fill="#fff"/><path d="M328.855 180.038l-14.925-4.899-3.05 9.282 14.925 4.899 3.05-9.282z" fill="url(#paint12_linear_7945_49580)"/><path opacity=".2" d="M328.847 180.04l-14.925-4.899-3.05 9.282 14.926 4.899 3.049-9.282z" fill="#000"/><path d="M328.82 180.049a3.39 3.39 0 01-.659.303l-1.864.729a429.638 429.638 0 01-6.208 2.308h-.102l-.06-.091-.244-.324c-1.63-2.146-3.038-4.1-4.142-5.527l-1.216-1.651a4.515 4.515 0 01-.415-.648c.188.175.358.369.507.578l1.306 1.64a420.896 420.896 0 014.193 5.467l.254.334h-.162a351.963 351.963 0 016.239-2.228l1.884-.637c.219-.11.45-.195.689-.253z" fill="url(#paint13_linear_7945_49580)"/><path opacity=".2" d="M328.82 180.049a3.39 3.39 0 01-.659.303l-1.864.729a429.638 429.638 0 01-6.208 2.308h-.102l-.06-.091-.244-.324c-1.63-2.146-3.038-4.1-4.142-5.527l-1.216-1.651a4.515 4.515 0 01-.415-.648c.188.175.358.369.507.578l1.306 1.64a420.896 420.896 0 014.193 5.467l.254.334h-.162a351.963 351.963 0 016.239-2.228l1.884-.637c.219-.11.45-.195.689-.253z" fill="url(#paint14_linear_7945_49580)"/><path d="M318.219 180.838a30.518 30.518 0 01-3.616 1.923c-1.21.642-2.462 1.2-3.748 1.671a28.006 28.006 0 013.616-1.934 28.34 28.34 0 013.748-1.66z" fill="url(#paint15_linear_7945_49580)"/><path opacity=".2" d="M318.215 180.839a30.518 30.518 0 01-3.616 1.923c-1.21.642-2.462 1.2-3.747 1.671a27.929 27.929 0 013.615-1.934 28.399 28.399 0 013.748-1.66z" fill="url(#paint16_linear_7945_49580)"/><path d="M326.042 189.413a26.684 26.684 0 01-1.701-3.543 28.664 28.664 0 01-1.439-3.665 51.424 51.424 0 013.14 7.208z" fill="url(#paint17_linear_7945_49580)"/><path opacity=".2" d="M326.046 189.413a26.684 26.684 0 01-1.701-3.543 28.664 28.664 0 01-1.439-3.665 51.424 51.424 0 013.14 7.208z" fill="url(#paint18_linear_7945_49580)"/><path d="M208.99 63.854a21.151 21.151 0 01-29.603 13.874 21.133 21.133 0 012.044-39.006 21.156 21.156 0 0112.264-.563 21.16 21.16 0 0112.969 9.683 21.144 21.144 0 012.326 16.012z" fill="url(#paint19_linear_7945_49580)"/><path d="M196.295 47.19c.374.152-2.026 7.229-5.369 15.814-.496 1.245-1.013 2.44-1.428 3.614l-.253.638-.638-.243c-6.857-2.642-11.871-4.82-11.749-5.133.121-.314 5.327 1.326 12.235 3.827l-.891.405c.445-1.175.911-2.38 1.387-3.625 3.333-8.595 6.341-15.409 6.706-15.297z" fill="#fff"/><path d="M468.941 363.042a19.586 19.586 0 0112.155-1.478c2.208.364 4.507 1.012 6.016 2.673 1.509 1.66 1.783 4.576.061 6.003a5.84 5.84 0 01-3.788.962c-3.221 0-6.786-.607-9.359 1.326-1.469 1.104-2.441 2.936-4.193 3.483a4.162 4.162 0 01-4.558-2.025 7.084 7.084 0 01-.517-5.224 7.95 7.95 0 014.183-5.72z" fill="url(#paint20_linear_7945_49580)"/><path opacity=".2" d="M468.941 363.044a19.586 19.586 0 0112.155-1.478c2.208.364 4.507 1.012 6.016 2.673 1.509 1.66 1.783 4.576.061 6.003a5.846 5.846 0 01-3.788.962c-3.221 0-6.786-.607-9.359 1.326-1.469 1.104-2.441 2.936-4.193 3.483a4.162 4.162 0 01-4.558-2.025 7.084 7.084 0 01-.517-5.224 7.95 7.95 0 014.183-5.72z" fill="#fff"/><path d="M460.461 346.681c2.269 3.23 6.665 2.157 8.701.183 2.036-1.975 2.907-4.83 3.687-7.553 1.792-6.226 3.595-12.756 2.269-19.094a10.75 10.75 0 00-2.441-5.194 5.553 5.553 0 00-5.257-1.751c-2.218.587-3.596 2.764-4.589 4.829a45.61 45.61 0 00-4.507 19.54c0 3.148.365 6.449 2.137 9.05" fill="url(#paint21_linear_7945_49580)"/><path d="M454.247 351.318c2.451-2.916 2.917-7.168 1.823-10.823a20.908 20.908 0 00-6.401-9.294 34.625 34.625 0 00-11.476-6.722 12.289 12.289 0 00-5.166-.881 5.441 5.441 0 00-4.335 2.622c-1.205 2.298-.05 5.062 1.205 7.371a87.98 87.98 0 007.536 11.48c2.259 2.906 4.852 5.781 8.296 7.087 3.443 1.306 7.019 1.164 8.842-1.225" fill="url(#paint22_linear_7945_49580)"/><path opacity=".1" d="M454.247 351.317c2.451-2.916 2.917-7.168 1.823-10.823a20.908 20.908 0 00-6.401-9.294 34.625 34.625 0 00-11.476-6.722 12.289 12.289 0 00-5.166-.881 5.441 5.441 0 00-4.335 2.622c-1.205 2.298-.05 5.062 1.205 7.371a87.98 87.98 0 007.536 11.48c2.259 2.906 4.852 5.781 8.296 7.087 3.443 1.306 7.019 1.164 8.842-1.225" fill="#000"/><path d="M460.308 395.409c.117-.481.185-.973.202-1.468.112-1.073.233-2.409.395-4.049.199-1.972.5-3.932.902-5.872a44.684 44.684 0 012.137-6.935 25.562 25.562 0 013.545-6.277 13.154 13.154 0 014.477-3.726 12.773 12.773 0 013.768-1.174c.492-.017.98-.085 1.458-.203a6.099 6.099 0 00-1.479 0 11.566 11.566 0 00-3.94 1.013 13.303 13.303 0 00-4.72 3.756 25.085 25.085 0 00-3.676 6.398 42.615 42.615 0 00-2.117 7.087 48.71 48.71 0 00-.78 5.943 70.563 70.563 0 00-.203 4.05c-.039.485-.029.974.031 1.457z" fill="#263238"/><path d="M460.581 392.311a2.483 2.483 0 000-.678v-1.944c0-1.691 0-4.141.081-7.158.152-6.074.669-14.386 1.682-23.549 1.012-9.162 2.349-17.413 3.575-23.285.284-1.478.577-2.815.851-3.979.273-1.164.486-2.187.699-3.037.212-.851.334-1.397.455-1.893.069-.22.11-.448.122-.679a2.854 2.854 0 00-.233.638l-.567 1.873c-.253.81-.507 1.812-.8 2.977-.294 1.164-.628 2.49-.952 3.978a221.745 221.745 0 00-3.718 23.326c-1.013 9.183-1.458 17.546-1.499 23.6 0 3.037 0 5.477.102 7.168.047.789.087 1.437.121 1.944.005.234.032.468.081.698z" fill="#263238"/><path d="M460.623 376.193c.055-.674.055-1.351 0-2.025a53.318 53.318 0 00-.628-5.508 76.366 76.366 0 00-5.145-17.535 50.56 50.56 0 00-9.865-15.368 24.39 24.39 0 00-2.32-2.157c-.354-.303-.668-.597-1.013-.84l-.891-.617a13.5 13.5 0 00-1.722-1.104 61.706 61.706 0 015.621 5.011 53.4 53.4 0 019.623 15.308 76.254 76.254 0 013.373 9.416c.881 2.946 1.468 5.659 1.914 7.947.445 2.288.658 4.161.81 5.457.033.676.114 1.35.243 2.015z" fill="#263238"/><path d="M306.578 242.729h42.399l16.803-46.895h-2.36l-16.651 44.607-40.191.233v2.055z" fill="url(#paint23_linear_7945_49580)"/><path d="M287.832 248.648l1.58 146.891h4.305l-1.752-147.975-4.133 1.084zm90.79-1.426c-.578 2.804 3.889 148.652 3.889 148.652h4.052l-3.292-148.652h-4.649z" fill="#555A64"/><path d="M428.198 242.726H247.867v7.431h14.889l-9.683 144.906 4.234.233L267 250.157h146.015l7.08 145.2h4.244l-7.07-145.2h10.929v-7.431z" fill="#555A64"/><path d="M326.491 390.012v-11.136l-20.875-.213-.233 16.3 1.296.091c5.753.385 29.292 1.519 33.151.395 4.295-1.255-13.339-5.437-13.339-5.437z" fill="url(#paint24_linear_7945_49580)"/><path d="M312.938 394.872a7.217 7.217 0 00-2.613-4.475 7.09 7.09 0 00-4.862-1.569l-.061 5.831 7.536.213z" fill="#F5F5F5"/><path d="M335.082 392.361s6.199 1.863 5.409 2.876c-.79 1.012-24.613.759-35.116-.274v-.465l27.793.536s.699-2.632 1.914-2.673z" fill="#F5F5F5"/><path d="M305.09 394.478h.354l1.013.081 3.788.202a370.3 370.3 0 0025.048.283l3.799-.111 1.013-.05h.354a1.311 1.311 0 00-.354 0h-17.331c-4.882 0-9.318-.183-12.519-.284l-3.798-.121h-1.367z" fill="#263238"/><path d="M333.195 395.348a8.314 8.314 0 01.73-1.802 8.216 8.216 0 011.306-1.438 3.364 3.364 0 00-2.026 3.24h-.01zm-6.129-3.179c.061 0 .365-.324.669-.8.304-.476.516-.891.456-.931-.061-.041-.355.324-.669.799a2.416 2.416 0 00-.456.932zm-1.679-.87c.051.051.385-.162.75-.486.364-.324.617-.617.567-.668-.051-.05-.375.162-.74.476-.364.314-.617.587-.577.678zm-1.047-2.026c.344.134.715.186 1.084.152a2.5 2.5 0 001.093-.101 2.381 2.381 0 00-1.083-.152 2.519 2.519 0 00-1.094.101zm-.356-1.386a3.089 3.089 0 002.472.212c-.825-.064-1.648-.135-2.472-.212z" fill="#263238"/><path d="M327.793 390.359c.446.077.901.077 1.347 0 .485-.052.963-.15 1.428-.294.286-.08.561-.192.821-.334a.691.691 0 00.334-.405.551.551 0 00-.193-.547 2.468 2.468 0 00-3.038.689 2.367 2.367 0 00-.456.891v.364a3.52 3.52 0 01.618-1.134 2.38 2.38 0 011.155-.739 2.091 2.091 0 011.6.132c.213.162.121.405-.112.546-.242.13-.496.235-.759.314a9.08 9.08 0 01-1.388.344c-.84.102-1.357.102-1.357.173z" fill="#263238"/><path d="M328.143 390.428c.17-.279.231-.611.173-.932a2.323 2.323 0 00-.355-1.012 1.353 1.353 0 00-1.114-.699.528.528 0 00-.415.618c.027.212.1.415.212.597.18.295.39.57.628.82.203.244.464.433.76.547 0 0-.263-.243-.628-.668a4.516 4.516 0 01-.547-.81c-.182-.284-.304-.8 0-.851.304-.05.679.304.881.577.18.263.304.559.365.871.05.311.064.627.04.942zm-22.569-1.651s.598-.051 1.54.071a6.737 6.737 0 013.352 1.417 6.789 6.789 0 012.026 3.038c.304.89.334 1.498.375 1.488.04-.01 0-.152 0-.415a6.064 6.064 0 00-.213-1.134 6.368 6.368 0 00-5.571-4.536 5.178 5.178 0 00-1.154 0 .96.96 0 00-.355.071zm2.257-8.616a69.754 69.754 0 00-.203 8.565c.16-1.422.235-2.852.223-4.282a38.487 38.487 0 00-.02-4.283zm7.763 12.708a11.43 11.43 0 003.038.334c1.018.066 2.04-.005 3.039-.212 0-.071-1.367 0-3.039 0-1.671 0-3.028-.193-3.038-.122z" fill="#263238"/><path d="M311.492 392.817c0 .051.112.294.243.608.132.314.213.587.284.587.071 0 .111-.334-.051-.689-.162-.354-.425-.556-.476-.506zm-1.508-1.934c0 .051.081.264.294.486.213.223.426.365.476.314.051-.05-.081-.263-.294-.486-.212-.223-.425-.364-.476-.314zm-2.198-.9c0 .07.294.07.598.182.304.111.526.283.577.233.051-.051-.111-.334-.496-.466s-.699-.01-.679.051zm-1.548-.426c0 .061.091.172.264.243.172.071.334.071.354 0 .02-.071-.091-.172-.263-.243-.172-.071-.355-.071-.355 0z" fill="#263238"/><path d="M367.531 378.775l-4.578-10.174-19.113 8.392 6.492 14.944 1.216-.446c5.408-2.025 27.347-10.66 30.386-13.272 3.433-2.916-14.403.556-14.403.556z" fill="url(#paint25_linear_7945_49580)"/><path d="M357.228 388.747a7.246 7.246 0 00-4.234-3.037 7.092 7.092 0 00-5.064.577l2.339 5.336 6.959-2.876z" fill="#F5F5F5"/><path d="M376.376 377.358s6.412-.861 6.077.395c-.334 1.255-22.121 10.812-32.117 14.174l-.152-.436 25.544-10.944s-.446-2.652.648-3.189z" fill="#F5F5F5"/><path d="M349.898 391.624l.345-.112 1.013-.354 3.545-1.377a354.643 354.643 0 0011.556-4.829c4.467-1.964 8.498-3.817 11.385-5.214l3.413-1.66.922-.476c.111-.045.217-.102.314-.172l-.334.131-.942.426-3.444 1.599a636.862 636.862 0 01-11.415 5.133 679.136 679.136 0 01-11.526 4.9l-3.505 1.448-.952.395-.375.162z" fill="#263238"/><path d="M375.885 380.862a7.91 7.91 0 01-.081-1.944 9.273 9.273 0 01.597-1.853 2.807 2.807 0 00-.851 1.813 2.83 2.83 0 00.335 1.984zm-6.854-.395c.071 0 .193-.435.284-1.012.091-.577.101-1.013 0-1.013-.102 0-.193.436-.284 1.013-.083.332-.083.68 0 1.012zm-1.947-.132c.061 0 .273-.314.476-.749.203-.436.304-.82.243-.851-.061-.03-.273.304-.476.749-.202.446-.324.821-.243.851zm-1.774-1.378c.356-.034.7-.141 1.013-.314.557-.233 1.013-.476.952-.536-.061-.061-.496.07-1.013.303-.516.233-.982.476-.952.547zm-.888-1.123a2.17 2.17 0 001.256-.172c.415-.102.79-.328 1.073-.648-.4.102-.79.241-1.164.415a6.377 6.377 0 00-1.165.405z" fill="#263238"/><path d="M368.907 378.523c.436-.113.85-.297 1.225-.547.417-.251.81-.539 1.175-.86.229-.19.436-.404.618-.638a.736.736 0 00.132-.516.502.502 0 00-.395-.405 2.472 2.472 0 00-2.542 2.865.868.868 0 00.111.354 4.068 4.068 0 01.101-1.296c.133-.446.394-.843.75-1.144a2.117 2.117 0 011.509-.536c.263.05.284.314.122.547a4.44 4.44 0 01-.558.597c-.354.319-.73.613-1.124.881-.678.455-1.144.658-1.124.698z" fill="#263238"/><path d="M369.252 378.442a1.372 1.372 0 00-.233-.912 2.33 2.33 0 00-.729-.759 1.36 1.36 0 00-1.296-.172.528.528 0 00-.132.729c.111.185.263.341.446.455.283.202.589.368.911.497.287.136.604.199.922.182 0 0-.344-.112-.851-.355a4.328 4.328 0 01-.841-.506c-.283-.182-.597-.597-.313-.789a1.19 1.19 0 011.012.162c.278.161.517.383.699.648.158.261.294.535.405.82zm-21.255 7.795s.516-.293 1.428-.567a6.548 6.548 0 016.756 1.792c.648.699.921 1.235.962 1.205a1.512 1.512 0 00-.172-.385 5.262 5.262 0 00-.659-.931 6.42 6.42 0 00-3.18-2.025 6.531 6.531 0 00-3.758.152 5.341 5.341 0 00-1.013.496c-.263.142-.374.263-.364.263z" fill="#263238"/><path d="M346.492 377.398c.43 1.382.948 2.735 1.55 4.05a38.769 38.769 0 001.793 3.898 36.02 36.02 0 00-1.56-3.999 39.087 39.087 0 00-1.783-3.949zm12.317 8.433a12.12 12.12 0 002.917-.951c.96-.358 1.866-.845 2.694-1.448 0-.061-1.246.557-2.795 1.215-1.55.658-2.836 1.113-2.816 1.184zm-3.754 1.631c0 .071.223.223.476.456s.435.455.496.415c.061-.041 0-.344-.324-.608-.324-.263-.628-.324-.648-.263zm-2.168-1.133c0 .071.182.212.466.324.283.111.536.152.567.091.03-.061-.183-.213-.466-.324-.284-.111-.547-.182-.567-.091zm-2.369.08c0 .061.294-.05.618-.071.324-.02.587 0 .618 0 .03 0-.243-.263-.638-.222-.395.04-.648.243-.598.293zm-1.612.254c0 .07.162.121.345.111.182-.01.334-.071.334-.142s-.162-.121-.345-.111c-.182.01-.334.071-.334.142z" fill="#263238"/><path d="M178.114 304.354l-15.072-112.571a4.742 4.742 0 011.253-3.889 4.753 4.753 0 013.811-1.476l36.332 3.037a6.867 6.867 0 016.27 6.287l8.852 106.577-41.446 2.035z" fill="url(#paint26_linear_7945_49580)"/><path opacity=".2" d="M178.114 304.353l-15.072-112.571a4.742 4.742 0 011.253-3.889 4.753 4.753 0 013.811-1.476l36.332 3.037a6.867 6.867 0 016.27 6.287l8.852 106.577-41.446 2.035z" fill="#000"/><path d="M213.16 138.914c-.304-4.292-1.428-8.473-2.026-12.726-.597-4.252-.719-8.727.962-12.685a18.507 18.507 0 0110.473-9.578 32.117 32.117 0 0114.363-1.64c.877.027 1.74.223 2.542.577a2.53 2.53 0 011.449 2.025 1.581 1.581 0 01-.448 1.171 1.574 1.574 0 01-1.163.469c1.85.189 3.674.58 5.439 1.165.718.203 1.341.65 1.763 1.265a2.415 2.415 0 01-.244 2.389 7.069 7.069 0 01-1.833 1.722 1.67 1.67 0 011.263.253 1.697 1.697 0 01.712 1.073 3.2 3.2 0 01-.699 2.5c-.516.729-1.185 1.327-1.721 2.025-2.188 2.906-1.763 6.945-1.236 10.55" fill="#333945"/><path d="M213.555 164.063l20.47-.364c.274-2.369.669-11.582.669-11.582s8.558-.79 9.186-9.254c.628-8.464.365-28.003.365-28.003a29.515 29.515 0 00-29.819 1.893l-1.317.891.446 46.419z" fill="#B78876"/><path d="M241.41 129.54a1.234 1.234 0 01.876-2.106 1.237 1.237 0 011.213 1.473 1.244 1.244 0 01-1.213 1.001 1.215 1.215 0 01-.876-.368z" fill="#333945"/><path d="M243.566 127.484c-.142.142-.932-.547-2.096-.628-1.165-.081-2.026.476-2.178.314-.152-.162.091-.324.476-.587a2.92 2.92 0 013.413.253c.345.314.456.587.385.648zm-13.51.193a1.24 1.24 0 01.499 1.282 1.237 1.237 0 01-1.711.859 1.241 1.241 0 01-.73-1.166 1.234 1.234 0 01.578-1.011 1.22 1.22 0 01.927-.159c.157.036.306.102.437.195z" fill="#333945"/><path d="M230.823 127.737c-.142.132-.932-.556-2.097-.637-1.165-.081-2.026.475-2.167.323-.142-.151.081-.334.476-.587a2.869 2.869 0 013.403.253c.344.304.456.588.385.648zm4.09 9.913a5.672 5.672 0 011.904-.283c.314 0 .557-.071.588-.233a1.732 1.732 0 00-.162-.891c-.254-.79-.517-1.589-.78-2.43-1.064-3.452-1.793-6.297-1.611-6.347.182-.051 1.175 2.703 2.249 6.155.253.84.486 1.65.729 2.44.166.408.195.86.081 1.286a.801.801 0 01-.557.455 2.352 2.352 0 01-.517 0 5.694 5.694 0 01-1.924-.152z" fill="#333945"/><path d="M231.04 138.702c-1.165-.8 3.241 2.025 5.621 2.025a3.206 3.206 0 01-3.879 1.012c-2.512-1.063-1.742-3.037-1.742-3.037z" fill="#fff"/><path d="M234.717 151.995a19.715 19.715 0 01-10.858-3.817s2.239 6.256 10.737 6.013l.121-2.196z" fill="#A36957"/><path d="M212.834 124.023l.435 10.985s3.859-1.175 4.112-1.286c.254-.111-.071-13.455-.071-13.455s-.536-5.062 2.745-6.226c3.454-1.246 4.953 1.255 9.845 2.025 16.135 2.723 15.031-2.228 15.031-2.228s2.026-2.176-2.117-4.566c-4.142-2.389-14.504-3.199-20.176-1.245-11.141 3.837-11.81 7.654-11.81 11.025 0 4.809 2.006 4.971 2.006 4.971z" fill="#333945"/><path d="M214.733 125.157c-.182-.071-6.28-.861-5.702 6.338.577 7.198 7.657 4.242 7.657 4.049 0-.192-1.955-10.387-1.955-10.387z" fill="#B78876"/><path d="M214.273 133.133s-.121.102-.324.213c-.29.151-.628.183-.942.091a3.04 3.04 0 01-1.651-2.663 4.16 4.16 0 01.203-1.832 1.462 1.462 0 01.871-1.013.65.65 0 01.769.284c.112.192.071.344.112.354.04.01.142-.141.061-.425a.777.777 0 00-.314-.435 1.016 1.016 0 00-.709-.122 1.765 1.765 0 00-1.226 1.215 4.23 4.23 0 00-.273 2.025c.162 1.448 1.012 2.744 2.025 2.966a1.35 1.35 0 001.135-.283c.263-.152.283-.324.263-.375z" fill="#A36957"/><path d="M295.168 222.226s10.129-.486 12.154.435c3.505 1.529 13.937 17.879 13.411 17.879h-4.832l-16.206-6.145-3.818.962-.709-13.131z" fill="#B78876"/><path d="M338.729 269.172s30.305 104.916 30.376 104.4c.071-.516-27.165 13.09-27.165 13.09l-18.374-75.87 15.163-41.62z" fill="#333945"/><path d="M341.334 387.301l28.714-14.002-1.246-3.837-28.927 14.022 1.459 3.817z" fill="url(#paint27_linear_7945_49580)"/><path d="M337.568 348.706c-.152 0-.466-.617-.719-1.457-.253-.841-.335-1.58-.183-1.62.152-.041.466.607.72 1.458.253.85.324 1.569.182 1.619z" fill="url(#paint28_linear_7945_49580)"/><path d="M339.442 354.853c-.152 0-.486-.608-.739-1.448s-.355-1.569-.213-1.62c.142-.051.476.607.74 1.448.263.84.354 1.549.212 1.62z" fill="url(#paint29_linear_7945_49580)"/><path d="M341.4 360.926c-.152.051-.486-.597-.759-1.438-.274-.84-.375-1.559-.233-1.609.141-.051.486.597.759 1.437.274.841.375 1.61.233 1.61z" fill="url(#paint30_linear_7945_49580)"/><path d="M343.439 367.001c-.152.051-.496-.587-.78-1.428-.284-.84-.405-1.559-.253-1.609.152-.051.496.587.78 1.427.283.841.395 1.61.253 1.61z" fill="url(#paint31_linear_7945_49580)"/><path d="M345.571 373.075c-.142 0-.507-.588-.8-1.418-.294-.83-.426-1.549-.274-1.599.152-.051.497.577.8 1.417.304.84.436 1.519.274 1.6z" fill="url(#paint32_linear_7945_49580)"/><path d="M347.762 379.059c-.152 0-.517-.577-.821-1.407-.304-.83-.446-1.549-.304-1.599.142-.051.517.577.821 1.407.304.83.476 1.549.304 1.599z" fill="url(#paint33_linear_7945_49580)"/><path d="M346.166 381.579a4.776 4.776 0 01-.608-1.093 63.407 63.407 0 01-1.398-3.119c-1.124-2.652-2.512-6.388-3.91-10.549a367.81 367.81 0 01-3.403-10.721c-.385-1.296-.709-2.39-1.013-3.27a4.922 4.922 0 01-.283-1.225c.198.368.361.754.486 1.154.284.759.668 1.852 1.134 3.219l3.556 10.661c1.387 4.161 2.714 7.907 3.747 10.59l1.236 3.169c.193.377.346.774.456 1.184z" fill="url(#paint34_linear_7945_49580)"/><path d="M197.341 261.883c.253-5.558-2.907 30.504 24.825 31.455 27.732.952 84.392.537 84.392.537l-6.634 91.451h33.272l6.948-97.293s3.545-28.185-15.75-31.779c-12.073-2.258-87.157-2.977-87.157-2.977l-39.896 8.606z" fill="#333945"/><path d="M299.16 385.517h35.035v-5.447l-35.035.051v5.396z" fill="url(#paint35_linear_7945_49580)"/><path d="M244.355 289.046c.118-.015.237-.015.355 0l1.013-.061 4.051-.182 15.041-.577 50.735-1.742h.324v.324a288.908 288.908 0 00-1.165 11.663c-.446 5.72-.871 11.299-1.286 16.685-.415 5.386-1.013 10.569-1.53 15.51-1.013 9.861-1.965 18.75-2.755 26.232-.79 7.481-1.448 13.475-1.904 17.676-.233 2.025-.415 3.686-.547 4.809-.061.527-.111.942-.152 1.246a2.674 2.674 0 01-.071.425 2.013 2.013 0 010-.425c0-.314.061-.729.102-1.256.101-1.134.253-2.754.445-4.819.405-4.201 1.013-10.245 1.732-17.697.719-7.451 1.641-16.371 2.634-26.252.486-4.94 1.013-10.124 1.489-15.5.476-5.376.84-10.964 1.276-16.674.324-4.05.709-7.948 1.175-11.694l.283.314-50.744 1.549-15.041.415-4.052.081h-1.013a1.291 1.291 0 01-.395-.05z" fill="url(#paint36_linear_7945_49580)"/><path d="M247.556 285.086c0 .152-.709.294-1.6.314-.892.02-1.601-.081-1.601-.233 0-.152.709-.304 1.591-.324.881-.02 1.61.091 1.61.243z" fill="url(#paint37_linear_7945_49580)"/><path d="M253.969 284.935c0 .152-.709.294-1.601.314-.891.02-1.6-.081-1.61-.233-.01-.152.719-.293 1.6-.324.881-.03 1.611.091 1.611.243z" fill="url(#paint38_linear_7945_49580)"/><path d="M260.383 284.783c0 .162-.709.294-1.601.324-.891.031-1.6-.091-1.61-.243-.01-.152.719-.293 1.6-.314.881-.02 1.611.081 1.611.233z" fill="url(#paint39_linear_7945_49580)"/><path d="M266.793 284.631c0 .162-.709.304-1.6.324-.892.02-1.601-.091-1.611-.243-.01-.152.719-.294 1.6-.314.882-.02 1.611.081 1.611.233z" fill="url(#paint40_linear_7945_49580)"/><path d="M273.203 284.49c0 .152-.709.293-1.6.314-.892.02-1.601-.092-1.611-.243-.01-.152.719-.294 1.601-.314.881-.021 1.61.081 1.61.243z" fill="url(#paint41_linear_7945_49580)"/><path d="M279.613 284.337c0 .152-.709.294-1.6.314-.891.02-1.6-.091-1.611-.243-.01-.152.72-.294 1.601-.314.881-.02 1.6.091 1.61.243z" fill="url(#paint42_linear_7945_49580)"/><path d="M286.027 284.185c0 .152-.709.293-1.6.314-.891.02-1.6-.091-1.61-.243-.011-.152.709-.294 1.6-.314.891-.02 1.56.091 1.61.243z" fill="url(#paint43_linear_7945_49580)"/><path d="M292.441 284.034c0 .152-.709.294-1.6.314-.891.02-1.6-.081-1.61-.243-.011-.162.709-.293 1.6-.314.891-.02 1.6.092 1.61.243z" fill="url(#paint44_linear_7945_49580)"/><path d="M298.848 283.884c0 .152-.709.294-1.601.314-.891.02-1.6-.081-1.61-.233-.01-.152.709-.304 1.6-.324.891-.02 1.6.091 1.611.243z" fill="url(#paint45_linear_7945_49580)"/><path d="M305.223 283.731c0 .152-.72.293-1.601.314-.881.02-1.6-.081-1.61-.233-.01-.152.709-.304 1.6-.324.891-.021 1.611.091 1.611.243z" fill="url(#paint46_linear_7945_49580)"/><path d="M311.672 283.577c0 .152-.719.294-1.601.314-.881.02-1.6-.081-1.61-.233-.01-.152.709-.293 1.6-.314.892-.02 1.601.081 1.611.233z" fill="url(#paint47_linear_7945_49580)"/><path d="M318.086 283.426c0 .162-.719.304-1.601.324-.881.02-1.61-.091-1.61-.243s.709-.294 1.6-.314c.892-.02 1.601.081 1.611.233z" fill="url(#paint48_linear_7945_49580)"/><path d="M318.077 289.236c-.162 0-.213-.739-.122-1.62.091-.881.274-1.579.426-1.569.151.01.212.739.121 1.62-.091.881-.273 1.589-.425 1.569z" fill="url(#paint49_linear_7945_49580)"/><path d="M317.446 295.616c-.152 0-.213-.739-.122-1.62.091-.881.284-1.579.436-1.569.152.01.202.739.121 1.62-.081.881-.283 1.589-.435 1.569z" fill="url(#paint50_linear_7945_49580)"/><path d="M316.821 301.996c-.152 0-.213-.739-.122-1.62.091-.881.284-1.579.436-1.569.152.01.202.749.121 1.63-.081.881-.283 1.579-.435 1.559z" fill="url(#paint51_linear_7945_49580)"/><path d="M316.187 308.372c-.152 0-.202-.739-.121-1.62.081-.881.283-1.579.435-1.569.152.01.203.749.122 1.63-.081.88-.264 1.579-.436 1.559z" fill="url(#paint52_linear_7945_49580)"/><path d="M315.558 314.76c-.152 0-.202-.749-.121-1.63.081-.881.283-1.58.435-1.559.152.02.213.739.122 1.62-.091.88-.284 1.579-.436 1.569z" fill="url(#paint53_linear_7945_49580)"/><path d="M314.934 321.139c-.152 0-.202-.749-.111-1.63.091-.881.273-1.58.425-1.559.152.02.213.739.122 1.62-.091.88-.274 1.579-.436 1.569z" fill="url(#paint54_linear_7945_49580)"/><path d="M314.335 327.517c-.163 0-.213-.739-.122-1.62.091-.881.273-1.59.436-1.569.162.02.202.739.111 1.619-.091.881-.294 1.57-.425 1.57z" fill="url(#paint55_linear_7945_49580)"/><path d="M313.688 333.896c-.152 0-.213-.739-.122-1.62.091-.881.284-1.59.436-1.57.152.021.202.74.121 1.62-.081.881-.283 1.58-.435 1.57z" fill="url(#paint56_linear_7945_49580)"/><path d="M313.062 340.273c-.152 0-.202-.739-.121-1.62.081-.88.283-1.579.435-1.569.152.01.203.739.122 1.62-.081.881-.284 1.589-.436 1.569z" fill="url(#paint57_linear_7945_49580)"/><path d="M312.433 346.652c-.152 0-.202-.739-.121-1.62.081-.881.283-1.579.435-1.569.152.01.203.739.122 1.62-.081.881-.284 1.589-.436 1.569z" fill="url(#paint58_linear_7945_49580)"/><path d="M311.808 353.029c-.152 0-.202-.739-.121-1.62.081-.881.283-1.579.435-1.569.152.01.213.739.122 1.62-.091.881-.284 1.589-.436 1.569z" fill="url(#paint59_linear_7945_49580)"/><path d="M311.186 359.408c-.162 0-.213-.739-.121-1.62.091-.881.273-1.579.425-1.569.152.01.213.749.122 1.63-.092.881-.314 1.579-.426 1.559z" fill="url(#paint60_linear_7945_49580)"/><path d="M310.559 365.786c-.152 0-.213-.739-.122-1.62.092-.881.274-1.579.436-1.569.162.01.202.749.111 1.63-.091.881-.273 1.579-.425 1.559z" fill="url(#paint61_linear_7945_49580)"/><path d="M309.926 372.174c-.152 0-.213-.749-.121-1.63.091-.881.283-1.579.435-1.559.152.02.203.739.122 1.62-.081.88-.284 1.579-.436 1.569z" fill="url(#paint62_linear_7945_49580)"/><path d="M309.265 378.552c-.152 0-.202-.739-.121-1.62.081-.881.283-1.59.435-1.569.152.02.203.739.122 1.62-.081.88-.253 1.579-.436 1.569z" fill="url(#paint63_linear_7945_49580)"/><path d="M308.959 381.933c-.152 0-.273-.071-.263-.121.01-.051.132-.092.284-.071.151.02.273.071.273.121 0 .051-.142.081-.294.071z" fill="url(#paint64_linear_7945_49580)"/><path d="M311.088 289.611a9.318 9.318 0 01-2.178 2.38 9.753 9.753 0 01-2.562 1.964 18.84 18.84 0 014.74-4.344z" fill="#263238"/><path d="M313.392 290.849a15.215 15.215 0 01-3.576 1.913 14.86 14.86 0 01-3.808 1.397 15.209 15.209 0 013.575-1.913 15.007 15.007 0 013.809-1.397z" fill="#263238"/><path d="M245.734 218.278s-3.393-36.336-9.419-52.241l1.195-.901-1.793-6.267-22.546-2.733.344 4.89a16.075 16.075 0 00-7.708 7.33c-8.103 17.15-4.051 37.175-8.396 74.28 0 0-5.065 17.404.162 22.85l49.195-11.46-2.32-11.218c21.473-.405 56.781-4.353 56.781-4.353l-1.013-20.309s-52.76.314-54.482.132z" fill="url(#paint65_linear_7945_49580)"/><path d="M235.675 158.838a16.952 16.952 0 011.631 4.05c.22.552.37 1.131.446 1.721.015.305-.087.606-.284.84a1.452 1.452 0 01-.608.425c-.85.263-1.337.081-1.337 0s.527-.091 1.165-.395a.94.94 0 00.557-.891 10.622 10.622 0 00-.466-1.569 17.384 17.384 0 01-1.104-4.181z" fill="#E0E0E0"/><path d="M241.054 185.891c0 .162-9.116.283-20.258.283-11.141 0-20.257-.121-20.257-.283 0-.162 9.116-.274 20.257-.274 11.142 0 20.258.162 20.258.274zm-2.123-10.237c0 .152-8.042.284-17.948.284s-17.948-.132-17.948-.284c0-.152 8.032-.273 17.948-.273s17.948.121 17.948.273zm-2.951-8.999c0 .151-6.644.273-14.849.273-8.204 0-14.838-.122-14.838-.273 0-.152 6.644-.284 14.838-.284 8.195 0 14.849.172 14.849.284zm-.294-6.357c-3.784.286-7.58.381-11.374.283-3.794.098-7.59.003-11.374-.283 0-.152 5.064-.274 11.374-.274 6.31 0 11.374.122 11.374.274zm6.799 35.443c0 .151-9.592.273-21.422.273-11.831 0-21.422-.122-21.422-.273 0-.152 9.591-.284 21.422-.284 11.83 0 21.422.122 21.422.284zm1.741 9.891c0 .152-9.976.273-22.283.273-12.306 0-22.283-.121-22.283-.273 0-.152 9.977-.283 22.283-.283 12.307 0 22.283.131 22.283.283zm1.095 9.113c0 .162-10.23.284-22.84.284s-22.84-.122-22.84-.284c0-.162 10.23-.273 22.84-.273s22.84.121 22.84.273zm49.854 9.973c0 .152-21.574.273-48.182.273s-48.192-.121-48.192-.273c0-.152 21.574-.283 48.192-.283s48.182.131 48.182.283zm.374 7.975c0 .162-21.736.284-48.547.284-26.81 0-48.557-.122-48.557-.284 0-.162 21.736-.273 48.557-.273s48.547.121 48.547.273zm-51.872 9.842c0 .162-10.382.284-23.195.284s-23.205-.122-23.205-.284c0-.162 10.382-.273 23.205-.273 12.823 0 23.195.121 23.195.273zm2.357 9.134c0 .152-11.293.283-25.22.283s-25.22-.131-25.22-.283c0-.152 11.293-.273 25.22-.273s25.22.121 25.22.273z" fill="#263238"/><path d="M203.088 254.088c-.162 0-.283-17.707-.283-39.545s.121-39.545.283-39.545c.162 0 .274 17.707.274 39.545s-.122 39.545-.274 39.545zm12.17-.973c-.152 0-.274-21.645-.274-48.342 0-26.698.092-48.353.274-48.353.182 0 .283 21.635.283 48.343 0 26.707-.121 48.352-.283 48.352zm13.441-1.45c-.152 0-.273-20.865-.273-46.571 0-25.705.121-46.571.273-46.571.152 0 .284 20.866.284 46.571 0 25.706-.122 46.571-.284 46.571zm11.293 2.391c-.152 0-.273-16.381-.273-36.579 0-20.197.121-36.588.273-36.588.152 0 .284 16.381.284 36.588 0 20.208-.132 36.579-.284 36.579zm11.958-35.829c.131 1.183.169 2.374.111 3.563 0 2.197 0 5.224-.121 8.565-.122 3.341-.183 6.378-.284 8.565a24.728 24.728 0 01-.284 3.554 22.206 22.206 0 01-.111-3.554c0-2.197 0-5.224.122-8.575.121-3.351.182-6.378.283-8.575a21.56 21.56 0 01.284-3.543zm12.754.425c.126 1.109.163 2.226.112 3.341 0 2.025 0 4.89-.101 8.019-.102 3.128-.183 5.973-.274 8.028a18.774 18.774 0 01-.284 3.321 20.815 20.815 0 01-.111-3.321c0-2.025 0-4.9.111-8.039.112-3.138.173-5.973.274-8.028a18.485 18.485 0 01.273-3.321zm12.689-.221a17.78 17.78 0 01.122 3.229c0 2.025 0 4.748-.102 7.786-.101 3.037-.172 5.791-.273 7.775a17.317 17.317 0 01-.274 3.23 20.142 20.142 0 01-.121-3.22c0-2.025 0-4.748.111-7.785.112-3.038.173-5.801.264-7.786.002-1.082.094-2.162.273-3.229zm12.724-.355a16.53 16.53 0 01.121 3.129c0 1.933 0 4.606-.101 7.552-.101 2.946-.162 5.619-.263 7.543a18.22 18.22 0 01-.264 3.128 16.954 16.954 0 01-.131-3.128c0-1.934 0-4.607.101-7.553.101-2.946.172-5.629.263-7.553a17.163 17.163 0 01.274-3.118zm-48.801 4.728a10.528 10.528 0 014.72-5.275 27.478 27.478 0 01-2.4 2.602 28.355 28.355 0 01-2.32 2.673z" fill="#263238"/><path d="M244.218 223.047a5.555 5.555 0 012.026-5.518c.122.112-.729 1.144-1.276 2.663s-.527 2.855-.75 2.855zm51.888 15.297a86.774 86.774 0 01-1.155-9.709 87.403 87.403 0 01-.607-9.77c.58 3.214.969 6.459 1.165 9.719.385 3.24.584 6.498.597 9.76zm.638-15.653c0 .071-.284.273-.324.78a1 1 0 00.253.739.76.76 0 00.851.111.792.792 0 00.506-.698 1.025 1.025 0 00-.375-.689c-.395-.314-.77-.212-.79-.293-.02-.081.375-.365 1.013 0a1.28 1.28 0 01.669 1.012 1.261 1.261 0 01-.79 1.235 1.283 1.283 0 01-1.459-.263 1.302 1.302 0 01-.253-1.164c.182-.739.709-.841.699-.77z" fill="#263238"/><path d="M245.673 218.176h.254l.739.061c.658.071 1.631.132 2.907.172 2.552.101 6.3.152 11.07.111 9.532-.06 23.155-.415 39.502-1.012h.233v.233c.324 6.307.669 13.161 1.013 20.43v.233h-.213c-2.593.486-5.216.689-7.9.962l-8.184.709c-5.561.455-11.283.881-17.107 1.296l-21.412 1.437c-6.209-.395-12.236-2.622-16.449-6.712a20.114 20.114 0 01-4.771-7.016 49.934 49.934 0 01-2.4-7.715c-2.502-10.124-4.052-19.347-5.318-27.001a739.364 739.364 0 01-1.56-10.296 62.905 62.905 0 01-.901-7.765 9.535 9.535 0 011.013-4.779 4.82 4.82 0 011.013-1.346 9.47 9.47 0 00-.942 1.397 9.667 9.667 0 00-.892 4.728 65.206 65.206 0 001.013 7.725c.476 3.037 1.013 6.459 1.641 10.286 1.276 7.633 2.897 16.796 5.419 26.93a50.869 50.869 0 002.4 7.644 19.576 19.576 0 004.68 6.833c4.051 3.979 10.017 6.156 16.115 6.551l21.401-1.458 17.098-1.286 8.184-.699c2.663-.273 5.337-.475 7.819-.941l-.203.273c-.344-7.239-.668-14.123-1.013-20.44l.254.232c-16.338.598-29.961.881-39.502.861-4.771 0-8.518-.091-11.071-.243-1.276-.071-2.258-.152-2.917-.253l-.739-.091a.99.99 0 01-.274-.051z" fill="#263238"/><path d="M245.679 218.176a9.194 9.194 0 01-.527-1.589 188.1 188.1 0 01-1.185-4.394c-1.013-3.716-2.178-8.889-3.474-14.599-1.297-5.71-2.482-10.884-3.373-14.619l-1.013-4.425a8.544 8.544 0 01-.314-1.64c.218.515.394 1.047.527 1.59.314 1.012.719 2.521 1.215 4.383 1.013 3.706 2.249 8.869 3.545 14.589 1.297 5.72 2.36 10.793 3.272 14.63.405 1.802.749 3.29 1.013 4.434.145.538.25 1.086.314 1.64zm-9.926-58.912a4.53 4.53 0 01-.112 1.113c-.101.719-.263 1.742-.486 3.038a16.829 16.829 0 01-.425 2.095 1.511 1.511 0 01-.912 1.013 2.667 2.667 0 01-1.357 0 92.205 92.205 0 01-5.399-1.306c-3.798-1.013-7.181-2.137-9.642-2.896l-2.907-.911a4.383 4.383 0 01-1.013-.395c.375.011.746.072 1.104.182.709.162 1.722.405 2.968.75 2.491.658 5.895 1.69 9.683 2.733 1.894.516 3.697 1.013 5.358 1.347.356.116.736.14 1.104.07a1.01 1.01 0 00.628-.678c.223-.648.314-1.397.466-2.025.263-1.255.496-2.267.658-2.976a4.1 4.1 0 01.284-1.154z" fill="#263238"/><path d="M218.02 299.423l7.069 96.047 2.968-.688-1.104-93.334-8.933-2.025zm-30.009 3.34l-21.503 92.595h3.889l30.781-92.595h-13.167zm56.884 0l29.332 92.595h3.14l-23.306-92.595h-9.166z" fill="#333945"/><path d="M248.809 308.98l-65.735 42.937v2.349l67.568-45.286h-1.833z" fill="#333945"/><path d="M193.031 308.979l71.235 47.907v-3.665l-69.138-46.338-2.097 2.096z" fill="#333945"/><path d="M178.2 304.353l84.696-1.528a5.433 5.433 0 003.99-1.865 5.422 5.422 0 001.287-4.21 5.393 5.393 0 00-5.459-4.778l-85.902 1.376 1.388 11.005z" fill="url(#paint66_linear_7945_49580)"/><path opacity=".2" d="M178.192 304.352l84.696-1.528a5.433 5.433 0 003.99-1.865 5.407 5.407 0 001.287-4.21 5.396 5.396 0 00-5.459-4.778l-85.901 1.376 1.387 11.005z" fill="#000"/><path d="M169.569 238.911l8.549 65.442 66.778-1.59-.172-39.747a11.13 11.13 0 00-7.55-10.71 11.153 11.153 0 00-4.604-.548l-50.917 4.596-6.705-69.36-6.766-.577a4.759 4.759 0 00-5.064 5.386l6.451 47.108z" fill="url(#paint67_linear_7945_49580)"/><defs><linearGradient id="paint0_linear_7945_49580" x1="575" y1="46.322" x2="247.147" y2="565.498" gradientUnits="userSpaceOnUse"><stop stop-color="#A0CA3F"/><stop offset="1" stop-color="#7B9C30"/></linearGradient><linearGradient id="paint1_linear_7945_49580" x1="310.983" y1="46.644" x2="287.057" y2="8.102" gradientUnits="userSpaceOnUse"><stop offset="0" stop-color="#8A1050"/><stop offset="1" stop-color="#B53378"/></linearGradient><linearGradient id="paint2_linear_7945_49580" x1="301.463" y1="46.644" x2="290.283" y2="37.702" gradientUnits="userSpaceOnUse"><stop offset="0" stop-color="#8A1050"/><stop offset="1" stop-color="#B53378"/></linearGradient><linearGradient id="paint3_linear_7945_49580" x1="301.462" y1="46.644" x2="275.435" y2="13.999" gradientUnits="userSpaceOnUse"><stop offset="0" stop-color="#8A1050"/><stop offset="1" stop-color="#B53378"/></linearGradient><linearGradient id="paint4_linear_7945_49580" x1="299.724" y1="183.82" x2="296.808" y2="171.859" gradientUnits="userSpaceOnUse"><stop offset="0" stop-color="#8A1050"/><stop offset="1" stop-color="#B53378"/></linearGradient><linearGradient id="paint5_linear_7945_49580" x1="301.965" y1="179.654" x2="296.487" y2="170.1" gradientUnits="userSpaceOnUse"><stop offset="0" stop-color="#8A1050"/><stop offset="1" stop-color="#B53378"/></linearGradient><linearGradient id="paint6_linear_7945_49580" x1="294.073" y1="180.202" x2="291.962" y2="175.89" gradientUnits="userSpaceOnUse"><stop offset="0" stop-color="#8A1050"/><stop offset="1" stop-color="#B53378"/></linearGradient><linearGradient id="paint7_linear_7945_49580" x1="299.894" y1="183.897" x2="295.923" y2="182.129" gradientUnits="userSpaceOnUse"><stop offset="0" stop-color="#8A1050"/><stop offset="1" stop-color="#B53378"/></linearGradient><linearGradient id="paint8_linear_7945_49580" x1="341.312" y1="221.629" x2="333.807" y2="190.864" gradientUnits="userSpaceOnUse"><stop offset="0" stop-color="#8A1050"/><stop offset="1" stop-color="#B53378"/></linearGradient><linearGradient id="paint9_linear_7945_49580" x1="347.122" y1="210.381" x2="333.725" y2="186.194" gradientUnits="userSpaceOnUse"><stop offset="0" stop-color="#8A1050"/><stop offset="1" stop-color="#B53378"/></linearGradient><linearGradient id="paint10_linear_7945_49580" x1="326.865" y1="212.294" x2="321.463" y2="201.222" gradientUnits="userSpaceOnUse"><stop offset="0" stop-color="#8A1050"/><stop offset="1" stop-color="#B53378"/></linearGradient><linearGradient id="paint11_linear_7945_49580" x1="341.814" y1="221.811" x2="331.748" y2="217.432" gradientUnits="userSpaceOnUse"><stop offset="0" stop-color="#8A1050"/><stop offset="1" stop-color="#B53378"/></linearGradient><linearGradient id="paint12_linear_7945_49580" x1="325.805" y1="189.32" x2="321.875" y2="173.201" gradientUnits="userSpaceOnUse"><stop offset="0" stop-color="#8A1050"/><stop offset="1" stop-color="#B53378"/></linearGradient><linearGradient id="paint13_linear_7945_49580" x1="328.82" y1="183.389" x2="321.841" y2="170.765" gradientUnits="userSpaceOnUse"><stop offset="0" stop-color="#8A1050"/><stop offset="1" stop-color="#B53378"/></linearGradient><linearGradient id="paint14_linear_7945_49580" x1="328.82" y1="183.389" x2="321.841" y2="170.765" gradientUnits="userSpaceOnUse"><stop offset="0" stop-color="#8A1050"/><stop offset="1" stop-color="#B53378"/></linearGradient><linearGradient id="paint15_linear_7945_49580" x1="318.219" y1="184.432" x2="315.386" y2="178.627" gradientUnits="userSpaceOnUse"><stop offset="0" stop-color="#8A1050"/><stop offset="1" stop-color="#B53378"/></linearGradient><linearGradient id="paint16_linear_7945_49580" x1="318.215" y1="184.433" x2="315.382" y2="178.628" gradientUnits="userSpaceOnUse"><stop offset="0" stop-color="#8A1050"/><stop offset="1" stop-color="#B53378"/></linearGradient><linearGradient id="paint17_linear_7945_49580" x1="326.042" y1="189.413" x2="320.764" y2="187.114" gradientUnits="userSpaceOnUse"><stop offset="0" stop-color="#8A1050"/><stop offset="1" stop-color="#B53378"/></linearGradient><linearGradient id="paint18_linear_7945_49580" x1="326.046" y1="189.413" x2="320.768" y2="187.114" gradientUnits="userSpaceOnUse"><stop offset="0" stop-color="#8A1050"/><stop offset="1" stop-color="#B53378"/></linearGradient><linearGradient id="paint19_linear_7945_49580" x1="200.132" y1="58.842" x2="167.351" y2="37.497" gradientUnits="userSpaceOnUse"><stop stop-color="#BFDE76"/><stop offset="1" stop-color="#E3FBAC"/></linearGradient><linearGradient id="paint20_linear_7945_49580" x1="488.358" y1="376.115" x2="474.935" y2="354.649" gradientUnits="userSpaceOnUse"><stop offset="0" stop-color="#8A1050"/><stop offset="1" stop-color="#B53378"/></linearGradient><linearGradient id="paint21_linear_7945_49580" x1="475.575" y1="348.738" x2="447.641" y2="335.193" gradientUnits="userSpaceOnUse"><stop offset="0" stop-color="#8A1050"/><stop offset="1" stop-color="#B53378"/></linearGradient><linearGradient id="paint22_linear_7945_49580" x1="456.628" y1="352.979" x2="427.25" y2="324.55" gradientUnits="userSpaceOnUse"><stop offset="0" stop-color="#8A1050"/><stop offset="1" stop-color="#B53378"/></linearGradient><linearGradient id="paint23_linear_7945_49580" x1="306.578" y1="195.834" x2="352.228" y2="253.464" gradientUnits="userSpaceOnUse"><stop stop-color="#A0CA3F"/><stop offset="1" stop-color="#7B9C30"/></linearGradient><linearGradient id="paint24_linear_7945_49580" x1="340.504" y1="395.933" x2="326.828" y2="368.118" gradientUnits="userSpaceOnUse"><stop offset="0" stop-color="#8A1050"/><stop offset="1" stop-color="#B53378"/></linearGradient><linearGradient id="paint25_linear_7945_49580" x1="382.373" y1="391.937" x2="361.692" y2="357.789" gradientUnits="userSpaceOnUse"><stop offset="0" stop-color="#8A1050"/><stop offset="1" stop-color="#B53378"/></linearGradient><linearGradient id="paint26_linear_7945_49580" x1="219.56" y1="304.354" x2="127.589" y2="260.251" gradientUnits="userSpaceOnUse"><stop offset="0" stop-color="#8A1050"/><stop offset="1" stop-color="#B53378"/></linearGradient><linearGradient id="paint27_linear_7945_49580" x1="339.875" y1="369.462" x2="355.505" y2="395.899" gradientUnits="userSpaceOnUse"><stop stop-color="#A0CA3F"/><stop offset="1" stop-color="#7B9C30"/></linearGradient><linearGradient id="paint28_linear_7945_49580" x1="336.59" y1="345.627" x2="338.471" y2="346.269" gradientUnits="userSpaceOnUse"><stop stop-color="#A0CA3F"/><stop offset="1" stop-color="#7B9C30"/></linearGradient><linearGradient id="paint29_linear_7945_49580" x1="338.426" y1="351.782" x2="340.352" y2="352.462" gradientUnits="userSpaceOnUse"><stop stop-color="#A0CA3F"/><stop offset="1" stop-color="#7B9C30"/></linearGradient><linearGradient id="paint30_linear_7945_49580" x1="340.344" y1="357.876" x2="342.319" y2="358.601" gradientUnits="userSpaceOnUse"><stop stop-color="#A0CA3F"/><stop offset="1" stop-color="#7B9C30"/></linearGradient><linearGradient id="paint31_linear_7945_49580" x1="342.34" y1="363.961" x2="344.366" y2="364.734" gradientUnits="userSpaceOnUse"><stop stop-color="#A0CA3F"/><stop offset="1" stop-color="#7B9C30"/></linearGradient><linearGradient id="paint32_linear_7945_49580" x1="344.434" y1="370.055" x2="346.515" y2="370.887" gradientUnits="userSpaceOnUse"><stop stop-color="#A0CA3F"/><stop offset="1" stop-color="#7B9C30"/></linearGradient><linearGradient id="paint33_linear_7945_49580" x1="346.582" y1="376.05" x2="348.712" y2="376.933" gradientUnits="userSpaceOnUse"><stop stop-color="#A0CA3F"/><stop offset="1" stop-color="#7B9C30"/></linearGradient><linearGradient id="paint34_linear_7945_49580" x1="335.551" y1="351.602" x2="354.415" y2="358.281" gradientUnits="userSpaceOnUse"><stop stop-color="#A0CA3F"/><stop offset="1" stop-color="#7B9C30"/></linearGradient><linearGradient id="paint35_linear_7945_49580" x1="299.16" y1="380.07" x2="300.814" y2="390.707" gradientUnits="userSpaceOnUse"><stop stop-color="#A0CA3F"/><stop offset="1" stop-color="#7B9C30"/></linearGradient><linearGradient id="paint36_linear_7945_49580" x1="244.355" y1="286.484" x2="335.351" y2="355.3" gradientUnits="userSpaceOnUse"><stop stop-color="#A0CA3F"/><stop offset="1" stop-color="#7B9C30"/></linearGradient><linearGradient id="paint37_linear_7945_49580" x1="244.355" y1="284.841" x2="244.547" y2="285.931" gradientUnits="userSpaceOnUse"><stop stop-color="#A0CA3F"/><stop offset="1" stop-color="#7B9C30"/></linearGradient><linearGradient id="paint38_linear_7945_49580" x1="250.758" y1="284.688" x2="250.95" y2="285.782" gradientUnits="userSpaceOnUse"><stop stop-color="#A0CA3F"/><stop offset="1" stop-color="#7B9C30"/></linearGradient><linearGradient id="paint39_linear_7945_49580" x1="257.172" y1="284.548" x2="257.364" y2="285.642" gradientUnits="userSpaceOnUse"><stop stop-color="#A0CA3F"/><stop offset="1" stop-color="#7B9C30"/></linearGradient><linearGradient id="paint40_linear_7945_49580" x1="263.582" y1="284.396" x2="263.773" y2="285.486" gradientUnits="userSpaceOnUse"><stop stop-color="#A0CA3F"/><stop offset="1" stop-color="#7B9C30"/></linearGradient><linearGradient id="paint41_linear_7945_49580" x1="269.992" y1="284.244" x2="270.183" y2="285.334" gradientUnits="userSpaceOnUse"><stop stop-color="#A0CA3F"/><stop offset="1" stop-color="#7B9C30"/></linearGradient><linearGradient id="paint42_linear_7945_49580" x1="276.402" y1="284.092" x2="276.593" y2="285.182" gradientUnits="userSpaceOnUse"><stop stop-color="#A0CA3F"/><stop offset="1" stop-color="#7B9C30"/></linearGradient><linearGradient id="paint43_linear_7945_49580" x1="282.816" y1="283.939" x2="283.007" y2="285.029" gradientUnits="userSpaceOnUse"><stop stop-color="#A0CA3F"/><stop offset="1" stop-color="#7B9C30"/></linearGradient><linearGradient id="paint44_linear_7945_49580" x1="289.23" y1="283.789" x2="289.421" y2="284.879" gradientUnits="userSpaceOnUse"><stop stop-color="#A0CA3F"/><stop offset="1" stop-color="#7B9C30"/></linearGradient><linearGradient id="paint45_linear_7945_49580" x1="295.637" y1="283.639" x2="295.827" y2="284.729" gradientUnits="userSpaceOnUse"><stop stop-color="#A0CA3F"/><stop offset="1" stop-color="#7B9C30"/></linearGradient><linearGradient id="paint46_linear_7945_49580" x1="302.012" y1="283.485" x2="302.202" y2="284.576" gradientUnits="userSpaceOnUse"><stop stop-color="#A0CA3F"/><stop offset="1" stop-color="#7B9C30"/></linearGradient><linearGradient id="paint47_linear_7945_49580" x1="308.461" y1="283.342" x2="308.645" y2="284.414" gradientUnits="userSpaceOnUse"><stop stop-color="#A0CA3F"/><stop offset="1" stop-color="#7B9C30"/></linearGradient><linearGradient id="paint48_linear_7945_49580" x1="314.875" y1="283.19" x2="315.066" y2="284.281" gradientUnits="userSpaceOnUse"><stop stop-color="#A0CA3F"/><stop offset="1" stop-color="#7B9C30"/></linearGradient><linearGradient id="paint49_linear_7945_49580" x1="317.91" y1="286.047" x2="319.131" y2="286.29" gradientUnits="userSpaceOnUse"><stop stop-color="#A0CA3F"/><stop offset="1" stop-color="#7B9C30"/></linearGradient><linearGradient id="paint50_linear_7945_49580" x1="317.281" y1="292.427" x2="318.509" y2="292.672" gradientUnits="userSpaceOnUse"><stop stop-color="#A0CA3F"/><stop offset="1" stop-color="#7B9C30"/></linearGradient><linearGradient id="paint51_linear_7945_49580" x1="316.656" y1="298.807" x2="317.884" y2="299.052" gradientUnits="userSpaceOnUse"><stop stop-color="#A0CA3F"/><stop offset="1" stop-color="#7B9C30"/></linearGradient><linearGradient id="paint52_linear_7945_49580" x1="316.027" y1="305.183" x2="317.247" y2="305.425" gradientUnits="userSpaceOnUse"><stop stop-color="#A0CA3F"/><stop offset="1" stop-color="#7B9C30"/></linearGradient><linearGradient id="paint53_linear_7945_49580" x1="315.398" y1="311.57" x2="316.626" y2="311.816" gradientUnits="userSpaceOnUse"><stop stop-color="#A0CA3F"/><stop offset="1" stop-color="#7B9C30"/></linearGradient><linearGradient id="paint54_linear_7945_49580" x1="314.777" y1="317.949" x2="315.999" y2="318.193" gradientUnits="userSpaceOnUse"><stop stop-color="#A0CA3F"/><stop offset="1" stop-color="#7B9C30"/></linearGradient><linearGradient id="paint55_linear_7945_49580" x1="314.168" y1="324.327" x2="315.398" y2="324.574" gradientUnits="userSpaceOnUse"><stop stop-color="#A0CA3F"/><stop offset="1" stop-color="#7B9C30"/></linearGradient><linearGradient id="paint56_linear_7945_49580" x1="313.523" y1="330.706" x2="314.751" y2="330.952" gradientUnits="userSpaceOnUse"><stop stop-color="#A0CA3F"/><stop offset="1" stop-color="#7B9C30"/></linearGradient><linearGradient id="paint57_linear_7945_49580" x1="312.902" y1="337.084" x2="314.122" y2="337.326" gradientUnits="userSpaceOnUse"><stop stop-color="#A0CA3F"/><stop offset="1" stop-color="#7B9C30"/></linearGradient><linearGradient id="paint58_linear_7945_49580" x1="312.273" y1="343.463" x2="313.493" y2="343.705" gradientUnits="userSpaceOnUse"><stop stop-color="#A0CA3F"/><stop offset="1" stop-color="#7B9C30"/></linearGradient><linearGradient id="paint59_linear_7945_49580" x1="311.648" y1="349.84" x2="312.876" y2="350.085" gradientUnits="userSpaceOnUse"><stop stop-color="#A0CA3F"/><stop offset="1" stop-color="#7B9C30"/></linearGradient><linearGradient id="paint60_linear_7945_49580" x1="311.02" y1="356.219" x2="312.241" y2="356.462" gradientUnits="userSpaceOnUse"><stop stop-color="#A0CA3F"/><stop offset="1" stop-color="#7B9C30"/></linearGradient><linearGradient id="paint61_linear_7945_49580" x1="310.395" y1="362.597" x2="311.621" y2="362.842" gradientUnits="userSpaceOnUse"><stop stop-color="#A0CA3F"/><stop offset="1" stop-color="#7B9C30"/></linearGradient><linearGradient id="paint62_linear_7945_49580" x1="309.762" y1="368.984" x2="310.989" y2="369.23" gradientUnits="userSpaceOnUse"><stop stop-color="#A0CA3F"/><stop offset="1" stop-color="#7B9C30"/></linearGradient><linearGradient id="paint63_linear_7945_49580" x1="309.105" y1="375.362" x2="310.325" y2="375.605" gradientUnits="userSpaceOnUse"><stop stop-color="#A0CA3F"/><stop offset="1" stop-color="#7B9C30"/></linearGradient><linearGradient id="paint64_linear_7945_49580" x1="308.695" y1="381.735" x2="308.822" y2="382.089" gradientUnits="userSpaceOnUse"><stop stop-color="#A0CA3F"/><stop offset="1" stop-color="#7B9C30"/></linearGradient><linearGradient id="paint65_linear_7945_49580" x1="195.207" y1="156.136" x2="304.506" y2="262.107" gradientUnits="userSpaceOnUse"><stop stop-color="#A0CA3F"/><stop offset="1" stop-color="#7B9C30"/></linearGradient><linearGradient id="paint66_linear_7945_49580" x1="268.213" y1="304.353" x2="264.919" y2="280.034" gradientUnits="userSpaceOnUse"><stop offset="0" stop-color="#8A1050"/><stop offset="1" stop-color="#B53378"/></linearGradient><linearGradient id="paint67_linear_7945_49580" x1="244.896" y1="304.353" x2="134.418" y2="227.713" gradientUnits="userSpaceOnUse"><stop offset="0" stop-color="#8A1050"/><stop offset="1" stop-color="#B53378"/></linearGradient></defs></svg>