<svg width="595" height="80" fill="none" xmlns="http://www.w3.org/2000/svg"><path fill="#F2F2F2" d="M0 0h595v80H0z"/><path fill-rule="evenodd" clip-rule="evenodd" d="M586.355 0c3.404 2.649 6.337 6.01 8.645 9.902V80H399.1a42.413 42.413 0 011.555-14.055c1.975-6.895 5.661-12.985 10.61-17.526 4.948-4.54 10.945-7.337 17.258-8.047 6.313-.71 12.67.697 18.294 4.049a40.007 40.007 0 011.907-3.974c2.999-5.437 7.17-9.901 12.113-12.964 4.942-3.062 10.489-4.62 16.109-4.524-.467-7.982 1.013-15.925 4.236-22.959h105.173z" fill="#E3E3E3"/><path d="M322.054 38.44c.287-1.278.432-2.593.432-3.914 0-8.751-6.27-15.847-14.004-15.847a12.52 12.52 0 00-4.386.798c-1.389-4.017-3.777-7.468-6.861-9.917-3.084-2.45-6.727-3.787-10.468-3.844-3.741-.057-7.413 1.17-10.552 3.524-3.139 2.354-5.605 5.731-7.085 9.705-1.794-1.123-3.803-1.71-5.843-1.706-6.68 0-12.095 6.127-12.095 13.686a15.25 15.25 0 00.793 4.842c-.197.257-.384.523-.564.798a6.839 6.839 0 00-2.775-.596 6.589 6.589 0 00-2.913.601 7.467 7.467 0 00-2.483 1.86 8.83 8.83 0 00-1.665 2.829 9.835 9.835 0 00-.585 3.354c0 1.151.199 2.292.585 3.353a8.83 8.83 0 001.665 2.829 7.467 7.467 0 002.483 1.86 6.59 6.59 0 002.913.601 6.91 6.91 0 003.542-.988c1.435 1.751 3.269 2.997 5.291 3.594a9.63 9.63 0 006.134-.224c.512 1.566 1.426 2.912 2.619 3.86 1.193.948 2.609 1.45 4.056 1.442a6.34 6.34 0 002.076-.35c2.909 2.575 6.397 4.13 10.048 4.478 3.651.348 7.312-.524 10.546-2.513.845.948 1.878 1.642 3.008 2.02a6.245 6.245 0 003.477.148c1.152-.28 2.226-.885 3.128-1.759.902-.874 1.605-1.992 2.045-3.254a12.767 12.767 0 008.831-.949c1.805-.891 3.433-2.199 4.786-3.843a6.704 6.704 0 002.235.383c1.843.05 3.636-.702 5.023-2.107 1.386-1.405 2.267-3.36 2.466-5.48.199-2.12-.297-4.248-1.391-5.965-1.093-1.717-2.704-2.896-4.514-3.305l.002-.004z" fill="#EDEDED"/></svg>