<svg width="595" height="70" fill="none" xmlns="http://www.w3.org/2000/svg"><path fill="#1A1C32" d="M0 0h595v70H0z"/><path fill-rule="evenodd" clip-rule="evenodd" d="M586.355 0A32.62 32.62 0 01595 8.664V70H399.1a32.72 32.72 0 0112.165-27.633 32.674 32.674 0 0117.258-7.041c6.313-.621 12.67.61 18.294 3.542a32.796 32.796 0 0114.02-14.82 32.762 32.762 0 0116.109-3.959A37.863 37.863 0 01481.182 0h105.173z" fill="#24263E"/><path d="M322.054 33.635a13.78 13.78 0 00.432-3.424c0-7.658-6.27-13.867-14.004-13.867a14.12 14.12 0 00-4.386.698 19.116 19.116 0 00-6.861-8.677 18.78 18.78 0 00-10.468-3.363 18.771 18.771 0 00-10.552 3.083 19.099 19.099 0 00-7.085 8.492 12.128 12.128 0 00-5.843-1.493c-6.68 0-12.095 5.361-12.095 11.976.003 1.45.272 2.886.793 4.236-.197.225-.384.458-.564.699a7.675 7.675 0 00-2.775-.522 7.404 7.404 0 00-2.913.526 7.473 7.473 0 00-2.483 1.628 7.584 7.584 0 00-1.665 2.475 7.649 7.649 0 000 5.869c.387.929.953 1.77 1.665 2.475a7.472 7.472 0 002.483 1.627 7.4 7.4 0 002.913.526 7.67 7.67 0 003.542-.864 11.024 11.024 0 005.291 3.144c2.022.522 4.149.454 6.134-.196a7.167 7.167 0 002.619 3.378 7.04 7.04 0 004.056 1.262c.703 0 1.403-.103 2.076-.307a18.923 18.923 0 0020.594 1.72 7.169 7.169 0 003.008 1.767 7.099 7.099 0 003.477.13 7.141 7.141 0 003.128-1.54 7.252 7.252 0 002.045-2.846c1.026.226 2.072.341 3.121.343a14.284 14.284 0 005.71-1.174 14.426 14.426 0 004.786-3.363 7.575 7.575 0 002.235.335 7.309 7.309 0 005.023-1.843 7.508 7.508 0 001.075-10.014 7.347 7.347 0 00-4.514-2.892l.002-.004z" fill="#24263E"/></svg>