<svg width="555" height="16" fill="none" xmlns="http://www.w3.org/2000/svg"><rect y="7" width="369" height="2" rx="1" fill="#F2F2F2"/><rect x="392" y="7" width="163" height="2" rx="1" fill="#F2F2F2"/><path d="M378.127 9.273h-1.191c-1.453.005-2.901.014-4.354.014a.429.429 0 00-.378.182c-.382.491-.787.965-1.164 1.465-.169.228-.356.346-.636.305-.115-.018-.231-.004-.377-.004.035-.128.057-.219.093-.31.315-.887.635-1.775.938-2.667a.796.796 0 000-.473c-.312-.901-.645-1.798-.969-2.699a4.65 4.65 0 01-.089-.269c.418-.04.778-.081 1.062.333.351.514.773.974 1.177 1.452a.388.388 0 00.254.132c1.835.004 3.67 0 5.509-.005.027 0 .058-.01.12-.014-.057-.173-.106-.332-.164-.491-.68-1.889-1.364-3.778-2.044-5.666-.155-.428-.075-.551.373-.551.276 0 .551-.018.822.004.125.01.285.069.36.164.867 1.047 1.72 2.103 2.573 3.159.889 1.097 1.773 2.193 2.666 3.281.049.06.169.078.253.078 1.378.004 2.755 0 4.133.004.195 0 .4.032.586.091.622.187 1.244.382 1.862.587.418.137.586.57.351.915a.796.796 0 01-.382.282c-.636.219-1.28.419-1.924.615a1.74 1.74 0 01-.436.063c-1.39.01-2.781.019-4.176.014-.156 0-.245.06-.334.173-1.688 2.116-3.381 4.233-5.07 6.349a.496.496 0 01-.435.214c-.289-.01-.578 0-.866 0-.343-.005-.445-.15-.334-.473.702-1.99 1.404-3.978 2.106-5.972.027-.077.049-.164.085-.282z" fill="#CFCFCF"/></svg>