<svg width="555" height="16" fill="none" xmlns="http://www.w3.org/2000/svg"><rect x="22" y="7" width="533" height="2" rx="1" fill="#F2F2F2"/><path d="M8.127 9.273h-1.19c-1.454.005-2.902.014-4.355.014a.429.429 0 00-.378.182c-.382.491-.787.965-1.164 1.465-.17.228-.356.346-.636.305-.115-.018-.23-.004-.377-.004.035-.128.057-.219.093-.31.315-.887.635-1.775.938-2.667a.782.782 0 000-.473C.746 6.884.413 5.987.088 5.086.059 5.004.032 4.918 0 4.817c.418-.04.778-.081 1.062.333.351.514.773.974 1.177 1.452a.387.387 0 00.254.132c1.835.004 3.67 0 5.51-.005.026 0 .057-.01.12-.014-.058-.173-.107-.332-.165-.491-.68-1.889-1.364-3.778-2.044-5.666C5.76.13 5.84.007 6.287.007c.276 0 .551-.018.822.004.125.01.285.069.36.164.867 1.047 1.72 2.103 2.573 3.159.889 1.097 1.773 2.193 2.666 3.281.049.06.169.078.253.078 1.378.004 2.755 0 4.133.004.195 0 .4.032.586.091.622.187 1.244.382 1.862.587.418.137.586.57.35.915a.797.797 0 01-.381.282c-.636.219-1.28.419-1.924.615a1.76 1.76 0 01-.436.063c-1.39.01-2.781.019-4.176.014-.156 0-.245.06-.334.173-1.688 2.116-3.381 4.233-5.07 6.349a.498.498 0 01-.435.214c-.289-.01-.578 0-.866 0-.343-.005-.445-.15-.334-.473.702-1.99 1.404-3.978 2.106-5.972.027-.077.05-.164.085-.282z" fill="#CFCFCF"/></svg>