<svg width="55" height="35" fill="none" xmlns="http://www.w3.org/2000/svg"><path fill-rule="evenodd" clip-rule="evenodd" d="M14.948 13.767c0 .466-.934.35-1.518.35H2.803c-.117.116 0 .233 0 .233.35.583.817 1.283 1.518 1.633.584.35.817.234 1.518.234h8.875c.584 0 1.518-.117 1.518.35 0 .35-.7.233-1.167.233h-9.81c0 .233.584.933.7 1.05.818.817 1.285 1.05 2.57 1.05h7.357c.35 0 1.635-.117 1.635.233 0 .35-.467.35-.934.35H7.94c0 .234.35.817.584.934.233.233.117.233.467.466.467.35 1.051.7 1.752.7h9.342c.467 0 1.051-.116 1.402-.35 1.05-.466 1.518-.933 2.218-1.983.117-.233.117-.35.234-.583-.234-.117-.467-.117-.584-.234-1.168-.583-2.336-1.283-3.387-2.1-.116.117-.116.117-.233 0a23.39 23.39 0 01-1.518-1.75c-.467-.583-.701-1.166-.935-1.866-.116-.35-.35-1.05-.35-1.4H0c0 .35.7 1.05.934 1.283.234.35.818.817 1.285.933.35.117 10.393 0 11.911 0 .234 0 .818 0 .818.234zM30.13 18.9c.116.7.817 1.517 1.4 1.983.584.467 1.519.934 2.453.934h9.342c1.168 0 2.102-.934 2.686-1.75.117-.117.234-.234.234-.467H37.37c-.468 0-.818.117-.935-.35.234-.35.935-.233 1.635-.233h7.357c1.285 0 1.752-.234 2.686-1.05.117-.117.701-.817.701-1.05h-9.81c-.467 0-1.167.116-1.167-.35 0-.35 1.05-.234 1.518-.234h8.875c1.168 0 1.168.117 2.102-.583.35-.233 1.168-1.4 1.051-1.517 0-.116-1.518 0-1.752 0h-8.875c-.584 0-1.518.117-1.518-.35 0-.35.467-.233.818-.233h11.911c.934-.233 2.102-1.633 2.219-2.1H37.253c-.117.817-.818 2.567-1.285 3.267-.117.233-.233.35-.35.466l-.234.234c-.233.35-.817.816-1.167 1.166-.117.117-.35.234-.468.35-.233.117-.35.234-.467.35-.584.467-1.635 1.05-2.335 1.284-.35 0-.584.116-.818.233zm5.02 15.983h3.62c0-.116.234-.466.234-.583.117-.233.234-.467.234-.583h3.62c0 .466.117.816.117 1.166h3.387l-.818-4.083c-.117-.467-.233-.933-.233-1.4-.117-.933-.35-1.867-.584-2.683l-.584-2.8h-3.504c-.116 0-.116.116-.233.233 0 .117-.117.233-.117.35l-.35.7-.35.7c-.117.117-.117.233-.117.35l-1.519 3.15-.35.7-.7 1.4c-.117.117-.117.233-.117.35l-1.168 2.45c-.35.117-.35.35-.467.583zm6.657-7.466l.234 1.983c0 .35.117.583.117.933 0 .234.116.7.116 1.05h-2.218l1.167-3.033c.35-.233.467-.817.584-.933zm-28.261 7.466h3.62l.468-1.166h3.503c0 .466.117.816.234 1.166h3.386l-.233-1.4c-.117-.466-.234-.933-.234-1.4-.116-.933-.35-1.866-.584-2.8l-1.05-5.483h-3.504c-.117 0-.117.117-.234.233l-.467 1.05-.7 1.4-1.402 2.8-1.401 2.8-.35.7-.35.7-.701 1.4zm6.657-7.466c0 .35.467 3.85.584 3.966h-2.219c.117-.35 1.168-2.8 1.401-3.5.117-.233.117-.35.234-.466zm5.956-.7h3.036c0 .35-.817 5.6-.934 6.183-.117.35-.35 1.75-.35 2.1h3.62c0-.467.233-1.517.233-2.1l.584-4.083c.117-.467.234-1.75.234-2.1h2.92c.116 0 .116-.117.116-.234l.467-2.566h-9.693l-.233 1.4c.117.35 0 1.05 0 1.4zM7.707 34.883h3.62c0-.233.234-1.05.234-1.4L13.43 23.8H9.81c0 .233-.117.467-.117.7l-1.869 9.567c0 .35-.117.7-.117.816zm10.861-26.6h3.737c.233 0 .117-.466.233-1.166.35-2.217.818-2.684.935-3.267-.818-.467-1.285-.583-1.986-1.167-.116-.116-.116-.116-.35-.233-.35.233-1.168 1.4-1.401 1.75-.234.583-.467.7-.7 1.4-.235.817-.468 1.867-.468 2.683zM21.02 14.7c.117 0 .35-.233.584-.35.234-.117.35-.233.584-.35.7-.467.818-.35 1.285-.7-.117-.35-.234-.583-.35-.933-.351-1.05-.701-2.217-.701-3.5h-3.854c0 1.75.934 4.2 2.219 5.483.117.117.233.117.233.35zm9.693-10.85c0 .117.234.7.35.933.35 1.05.584 2.334.584 3.5h3.737c.234 0 .117-.466.117-.816-.117-.817-.35-1.75-.7-2.45-.35-.7-.701-1.4-1.168-1.984l-.584-.583-1.051.7c-.35.233-.934.7-1.285.7zm1.051 5.133c0 1.05-.233 2.334-.584 3.267-.116.35-.233.583-.35.933.934.467.817.35 1.752 1.05.116.117.35.35.584.35 0-.233.35-.35.467-.583.934-1.283 1.634-2.567 1.985-4.317 0-.233.117-.7.117-.933H31.88v.233h-.117zm-8.758-.933v.233h3.737V4.667a6.806 6.806 0 01-2.22-.35c-.233 0-.466-.234-.7-.234-.233.467-.467 1.284-.7 1.75 0 .7-.117 1.517-.117 2.217zm0 1.05c0 .7.116 1.517.233 2.1.117.467.467 1.4.7 1.75a.892.892 0 00.585-.233c.934-.234 1.284-.234 2.219-.35v-3.5h-3.737V9.1zm4.32-4.433v3.616h3.737c0-.933-.116-1.516-.35-2.45-.117-.35-.233-.583-.233-.933-.117-.233-.234-.583-.35-.817l-1.285.35c-.467.117-.935.234-1.518.234zm.001 7.816c.233.117.467 0 .7.117.234 0 .467.117.7.117.468.116.818.233 1.285.35.234-.35.584-1.284.584-1.75.234-.817.35-1.4.35-2.45H27.21v3.616h.117zm3.153-9.1c.583-.233 1.751-.816 2.102-1.4-.234-.35-1.519-1.05-1.986-1.283-.35-.117-.7-.35-1.168-.467-.35-.116-1.167-.233-1.4-.233 0 0 1.05 1.167 1.4 1.517.468.816.584 1.166 1.052 1.866zM21.604 2.1c.35.467 1.518 1.05 2.102 1.4 0-.233.117-.35.234-.467.35-.7.7-1.05 1.168-1.633l1.05-1.167c-.35 0-1.05.117-1.4.234-.701.116-1.752.583-2.22.933-.233.117-.817.467-.934.7zm0 12.95c.117 0 .234.233.467.35l.467.35c.935.583 1.752.933 2.92 1.167 0 0 .584.116.7.116.117-.116-.116-.116-.35-.35-.467-.466-.817-.816-1.167-1.4l-.467-.583c-.234-.35-.35-.583-.584-.933-.468.116-1.285.583-1.635.933l-.234.233s-.117 0-.117.117zm10.978 0l-.234-.233c-.117 0-.117-.117-.234-.117-.35-.233-1.167-.817-1.634-.933-.234.35-.35.583-.584.933-.35.583-.818 1.05-1.168 1.517l-.234.233c-.584.583-.817.583-.233.583.934-.116 1.635-.35 2.452-.7.234-.116.35-.116.467-.233.35-.35 1.168-.817 1.402-1.05zm-8.409-1.517c.117.584 1.051 1.634 1.402 2.1l.35.35c.234.234.584.584.818.7V13.3c0-.35-.117-.233-.468-.233-.233 0-.583 0-.817.116-.35.117-.934.117-1.285.35zm0-9.916c.35 0 1.051.466 2.57.466V.467c-.234.116-1.168 1.05-1.402 1.4-.233.35-1.05 1.4-1.168 1.75zm3.153 13.066c.584-.116 2.453-2.683 2.57-3.15-.584-.116-1.168-.35-1.986-.466-.467 0-.467-.117-.467.233-.117 1.167-.117 2.217-.117 3.383zm0-12.6c1.635 0 2.22-.466 2.57-.466 0-.234-.35-.7-.468-.934-.583-.816-.7-.933-1.284-1.633l-.817-.7v3.733z" fill="#fff"/></svg>