<svg width="175" height="50" fill="none" xmlns="http://www.w3.org/2000/svg"><path fill-rule="evenodd" clip-rule="evenodd" d="M25.09 19.735l-.12.12h-.06c-.06 0-.119.06-.179.06L22.1 20.993c-.897.3-2.333.899-3.17.12-1.197-.42-2.513-1.378-4.188-1.438-.777-.06-1.675.42-1.675 1.138-.06.78.778 1.139 1.316 1.438.599.3 1.257.6 1.915.899 1.136.539 1.196.48 1.495 1.258.36 1.018 1.196 3.355 1.316 4.314.06.06.957 3.594 1.256 3.954.18.24.957.42 1.376.42.12-.54-.18-3.835-.239-4.554-.12-.24-.12-.48-.06-.839-.06-.42-.299-1.797-.06-2.097.3-.12.778.36 1.017.42.3.12.778-.3.957-.48.36-.24 1.556-1.078 1.735-1.318-.299-.3-1.615-.779-1.794-1.078.18-.3 2.751-1.857 3.05-1.917.36-.42 1.915-.959 2.034-1.498-.239-.18-1.196-.72-1.555-.66-.598.12-1.376.66-1.735.66z" fill="#FCFBFC"/><path fill-rule="evenodd" clip-rule="evenodd" d="M29.577 4.517c-.06-1.078-.3-1.677-.838-2.217-.359-.36-1.316-1.138-2.094-1.018-.179-.12-5.323-.12-5.802 0-1.495.3-2.632 1.498-2.632 3.235v6.051c3.888 0 8.375-.18 11.246-.24.12 0 .12-3.115.12-5.81zM18.929 21.113c.837.779 2.273.24 3.17-.12l2.632-1.018c.06 0 .12-.06.18-.06h.06l.12-.12c-.54-.899-3.949-1.918-3.111-4.014.239-.66.777-1.139 1.375-1.558.3-.18.658-.36.957-.54.539-.299 1.496-.658 2.034-.898 1.017-.42 2.274-.839 3.35-1.018 1.077-.24 2.094-.48 3.23-.3.3.06.36.12.659.12-.18-.3-.599-.48-1.077-.66-1.017-.359-1.436-.239-1.496-.598-.06-.3-.06-1.858-.12-6.111 0-.24.06-.66-.119-.84.06-.778-.718-1.857-1.077-2.216-.359-.36-.538-.48-.957-.719-.478-.24-.718-.24-1.256-.42h-3.948c-1.137 0-2.812-.12-3.829.18-.957.3-1.794 1.019-2.213 1.738-.598 1.018-.598 2.097-.598 3.475 0 .898.12 4.613 0 5.212-1.914.18-2.812.779-3.65 2.037-.896 1.318-.657 3.235-.657 5.033 0 .779.06 10.904 0 11.443.299.18.239.3 0 .54.12 1.617 0 3.414 0 5.032 0 1.797-.06 2.995.837 4.254 1.556 2.157 3.35 1.857 5.743 1.857.658 0 1.974.06 2.572 0-.18-.12-.239-.12-.478-.18-.36-.3-.479-.36-.539-.898-.06-1.019.36-2.577 1.496-2.996 1.136-.48 3.47-.12 4.187-1.737.36-.78.539-1.618.24-2.517-.659-2.097-4.128-2.157-5.025-3.894-.24 0 0 0-.12.06.06.719.359 4.014.24 4.553-.42 0-1.197-.12-1.377-.42-.299-.359-1.196-3.894-1.256-3.954-.12-.958-.957-3.295-1.316-4.313-.299-.78-.359-.72-1.495-1.258-.658-.3-1.316-.6-1.915-.899-.538-.3-1.316-.66-1.316-1.438.06-.719.898-1.138 1.675-1.138 1.615-.06 2.991.898 4.188 1.318z" fill="#CB3CE4"/><path fill-rule="evenodd" clip-rule="evenodd" d="M12.528 29.62c.24-.18.3-.36 0-.539h-.24c-3.529.959-7.537 2.517-9.69 4.494C1.342 34.773.265 36.27.026 38.068c-.24 2.097 1.256 3.834 2.333 4.793 4.007 3.655 12.681 6.051 18.125 6.83.897.12 2.333.36 3.29.3-.359-.12-2.393-.3-2.99-.42-2.872-.48-5.684-1.078-8.435-2.037a53.622 53.622 0 01-4.966-1.977c-1.555-.719-3.35-1.737-4.307-2.636-.598-.6-1.136-.959-1.675-1.797-.478-.72-.957-1.498-.897-2.637.18-2.696 2.333-4.733 4.487-5.99.717-.42 1.495-.84 2.333-1.14.777-.359 1.734-.658 2.512-.958.897-.3 1.735-.599 2.692-.779z" fill="#28E5F8"/><path fill-rule="evenodd" clip-rule="evenodd" d="M21.441 27.703c.36-.3-.299-.24 1.436-1.498l1.316-.898c.12-.12.299-.24.479-.3.598-.42 1.196-.899 1.555-1.438.18-.24.359-.659.418-1.078 0-.42-.12-1.019-.299-1.258-.299.06-2.811 1.617-3.05 1.917.18.3 1.495.779 1.794 1.078-.18.24-1.376 1.079-1.735 1.318-.239.18-.717.6-.957.48-.239-.12-.658-.54-1.017-.42-.239.3 0 1.678.06 2.097z" fill="#E23BF3"/><path fill-rule="evenodd" clip-rule="evenodd" d="M35.559 25.666c.837.12 1.735.66 1.555 1.558-.06.48-.359.719-.658.899-.18.12-.778.479-.957.479-1.137.48-3.23.659-4.546.719-1.735.12-3.47 0-5.205 0 .06.12-.06.06.479.12.24 0 .419.06.598.06.897.06 2.931.12 3.829.18 1.076 0 2.751 0 3.768-.18.36-.06.778-.24 1.137-.24.12-.18.718-.18 1.376-.66 1.854-1.377-.12-3.414-1.376-3.414-.24.12-.18 0-.24.24s0 .18.24.24z" fill="#E839F9"/><path fill-rule="evenodd" clip-rule="evenodd" d="M25.09 19.735c.3 0 1.137-.54 1.615-.6.36-.06 1.316.48 1.556.66-.12.479-1.675 1.018-2.034 1.497.18.24.299.84.299 1.259 0 .36-.24.838-.419 1.078-.359.54-.957 1.019-1.555 1.438-.18.12-.3.24-.479.3l-1.316.898c-1.675 1.258-1.077 1.198-1.436 1.498 0 .36-.06.6.06.839.12-.06-.12-.06.12-.06.897 1.737 4.367 1.797 5.025 3.894.24.899.12 1.738-.24 2.517-.717 1.617-3.05 1.318-4.187 1.737-1.136.42-1.555 1.977-1.495 2.996 0 .539.18.599.538.898.24.06.3.06.479.18l6.34.06c2.094 0 3.949.18 5.564-.779 1.615-.959 1.854-2.696 1.914-4.553 0-1.498-.18-5.273 0-6.351 2.034-.3 3.051-2.576.778-3.774l-.36-.18c-.119 0-.119 0-.238-.06l-.24-.06c-.12-.3.3-9.466-.12-11.264-.239-1.018-.777-1.977-1.614-2.276-.3 0-.36-.06-.659-.12-1.196-.18-2.153.12-3.23.3-1.077.24-2.333.659-3.35 1.018-.598.24-1.495.54-2.034.899-.299.18-.658.36-.957.539-.598.42-1.136.839-1.376 1.558-.837 2.097 2.573 3.175 3.051 4.014zm10.41 8.927c-.06-.54-.06-2.457 0-2.996.837.06 1.675.6 1.615 1.498-.06.779-1.017 1.318-1.615 1.498z" fill="#43BDE3"/><path d="M49.744 29.76V34h.768v-3.568h2.392V34h.768v-4.24h-3.928zm7.23 4.288c1.272 0 2.2-.904 2.2-2.168 0-1.264-.928-2.16-2.2-2.16-1.272 0-2.208.896-2.208 2.16 0 1.264.936 2.168 2.208 2.168zm0-.672c-.816 0-1.432-.592-1.432-1.496s.616-1.488 1.432-1.488 1.424.584 1.424 1.488-.608 1.496-1.424 1.496zm3.31.624h.703l2.592-3.088V34h.768v-4.24h-.696l-2.6 3.088V29.76h-.768V34zm7.402.048c.76 0 1.392-.32 1.728-.912l-.584-.368c-.272.416-.688.608-1.152.608-.832 0-1.456-.576-1.456-1.496 0-.904.624-1.488 1.456-1.488.464 0 .88.192 1.152.608l.584-.376c-.336-.592-.968-.904-1.728-.904-1.304 0-2.24.896-2.24 2.16 0 1.264.936 2.168 2.24 2.168zM73.48 34h.904l-1.72-2.2 1.608-2.04h-.824l-1.376 1.792h-.896V29.76h-.768V34h.768v-1.792h.88L73.48 34zm6.746-2.2c.424-.168.68-.496.68-.952 0-.696-.6-1.088-1.6-1.088h-1.968V34h2.04c1.128 0 1.672-.432 1.672-1.168 0-.536-.264-.888-.824-1.032zm-2.136-1.448h1.152c.584 0 .896.2.896.608s-.312.624-.896.624H78.09v-1.232zm1.232 3.056H78.09v-1.272h1.28c.632 0 .912.208.912.648 0 .432-.328.624-.96.624zm4.842-2.208l-1.144-.008V29.76h-.768V34l1.784.008c1.136.008 1.776-.504 1.776-1.424 0-.872-.576-1.376-1.648-1.384zm2.28 2.8h.768v-4.24h-.768V34zm-2.464-.576l-.96-.008v-1.664l.96.016c.696.008 1.056.248 1.056.808 0 .568-.368.856-1.056.848zm7.845-3.664h-3.12V34h.768v-3.568h2.352v-.672zm2.415 4.288c1.272 0 2.2-.904 2.2-2.168 0-1.264-.928-2.16-2.2-2.16-1.272 0-2.208.896-2.208 2.16 0 1.264.936 2.168 2.208 2.168zm0-.672c-.816 0-1.432-.592-1.432-1.496s.616-1.488 1.432-1.488 1.424.584 1.424 1.488-.608 1.496-1.424 1.496zm6.941-.048V29.76h-3.288l-.064 1.432c-.056 1.072-.16 2.104-.768 2.136h-.224v1.656h.728V34h3.544v.984h.72v-1.656h-.648zm-2.648-2.08l.04-.816h1.84v2.896h-2.376c.384-.336.464-1.2.496-2.08zM102.83 34h.768v-1.776h2.416V34h.768v-4.24h-.768v1.8h-2.416v-1.8h-.768V34zm7.357-2.8l-1.144-.008V29.76h-.768V34l1.784.008c1.136.008 1.776-.504 1.776-1.424 0-.872-.576-1.376-1.648-1.384zm2.28 2.8h.768v-4.24h-.768V34zm-2.464-.576l-.96-.008v-1.664l.96.016c.696.008 1.056.248 1.056.808 0 .568-.368.856-1.056.848zm8.245.576l-1.688-2.168 1.6-2.072h-.84l-1.16 1.528-1.168-1.528h-.856l1.592 2.072L114.056 34h.856l1.24-1.624L117.376 34h.872zm4.469-4.28c-.68 0-1.312.192-1.752.544l.32.576c.328-.28.84-.456 1.344-.456.76 0 1.136.376 1.136 1.024v.152h-1.216c-1.264 0-1.704.56-1.704 1.24 0 .736.608 1.248 1.568 1.248.664 0 1.136-.224 1.392-.608V34h.728v-2.56c0-1.16-.656-1.72-1.816-1.72zm-.176 3.736c-.584 0-.936-.264-.936-.688 0-.36.216-.656.976-.656h1.184v.592c-.192.488-.648.752-1.224.752zm6.263-1.656c.424-.168.68-.496.68-.952 0-.696-.6-1.088-1.6-1.088h-1.968V34h2.04c1.128 0 1.672-.432 1.672-1.168 0-.536-.264-.888-.824-1.032zm-2.136-1.448h1.152c.584 0 .896.2.896.608s-.312.624-.896.624h-1.152v-1.232zm1.232 3.056h-1.232v-1.272h1.28c.632 0 .912.208.912.648 0 .432-.328.624-.96.624zm2.93.592h.704l2.592-3.088V34h.768v-4.24h-.696l-2.6 3.088V29.76h-.768V34zm7.067-4.28c-.68 0-1.312.192-1.752.544l.32.576c.328-.28.84-.456 1.344-.456.76 0 1.136.376 1.136 1.024v.152h-1.216c-1.264 0-1.704.56-1.704 1.24 0 .736.608 1.248 1.568 1.248.664 0 1.136-.224 1.392-.608V34h.728v-2.56c0-1.16-.656-1.72-1.816-1.72zm-.176 3.736c-.584 0-.936-.264-.936-.688 0-.36.216-.656.976-.656h1.184v.592c-.192.488-.648.752-1.224.752zm5.535-3.552c-.712 0-1.312.312-1.672.856.08-1.104.6-1.648 1.704-1.888l1.784-.384-.112-.704-1.936.432c-1.464.32-2.176 1.272-2.176 3.024 0 1.784.808 2.824 2.256 2.824 1.296 0 2.192-.848 2.192-2.096 0-1.216-.84-2.064-2.04-2.064zm-.136 3.52c-.816 0-1.4-.592-1.4-1.432s.568-1.4 1.4-1.4 1.392.56 1.392 1.4c0 .84-.568 1.432-1.392 1.432zm3.272.576h.704l2.592-3.088V34h.768v-4.24h-.696l-2.6 3.088V29.76h-.768V34zm5.939-4.24l-.072 1.568c-.056 1-.088 2.04-.776 2.04a.897.897 0 01-.192-.024l-.048.648c.176.048.328.072.472.072.96 0 1.16-1.192 1.232-2.688l.048-.944h1.824V34h.768v-4.24h-3.256zm8.573 2.144c0-1.304-.872-2.184-2.096-2.184-1.224 0-2.128.904-2.128 2.16 0 1.264.912 2.168 2.28 2.168.704 0 1.288-.24 1.672-.688l-.424-.496c-.312.344-.728.512-1.224.512-.84 0-1.44-.496-1.536-1.24h3.44c.008-.072.016-.168.016-.232zm-2.096-1.536c.744 0 1.28.504 1.36 1.216h-2.72c.08-.72.624-1.216 1.36-1.216zm6.268-.608h-3.872v.672h1.552V34h.768v-3.568h1.552v-.672zm2.414 4.288c1.272 0 2.2-.904 2.2-2.168 0-1.264-.928-2.16-2.2-2.16-1.272 0-2.208.896-2.208 2.16 0 1.264.936 2.168 2.208 2.168zm0-.672c-.816 0-1.432-.592-1.432-1.496s.616-1.488 1.432-1.488 1.424.584 1.424 1.488-.608 1.496-1.424 1.496zm6.197-1.576c.424-.168.68-.496.68-.952 0-.696-.6-1.088-1.6-1.088h-1.968V34h2.04c1.128 0 1.672-.432 1.672-1.168 0-.536-.264-.888-.824-1.032zm-2.136-1.448h1.152c.584 0 .896.2.896.608s-.312.624-.896.624h-1.152v-1.232zm1.232 3.056h-1.232v-1.272h1.28c.632 0 .912.208.912.648 0 .432-.328.624-.96.624zM50.152 24h2.496V12.128h-2.496V24zm8.908.128c2.736 0 4.72-1.84 4.72-4.432 0-2.592-1.983-4.432-4.72-4.432-2.736 0-4.736 1.84-4.736 4.432 0 2.592 2 4.432 4.736 4.432zm0-2.048c-1.248 0-2.208-.896-2.208-2.384s.96-2.384 2.209-2.384c1.248 0 2.191.896 2.191 2.384s-.944 2.384-2.192 2.384zM71.865 24h3.024l-3.904-4.96 3.584-3.648h-2.976l-3.648 3.456v-6.72h-2.496V24h2.496v-2.192l1.2-1.184L71.865 24zm7.867.128c2.736 0 4.72-1.84 4.72-4.432 0-2.592-1.984-4.432-4.72-4.432-2.736 0-4.736 1.84-4.736 4.432 0 2.592 2 4.432 4.736 4.432zm0-2.048c-1.248 0-2.208-.896-2.208-2.384s.96-2.384 2.208-2.384c1.248 0 2.192.896 2.192 2.384s-.944 2.384-2.192 2.384zm11.189-6.64c-1.248 0-2.336.48-3.024 1.424V15.52h-1.472v11.584h1.536V22.72c.704.912 1.76 1.376 2.96 1.376 2.48 0 4.288-1.728 4.288-4.336 0-2.592-1.808-4.32-4.288-4.32zm-.128 7.312c-1.616 0-2.848-1.184-2.848-2.992 0-1.792 1.232-2.976 2.848-2.976 1.632 0 2.864 1.184 2.864 2.976 0 1.808-1.232 2.992-2.864 2.992zM97.33 24h1.536V12.128H97.33V24zm7.557-8.56c-1.36 0-2.624.384-3.504 1.088l.64 1.152c.656-.56 1.68-.912 2.688-.912 1.52 0 2.272.752 2.272 2.048v.304h-2.432c-2.528 0-3.408 1.12-3.408 2.48 0 1.472 1.216 2.496 3.136 2.496 1.328 0 2.272-.448 2.784-1.216V24h1.456v-5.12c0-2.32-1.312-3.44-3.632-3.44zm-.352 7.472c-1.168 0-1.872-.528-1.872-1.376 0-.72.432-1.312 1.952-1.312h2.368v1.184c-.384.976-1.296 1.504-2.448 1.504zm11.354-7.472c-1.344 0-2.432.496-3.056 1.36v-1.28h-1.472V24h1.536v-4.368c0-1.84 1.056-2.816 2.688-2.816 1.456 0 2.288.816 2.288 2.48V24h1.536v-4.88c0-2.496-1.456-3.68-3.52-3.68zm14.074 4.368c0-2.608-1.744-4.368-4.192-4.368-2.448 0-4.256 1.808-4.256 4.32 0 2.528 1.824 4.336 4.56 4.336 1.408 0 2.576-.48 3.344-1.376l-.848-.992c-.624.688-1.456 1.024-2.448 1.024-1.68 0-2.88-.992-3.072-2.48h6.88c.016-.144.032-.336.032-.464zm-4.192-3.072c1.488 0 2.56 1.008 2.72 2.432h-5.44c.16-1.44 1.248-2.432 2.72-2.432z" fill="#fff"/></svg>