<svg width="38" height="50" fill="none" xmlns="http://www.w3.org/2000/svg"><path fill-rule="evenodd" clip-rule="evenodd" d="M25.09 19.735l-.12.12h-.06c-.06 0-.119.06-.179.06L22.1 20.993c-.897.3-2.333.899-3.17.12-1.197-.42-2.513-1.378-4.188-1.438-.777-.06-1.675.42-1.675 1.138-.06.78.778 1.139 1.316 1.438.599.3 1.257.6 1.915.899 1.136.539 1.196.48 1.495 1.258.36 1.018 1.196 3.355 1.316 4.314.06.06.957 3.594 1.256 3.954.18.24.957.42 1.376.42.12-.54-.18-3.835-.239-4.554-.12-.24-.12-.48-.06-.839-.06-.42-.299-1.797-.06-2.097.3-.12.778.36 1.017.42.3.12.778-.3.957-.48.36-.24 1.556-1.078 1.735-1.318-.299-.3-1.615-.779-1.794-1.078.18-.3 2.751-1.857 3.05-1.917.36-.42 1.915-.959 2.034-1.498-.239-.18-1.196-.72-1.555-.66-.598.12-1.376.66-1.735.66z" fill="#fff"/><path fill-rule="evenodd" clip-rule="evenodd" d="M29.577 4.517c-.06-1.078-.3-1.677-.838-2.217-.359-.36-1.316-1.138-2.094-1.018-.179-.12-5.323-.12-5.802 0-1.495.3-2.632 1.498-2.632 3.235v6.051c3.888 0 8.375-.18 11.246-.24.12 0 .12-3.115.12-5.81zM18.929 21.113c.837.779 2.273.24 3.17-.12l2.632-1.018c.06 0 .12-.06.18-.06h.06l.12-.12c-.54-.899-3.949-1.918-3.111-4.014.239-.66.777-1.139 1.375-1.558.3-.18.658-.36.957-.54.539-.299 1.496-.658 2.034-.898 1.017-.42 2.274-.839 3.35-1.018 1.077-.24 2.094-.48 3.23-.3.3.06.36.12.659.12-.18-.3-.599-.48-1.077-.66-1.017-.359-1.436-.239-1.496-.598-.06-.3-.06-1.858-.12-6.111 0-.24.06-.66-.119-.84.06-.778-.718-1.857-1.077-2.216-.359-.36-.538-.48-.957-.719-.478-.24-.718-.24-1.256-.42h-3.948c-1.137 0-2.812-.12-3.829.18-.957.3-1.794 1.019-2.213 1.738-.598 1.018-.598 2.097-.598 3.475 0 .898.12 4.613 0 5.212-1.914.18-2.812.779-3.65 2.037-.896 1.318-.657 3.235-.657 5.033 0 .779.06 10.904 0 11.443.299.18.239.3 0 .54.12 1.617 0 3.414 0 5.032 0 1.797-.06 2.995.837 4.254 1.556 2.157 3.35 1.857 5.743 1.857.658 0 1.974.06 2.572 0-.18-.12-.239-.12-.478-.18-.36-.3-.479-.36-.539-.898-.06-1.019.36-2.577 1.496-2.996 1.136-.48 3.47-.12 4.187-1.737.36-.78.539-1.618.24-2.517-.659-2.097-4.128-2.157-5.025-3.894-.24 0 0 0-.12.06.06.719.359 4.014.24 4.553-.42 0-1.197-.12-1.377-.42-.299-.359-1.196-3.894-1.256-3.954-.12-.958-.957-3.295-1.316-4.313-.299-.78-.359-.72-1.495-1.258-.658-.3-1.316-.6-1.915-.899-.538-.3-1.316-.66-1.316-1.438.06-.719.898-1.138 1.675-1.138 1.615-.06 2.991.898 4.188 1.318z" fill="#C9C9C9"/><path fill-rule="evenodd" clip-rule="evenodd" d="M12.528 29.62c.24-.18.3-.36 0-.539h-.24c-3.529.959-7.537 2.516-9.69 4.494C1.342 34.773.265 36.27.026 38.068c-.24 2.097 1.256 3.834 2.333 4.793 4.007 3.655 12.681 6.051 18.125 6.83.897.12 2.333.36 3.29.3-.359-.12-2.393-.3-2.99-.42-2.872-.48-5.684-1.078-8.435-2.037a53.566 53.566 0 01-4.966-1.977c-1.555-.719-3.35-1.738-4.307-2.636-.598-.6-1.136-.959-1.675-1.798-.478-.718-.957-1.497-.897-2.636.18-2.696 2.333-4.733 4.487-5.99.717-.42 1.495-.84 2.333-1.14.777-.359 1.734-.658 2.512-.958.897-.3 1.735-.599 2.692-.779z" fill="#A2A2A2"/><path fill-rule="evenodd" clip-rule="evenodd" d="M21.441 27.703c.36-.3-.299-.24 1.436-1.498l1.316-.898c.12-.12.299-.24.479-.3.598-.42 1.196-.899 1.555-1.438.18-.24.359-.659.418-1.078 0-.42-.12-1.019-.299-1.258-.299.06-2.811 1.617-3.05 1.917.18.3 1.495.779 1.794 1.078-.18.24-1.376 1.079-1.735 1.318-.239.18-.717.6-.957.48-.239-.12-.658-.54-1.017-.42-.239.3 0 1.678.06 2.097zm14.118-2.037c.837.12 1.735.66 1.555 1.558-.06.48-.359.719-.658.899-.18.12-.778.479-.957.479-1.137.48-3.23.659-4.546.719-1.735.12-3.47 0-5.205 0 .06.12-.06.06.479.12.24 0 .419.06.598.06.897.06 2.931.12 3.829.18 1.076 0 2.751 0 3.768-.18.36-.06.778-.24 1.137-.24.12-.18.718-.18 1.376-.66 1.854-1.377-.12-3.414-1.376-3.414-.24.12-.18 0-.24.24s0 .18.24.24z" fill="#C9C9C9"/><path fill-rule="evenodd" clip-rule="evenodd" d="M25.09 19.735c.3 0 1.137-.54 1.615-.6.36-.06 1.316.48 1.556.66-.12.479-1.675 1.018-2.034 1.497.18.24.299.84.299 1.259 0 .36-.24.838-.419 1.078-.359.54-.957 1.019-1.555 1.438-.18.12-.3.24-.479.3l-1.316.898c-1.675 1.258-1.077 1.198-1.436 1.498 0 .36-.06.6.06.839.12-.06-.12-.06.12-.06.897 1.737 4.367 1.797 5.025 3.894.24.899.12 1.738-.24 2.517-.717 1.617-3.05 1.318-4.187 1.737-1.136.42-1.555 1.977-1.495 2.996 0 .539.18.599.538.898.24.06.3.06.479.18l6.34.06c2.094 0 3.949.18 5.564-.779 1.615-.959 1.854-2.696 1.914-4.553 0-1.498-.18-5.273 0-6.351 2.034-.3 3.051-2.576.778-3.774l-.36-.18c-.119 0-.119 0-.238-.06l-.24-.06c-.12-.3.3-9.466-.12-11.264-.239-1.018-.777-1.977-1.614-2.276-.3 0-.36-.06-.659-.12-1.196-.18-2.153.12-3.23.3-1.077.24-2.333.659-3.35 1.018-.598.24-1.495.54-2.034.899-.299.18-.658.36-.957.539-.598.42-1.136.839-1.376 1.558-.837 2.097 2.573 3.175 3.051 4.014zm10.41 8.927c-.06-.54-.06-2.457 0-2.996.837.06 1.675.6 1.615 1.498-.06.779-1.017 1.318-1.615 1.498z" fill="#A2A2A2"/></svg>