<svg width="538" height="546" fill="none" xmlns="http://www.w3.org/2000/svg"><mask id="a" style="mask-type:alpha" maskUnits="userSpaceOnUse" x="4" y="-103" width="641" height="641"><circle cx="324.5" cy="217.5" r="320.5" transform="rotate(-180 324.5 217.5)" fill="#C4C4C4"/></mask><g opacity=".5" stroke="#F99D21" stroke-width="2" stroke-miterlimit="10" mask="url(#a)"><path d="M445.493 373.138h53.769v-54.022h-53.769v54.022zm-111.169.001h53.769v-54.023h-53.769v54.023zm55.598-.001h53.769v-54.022h-53.769v54.022zm111.14.001h53.77v-54.023h-53.77v54.023zm-222.308-.001h53.769v-54.022h-53.769v54.022zm-111.168 0h53.769v-54.022h-53.769v54.022zm-111.14 0h53.769v-54.022H56.446v54.022zm55.569 0h53.77v-54.022h-53.77v54.022zm111.169.001h53.769v-54.023h-53.769v54.023zM.847 373.138h53.77v-54.022H.847v54.022zm222.337 167.498h53.769v-54.022h-53.769v54.022zm0-55.824h53.769V430.79h-53.769v54.022zm-55.598.001h53.769v-54.022h-53.769v54.022zm166.738-.001h53.769V430.79h-53.769v54.022zm-55.57 0h53.769V430.79h-53.769v54.022zm-166.738.001h53.769v-54.022h-53.769v54.022zm277.906-.001h53.769V430.79h-53.769v54.022zm-111.168 55.823h53.769v-54.022h-53.769v54.022zm-222.308.001h53.769v-54.022h-53.77v54.022zm55.569 0h53.769v-54.022h-53.769v54.022zm-55.569-55.823h53.769v-54.022H56.446v54.022zm389.046 0h53.769v-54.022h-53.769v54.022zm55.57-.001h53.77V430.79h-53.77v54.022zm-444.616-55.85h53.769v-54.023h-53.77v54.023zm55.57 0h53.769v-54.023h-53.769v54.023zm55.57 0h53.769v-54.023h-53.769v54.023zM.848 428.961h53.77v-54.023H.847v54.023zm222.336 0h53.769v-54.023h-53.769v54.023zM.847 484.813h53.77v-54.022H.847v54.022zm277.906-55.851h53.769v-54.023h-53.769v54.023zm55.571 111.674h53.769v-54.022h-53.769v54.022zm-333.476 0h53.77v-54.022H.847v54.022zm500.214 0h53.77v-54.022h-53.77v54.022zm-111.14.001h53.769v-54.022h-53.769v54.022zm55.571-.001h53.769v-54.022h-53.769v54.022zM334.325 428.962h53.769v-54.023h-53.769v54.023zm111.167 0h53.769v-54.023h-53.769v54.023zm-55.57 0h53.769v-54.023h-53.769v54.023zm111.14-.001h53.769v-54.023h-53.769v54.023zM.848 261.464h53.77v-54.023H.847v54.023zm111.168 0h53.77v-54.023h-53.77v54.023zm-55.571 0h53.769v-54.023H56.445v54.023zm111.141 0h53.769v-54.023h-53.769v54.023zm111.168 0h53.769v-54.023h-53.769v54.023zm222.308 0h53.769v-54.023h-53.769v54.023zm-111.139-.001h53.769V207.44h-53.769v54.023zm55.57.001h53.769v-54.023h-53.769v54.023zm-111.169 0h53.769v-54.023h-53.769v54.023zm-111.14-.001h53.77V207.44h-53.77v54.023zm111.14 55.853h53.769v-54.023h-53.769v54.023zM.847 317.315h53.77v-54.022l-53.77-.001v54.023zm166.739.001h53.769v-54.023h-53.769v54.023zm-55.57 0h53.769v-54.023h-53.769v54.023zm-55.57 0h53.769v-54.023h-53.77v54.023zm444.616 0h53.77v-54.023h-53.77v54.023zm-277.878 0h53.769v-54.022h-53.769v54.022zm55.57 0h53.769v-54.023h-53.769v54.023zm166.738-.001h53.769v-54.022l-53.769-.001v54.023zm-55.57 0h53.769v-54.022l-53.769-.001v54.023zm-222.336 223.32h53.769v-54.022h-53.769v54.022zM.847 38.143h53.77V-15.88H.846v54.023zm55.599 0h53.769V-15.88h-53.77v54.023zm389.046 0h53.769V-15.88h-53.769v54.023zm55.57 0h53.769V-15.88h-53.769v54.023zm-111.14 0h53.769V-15.88h-53.769v54.023zm-111.168 0h53.769v-54.022h-53.769v54.022zm-55.571 0h53.77V-15.88h-53.77v54.023zm111.142 0h53.769V-15.88h-53.769v54.023zm-166.739 0h53.769V-15.88h-53.769v54.023zm-55.571 0h53.77v-54.022h-53.77v54.022zM.847 149.818h53.77V95.796H.846v54.022zm166.739-.001h53.769V95.795h-53.769v54.022zm-55.571.001h53.77V95.796h-53.77v54.022zm-55.569 0h53.769V95.796h-53.77v54.022zm444.616 0h53.77V95.796h-53.77v54.022zm-277.878 0h53.769V95.796h-53.769v54.022zm55.57 0h53.769V95.796h-53.769v54.022zm166.739-.001h53.769V95.794h-53.769v54.023zm-111.169 0h53.769V95.795h-53.769v54.022zm55.598 0h53.769V95.795h-53.769v54.022zm-55.598 55.824h53.769v-54.023h-53.769v54.023zm-55.569 0h53.769v-54.023h-53.769v54.023zm111.167.001h53.769v-54.023h-53.769v54.023zm55.571-.001h53.769v-54.023h-53.769v54.023zm55.569 0h53.77v-54.023h-53.77v54.023zm-444.616 0h53.769v-54.023h-53.77v54.023zm166.738 0h53.769v-54.023h-53.769v54.023zM.847 205.64h53.77v-54.022H.847v54.022zm166.739.001h53.769v-54.023h-53.769v54.023zm-55.571 0h53.77v-54.023h-53.77v54.023zM.848 93.965h53.77V39.943H.847v54.022zm55.597.001h53.769V39.944H56.445v54.022zm166.739 0h53.769V39.944h-53.769v54.022zm-111.168-.001h53.769V39.943h-53.769v54.022zm55.57.001h53.769V39.944h-53.769v54.022zm111.168-.001h53.769V39.943h-53.769v54.022zm55.57 0h53.769V39.943h-53.769v54.022zm55.598.001h53.769V39.944h-53.769v54.022zm111.14 0h53.77V39.944h-53.77v54.022zm-55.57 0h53.769V39.944h-53.769v54.022z"/><path d="M54.646 205.641h1.8v-54.023h-1.8v54.023zm-.001-111.675h1.8V39.944h-1.8v54.022zm.001 279.173h1.8v-54.023h-1.8v54.023zm-.001-334.996h1.8V-15.88h-1.8v54.023zm0 223.321h1.8v-54.023h-1.8v54.023zm0 55.851h1.8v-54.022h-1.8v54.022zm0-167.497h1.8V95.796h-1.8v54.022zm0 279.144h1.8v-54.023h-1.8v54.023zm.001 111.674h1.8v-54.022h-1.8v54.022zm-.001-55.824h1.8V430.79h-1.8v54.022zm55.57 55.824h1.801v-54.022h-1.801v54.022zm0-55.824h1.801V430.79h-1.801v54.022zm0-446.669h1.801V-15.88h-1.801v54.023zm0 279.173h1.801v-54.023h-1.801v54.023zm.001-167.498h1.801V95.796h-1.801v54.022zm-.001-55.853h1.801V39.943h-1.801v54.022zm0 111.676h1.801v-54.023h-1.801v54.023zm0 167.498h1.801v-54.023h-1.801v54.023zm0-111.675h1.801v-54.023h-1.801v54.023zm0 167.497h1.801v-54.023h-1.801v54.023zm55.57-223.32h1.801v-54.023h-1.801v54.023zm0 223.32h1.801v-54.023h-1.801v54.023zm0 55.852h1.8v-54.022h-1.8v54.022zm0 55.823h1.801v-54.022h-1.801v54.022zm0-446.67h1.801V39.944h-1.801v54.022zm.001 279.172h1.8v-54.022h-1.8v54.022zm0-55.823h1.8v-54.022h-1.8v54.022zm-.001-55.851h1.801v-54.023h-1.801v54.023zm.001-223.321h1.8V-15.88h-1.8v54.023zm0 111.675h1.8V95.796h-1.8v54.022zm55.57 55.823h1.8v-54.023h-1.8v54.023zm0-55.824h1.801V95.795h-1.801v54.022zm-.001-55.851h1.801V39.944h-1.801v54.022zm.001 446.669h1.8v-54.022h-1.8v54.022zm0-167.497h1.8v-54.022h-1.8v54.022zm0 55.825h1.8V374.94h-1.8v54.023zm0-111.647h1.8v-54.023h-1.8v54.023zm0-279.173h1.8v-54.022h-1.8v54.022zm-.001 446.669h1.801V430.79h-1.801v54.022zm0-223.348h1.801v-54.023h-1.801v54.023zm55.598 111.674h1.801v-54.022h-1.801v54.022zm.001-111.674h1.8v-54.023h-1.8v54.023zm0-167.498h1.8V39.944h-1.8v54.022zm-.001-55.823h1.801V-15.88h-1.801v54.023zm0 111.674h1.801V95.795h-1.801v54.022zm0 55.824h1.801v-54.023h-1.801v54.023zm.001 334.995h1.8v-54.022h-1.8v54.022zm0-111.675h1.8v-54.023h-1.8v54.023zm-.001-111.645h1.801v-54.023h-1.801v54.023zm.001 167.497h1.8v-54.022h-1.8v54.022zm55.569 0h1.801v-54.022h-1.801v54.022zm0 55.823h1.801v-54.022h-1.801v54.022zm.001-334.995h1.801v-54.023h-1.801v54.023zm-.001-111.675h1.801V39.944h-1.801v54.022zm0 55.851h1.801V95.795h-1.801v54.022zm0 111.647h1.801v-54.023h-1.801v54.023zm0 55.851h1.801v-54.022h-1.801v54.022zm0-279.172h1.801V-15.88h-1.801v54.023zm.001 334.996h1.801v-54.023h-1.801v54.023zm-.001 55.823h1.801v-54.023h-1.801v54.023zm55.571-223.321h1.801v-54.023h-1.801v54.023zm-.001 55.823h1.801v-54.023h-1.801v54.023zm.001 111.675h1.801v-54.023h-1.801v54.023zm0-55.823h1.801v-54.023h-1.801v54.023zm-.001-223.35h1.801V39.944h-1.801v54.022zm.001 55.852h1.801V95.796h-1.801v54.022zm-.001 279.144h1.801v-54.023h-1.801v54.023zm0 55.85h1.801V430.79h-1.801v54.022zm.001 55.824h1.801v-54.022h-1.801v54.022zm-.001-502.493h1.801V-15.88h-1.801v54.023zm55.598 502.493h1.801v-54.022h-1.801v54.022zm.001-390.819h1.801V95.795h-1.801v54.022zm0 279.145h1.801v-54.023h-1.801v54.023zm-.001 55.851h1.801v-54.022h-1.801v54.022zm.001-279.172h1.801v-54.023h-1.801v54.023zm-.001 111.675h1.801v-54.023h-1.801v54.023zm.001 55.822h1.801v-54.022h-1.801v54.022zm0-111.674h1.801v-54.022h-1.801v54.022zm0-223.321h1.801V-15.88h-1.801v54.023zm0 55.823h1.801V39.944h-1.801v54.022zm55.57 167.498h1.8l.001-54.023h-1.801v54.023zm0 55.851h1.8l.001-54.022h-1.801v54.022zm-.001 55.823h1.801v-54.022h-1.801v54.022zm.001-223.321h1.8l.001-54.022h-1.801v54.022zm0-55.851h1.8l.001-54.022h-1.801v54.022zm0-55.823h1.8l.001-54.023h-1.801v54.023zm0 390.819h1.8l.001-54.023h-1.801v54.023zm0-223.321h1.8l.001-54.023h-1.801v54.023zm0 279.171h1.8l.001-54.022h-1.801v54.022zm0 55.825h1.8l.001-54.022h-1.801v54.022z"/><path d="M389.922 486.613h53.769v-1.801h-53.769v1.801zm-389.075.001h53.77v-1.801H.846v1.801zm444.645-.001h53.769v-1.801h-53.769v1.801zm-277.906.001h53.769v-1.801h-53.769v1.801zm-55.571 0h53.77v-1.801h-53.77v1.801zm111.169 0h53.77v-1.801h-53.77v1.801zm111.14 0h53.769v-1.801h-53.769v1.801zm-55.57 0h53.769v-1.801h-53.769v1.801zm222.309-.001h53.769v-1.801h-53.769v1.801zm-444.617.001h53.769v-1.801H56.446v1.801zm-1.8 0h1.8v-1.801h-1.8v1.801z"/><path d="M110.215 486.615h1.801v-1.801h-1.801v1.801zm55.571-.001h1.8v-1.801h-1.8v1.801zm55.57 0h1.8v-1.801h-1.8v1.801zm55.597 0h1.8v-1.801h-1.8v1.801zm55.57-.001h1.801v-1.801h-1.801v1.801zm55.571.001h1.801v-1.801h-1.801v1.801zm55.598-.001h1.801v-1.801h-1.801v1.801zm55.57 0h1.8l.001-1.801h-1.801v1.801zM56.446 430.762h53.769v-1.801h-53.77v1.801zm-55.599 0h53.77v-1.801H.847v1.801zm333.477 0h53.769v-1.801h-53.769v1.801zm-55.57 0h53.769v-1.801h-53.769v1.801zm166.738 0h53.769v-1.801h-53.769v1.801zm-55.57 0h53.769v-1.801h-53.769v1.801zm-222.336.001h53.769v-1.801h-53.769v1.801zm333.476-.001h53.769v-1.801h-53.769v1.801zm-277.878 0h53.769v-1.801h-53.769v1.801zm-111.168 0h53.769v-1.801h-53.769v1.801zm-57.371 0h1.8v-1.801h-1.8v1.801z"/><path d="M110.216 430.761h1.801v-1.801h-1.801v1.801zm55.569.001h1.801v-1.801h-1.801v1.801zm55.57 0h1.801v-1.801h-1.801v1.801zm55.599 0h1.801v-1.801h-1.801v1.801zm55.569 0h1.801v-1.801h-1.801v1.801zm55.57 0h1.801v-1.801h-1.801v1.801zm55.599 0h1.801v-1.801h-1.801v1.801zm55.57 0h1.8l.001-1.801h-1.801v1.801zm-220.508-55.823h53.769v-1.801h-53.769v1.801zm111.169 0h53.769v-1.801h-53.769v1.801zm-222.337.001h53.769v-1.801h-53.769v1.801zm55.597 0h53.77v-1.801h-53.77v1.801zm111.141 0h53.769v-1.801h-53.769v1.801zm-333.477 0h53.77v-1.801H.847v1.801zm55.598 0h53.769v-1.801H56.445v1.801zm55.57-.001h53.77v-1.801h-53.77v1.801zm333.477.001h53.769v-1.801h-53.769v1.801zm55.57 0h53.769v-1.801h-53.769v1.801zm-446.417 0h1.8v-1.801h-1.8v1.801z"/><path d="M110.215 374.939h1.801v-1.801h-1.801v1.801zm55.571 0h1.8v-1.801h-1.8v1.801zm55.569 0h1.801v-1.801h-1.801v1.801zm55.599.001h1.8v-1.801h-1.8v1.801zm55.57-.001h1.801v-1.801h-1.801v1.801zm55.569.001h1.801v-1.801h-1.801v1.801zm55.599 0h1.801v-1.801h-1.801v1.801zm55.57 0h1.801v-1.801h-1.801v1.801zm-164.938-55.852h53.769v-1.801h-53.769v1.801zm-333.477 0h53.77v-1.801H.847v1.801zm500.215 0h53.77v-1.801h-53.77v1.801zm-389.046 0h53.769v-1.801h-53.769v1.801zm-55.57 0h53.769v-1.801H56.446v1.801zm111.139 0h53.769v-1.801h-53.769v1.801zm222.337-.001h53.769v-1.801h-53.769v1.801zm55.57.001h53.769v-1.801h-53.769v1.801zm-166.738 0h53.769v-1.801h-53.769v1.801zm-55.57 0h53.77v-1.801h-53.77v1.801zm-168.538 0h1.8v-1.801h-1.8v1.801z"/><path d="M110.215 319.088h1.801v-1.801h-1.801v1.801zm55.571 0h1.8v-1.801h-1.8v1.801zm55.57 0h1.8v-1.801h-1.8v1.801zm55.597 0h1.801v-1.801h-1.801v1.801zm55.57-.001h1.801v-1.801h-1.801v1.801zm55.571.001h1.801v-1.801h-1.801v1.801zm55.597 0h1.801v-1.801h-1.801v1.801zm55.571 0h1.8l.001-1.801h-1.801v1.801zm-220.508-55.824h53.769v-1.801h-53.769v1.801zm-55.57.001h53.769v-1.801h-53.769v1.801zm111.14-.001h53.769v-1.801h-53.769v1.801zm55.599 0h53.769v-1.801h-53.769v1.801zm55.569 0h53.769v-1.801h-53.769v1.801zm-389.046 0h53.769v-1.801h-53.77v1.801zm-55.598 0h53.77v-1.801H.847v1.801zm500.214.001h53.769v-1.801h-53.769v1.801zm-333.477-.001h53.769v-1.801h-53.769v1.801zm-55.57 0h53.77v-1.801h-53.77v1.801z"/><path d="M54.646 263.265h1.8v-1.801h-1.8v1.801zm55.569-.001h1.801v-1.801h-1.801v1.801zm55.57 0h1.801v-1.801h-1.801v1.801zm55.57 0h1.801v-1.801h-1.801v1.801zm55.599 0h1.8v-1.801h-1.8v1.801zm55.57 0h1.801v-1.801h-1.801v1.801zm55.569.001h1.801v-1.801h-1.801v1.801zm55.598-.001h1.801v-1.801h-1.801v1.801zm55.571 0h1.801v-1.801h-1.801v1.801zm-276.079-55.823h53.77v-1.8h-53.77v1.8zm-55.598 0h53.769v-1.8h-53.769v1.8zm111.169 0h53.769v-1.8h-53.769v1.8zm166.739 0h53.769v-1.8h-53.769v1.8zm55.569 0h53.77v-1.8h-53.77v1.8zm-111.14 0h53.769v-1.8h-53.769v1.8zm-277.906 0h53.769v-1.8h-53.769v1.8zm-111.168 0h53.77v-1.8H.847v1.8zm55.597 0h53.769v-1.8H56.445v1.8zm277.879 0h53.769v-1.8h-53.769v1.8zm-279.679 0h1.8v-1.8h-1.8v1.8z"/><path d="M110.215 207.441h1.801v-1.8h-1.801v1.8zm55.57 0h1.801v-1.8h-1.801v1.8zm55.571 0h1.8v-1.8h-1.8v1.8zm55.598 0h1.8v-1.8h-1.8v1.8zm55.569 0h1.801v-1.8h-1.801v1.8zm55.571 0h1.801v-1.8h-1.801v1.8zm55.598 0h1.801v-1.8h-1.801v1.8zm55.57.001h1.8l.001-1.8h-1.801v1.8zm-164.937-55.824h53.769v-1.801h-53.769v1.801zm55.597 0h53.769v-1.801h-53.769v1.801zm55.57 0h53.769v-1.801h-53.769v1.801zm55.57 0h53.769v-1.801h-53.769v1.801zm-389.046 0h53.769v-1.801h-53.769v1.801zm-55.57 0h53.769v-1.801H56.446v1.801zm-55.599 0h53.77v-1.801H.846v1.801zm222.337 0h53.769v-1.801h-53.769v1.801zm55.57 0h53.769v-1.801h-53.769v1.801zm-111.169 0h53.769v-1.801h-53.769v1.801zm-112.94 0h1.8v-1.801h-1.8v1.801z"/><path d="M110.215 151.618h1.801v-1.801h-1.801v1.801zm55.57.001h1.801v-1.801h-1.801v1.801zm55.571-.001h1.8v-1.801h-1.8v1.801zm55.597 0h1.801v-1.801h-1.801v1.801zm55.57 0h1.801v-1.801h-1.801v1.801zm55.57 0h1.801v-1.801h-1.801v1.801zm55.598 0h1.801v-1.801h-1.801v1.801zm55.571 0h1.8l.001-1.801h-1.801v1.801zM389.923 95.767h53.769v-1.801h-53.769v1.8zm-333.477 0h53.769v-1.801h-53.77v1.8zm389.046 0h53.769v-1.801h-53.769v1.8zm-333.477 0h53.77v-1.801h-53.77v1.8zm166.739 0h53.769v-1.801h-53.769v1.8zm-55.571 0h53.77v-1.8h-53.77v1.8zm-55.597 0h53.769v-1.801h-53.769v1.8zm166.738 0h53.769v-1.801h-53.769v1.8zm-333.476 0h53.77v-1.801H.847v1.8zm500.214 0h53.77v-1.801h-53.77v1.8zm-446.417 0h1.8v-1.8h-1.8v1.8z"/><path d="M110.215 95.767h1.801v-1.801h-1.801v1.8zm55.571 0h1.8v-1.801h-1.8v1.8zm55.569 0h1.801v-1.801h-1.801v1.8zm55.599 0h1.8v-1.801h-1.8v1.8zm55.57 0h1.801v-1.801h-1.801v1.8zm55.569 0h1.801v-1.801h-1.801v1.8zm55.599 0h1.801v-1.801h-1.801v1.8zm55.57 0h1.8l.001-1.8h-1.801v1.8zM56.446 39.943h53.769v-1.8h-53.77v1.8zm55.569 0h53.77v-1.8h-53.77v1.8zm389.047.001h53.769v-1.8h-53.769v1.8zm-333.476-.001h53.769v-1.8h-53.769v1.8zm55.598 0h53.77v-1.8h-53.77v1.8zm111.14.001h53.769v-1.8h-53.769v1.8zm55.598 0h53.769v-1.8h-53.769v1.8zm-389.074 0h53.77v-1.8H.847v1.8zm444.645 0h53.769v-1.8h-53.769v1.8zm-166.739-.001h53.769v-1.8h-53.769v1.8z"/><path d="M54.646 39.944h1.8v-1.8h-1.8v1.8zm55.569 0h1.801v-1.8h-1.801v1.8zm55.571-.001h1.8v-1.8h-1.8v1.8zm55.57 0h1.8v-1.8h-1.8v1.8zm55.598 0h1.801v-1.8h-1.801v1.8zm55.57 0h1.801v-1.8h-1.801v1.8zm55.57.001h1.801v-1.8h-1.801v1.8zm55.597-.001h1.801v-1.8h-1.801v1.8zm55.571.001h1.8l.001-1.8h-1.801v1.8z"/></g></svg>