<svg width="555" height="16" viewBox="0 0 555 16" fill="none" xmlns="http://www.w3.org/2000/svg">
<rect y="7" width="184" height="2" rx="1" fill="#F2F2F2"/>
<rect x="207" y="7" width="348" height="2" rx="1" fill="#F2F2F2"/>
<path d="M193.127 9.27312C192.705 9.27312 192.318 9.27312 191.936 9.27312C190.483 9.27767 189.035 9.28678 187.582 9.28678C187.417 9.28678 187.306 9.33684 187.204 9.46883C186.822 9.96035 186.417 10.4337 186.04 10.9343C185.871 11.1619 185.684 11.2802 185.404 11.2392C185.289 11.221 185.173 11.2347 185.027 11.2347C185.062 11.1073 185.084 11.0162 185.12 10.9252C185.435 10.0377 185.755 9.15024 186.058 8.25821C186.106 8.11712 186.106 7.92597 186.058 7.78488C185.746 6.88375 185.413 5.98716 185.089 5.08603C185.058 5.0041 185.031 4.91763 185 4.8175C185.418 4.77654 185.778 4.73558 186.062 5.14974C186.413 5.66403 186.835 6.1237 187.239 6.60157C187.297 6.66984 187.408 6.73356 187.493 6.73356C189.328 6.73811 191.163 6.73356 193.002 6.72901C193.029 6.72901 193.06 6.7199 193.122 6.71535C193.065 6.54241 193.016 6.38312 192.958 6.22382C192.278 4.33508 191.594 2.44633 190.914 0.557588C190.759 0.129776 190.839 0.00689411 191.287 0.00689411C191.563 0.00689411 191.838 -0.0113107 192.109 0.0114453C192.234 0.0205477 192.394 0.0797132 192.469 0.175288C193.336 1.22206 194.189 2.27794 195.042 3.33382C195.931 4.43065 196.815 5.52749 197.708 6.61523C197.757 6.67439 197.877 6.6926 197.961 6.6926C199.339 6.69715 200.716 6.6926 202.094 6.69715C202.289 6.69715 202.494 6.72901 202.68 6.78817C203.302 6.97477 203.924 7.17047 204.542 7.37528C204.96 7.51181 205.128 7.94417 204.893 8.29007C204.809 8.4175 204.653 8.52218 204.511 8.57224C203.875 8.7907 203.231 8.99095 202.587 9.18665C202.449 9.22761 202.298 9.24582 202.151 9.25037C200.761 9.25947 199.37 9.26857 197.975 9.26402C197.819 9.26402 197.73 9.32319 197.641 9.43697C195.953 11.5533 194.26 13.6696 192.571 15.7859C192.452 15.9361 192.323 16.0043 192.136 15.9998C191.847 15.9907 191.558 15.9998 191.27 15.9998C190.927 15.9952 190.825 15.8496 190.936 15.5265C191.638 13.5376 192.34 11.5487 193.042 9.5553C193.069 9.47793 193.091 9.39145 193.127 9.27312Z" fill="#CFCFCF"/>
</svg>
