<svg width="555" height="16" viewBox="0 0 555 16" fill="none" xmlns="http://www.w3.org/2000/svg">
<rect y="7" width="369" height="2" rx="1" fill="#F2F2F2"/>
<rect x="392" y="7" width="163" height="2" rx="1" fill="#F2F2F2"/>
<path d="M378.127 9.27312C377.705 9.27312 377.318 9.27312 376.936 9.27312C375.483 9.27767 374.035 9.28678 372.582 9.28678C372.417 9.28678 372.306 9.33684 372.204 9.46883C371.822 9.96035 371.417 10.4337 371.04 10.9343C370.871 11.1619 370.684 11.2802 370.404 11.2392C370.289 11.221 370.173 11.2347 370.027 11.2347C370.062 11.1073 370.084 11.0162 370.12 10.9252C370.435 10.0377 370.755 9.15024 371.058 8.25821C371.106 8.11712 371.106 7.92597 371.058 7.78488C370.746 6.88375 370.413 5.98716 370.089 5.08603C370.058 5.0041 370.031 4.91763 370 4.8175C370.418 4.77654 370.778 4.73558 371.062 5.14974C371.413 5.66403 371.835 6.1237 372.239 6.60157C372.297 6.66984 372.408 6.73356 372.493 6.73356C374.328 6.73811 376.163 6.73356 378.002 6.72901C378.029 6.72901 378.06 6.7199 378.122 6.71535C378.065 6.54241 378.016 6.38312 377.958 6.22382C377.278 4.33508 376.594 2.44633 375.914 0.557588C375.759 0.129776 375.839 0.00689411 376.287 0.00689411C376.563 0.00689411 376.838 -0.0113107 377.109 0.0114453C377.234 0.0205477 377.394 0.0797132 377.469 0.175288C378.336 1.22206 379.189 2.27794 380.042 3.33382C380.931 4.43065 381.815 5.52749 382.708 6.61523C382.757 6.67439 382.877 6.6926 382.961 6.6926C384.339 6.69715 385.716 6.6926 387.094 6.69715C387.289 6.69715 387.494 6.72901 387.68 6.78817C388.302 6.97477 388.924 7.17047 389.542 7.37528C389.96 7.51181 390.128 7.94417 389.893 8.29007C389.809 8.4175 389.653 8.52218 389.511 8.57224C388.875 8.7907 388.231 8.99095 387.587 9.18665C387.449 9.22761 387.298 9.24582 387.151 9.25037C385.761 9.25947 384.37 9.26857 382.975 9.26402C382.819 9.26402 382.73 9.32319 382.641 9.43697C380.953 11.5533 379.26 13.6696 377.571 15.7859C377.452 15.9361 377.323 16.0043 377.136 15.9998C376.847 15.9907 376.558 15.9998 376.27 15.9998C375.927 15.9952 375.825 15.8496 375.936 15.5265C376.638 13.5376 377.34 11.5487 378.042 9.5553C378.069 9.47793 378.091 9.39145 378.127 9.27312Z" fill="#CFCFCF"/>
</svg>
