<svg width="555" height="16" viewBox="0 0 555 16" fill="none" xmlns="http://www.w3.org/2000/svg">
<rect x="22" y="7" width="533" height="2" rx="1" fill="#F2F2F2"/>
<path d="M8.12691 9.27312C7.70479 9.27312 7.31821 9.27312 6.93609 9.27312C5.48311 9.27767 4.03457 9.28678 2.58159 9.28678C2.41719 9.28678 2.3061 9.33684 2.20391 9.46883C1.82178 9.96035 1.41743 10.4337 1.03975 10.9343C0.870899 11.1619 0.684278 11.2802 0.404346 11.2392C0.288818 11.221 0.173291 11.2347 0.0266602 11.2347C0.0622071 11.1073 0.0844239 11.0162 0.119971 10.9252C0.435449 10.0377 0.755371 9.15024 1.05752 8.25821C1.1064 8.11712 1.1064 7.92597 1.05752 7.78488C0.746485 6.88375 0.413233 5.98716 0.0888672 5.08603C0.0577637 5.0041 0.0311035 4.91763 0 4.8175C0.417676 4.77654 0.777588 4.73558 1.06196 5.14974C1.41299 5.66403 1.83511 6.1237 2.23945 6.60157C2.29722 6.66984 2.4083 6.73356 2.49273 6.73356C4.32783 6.73811 6.16294 6.73356 8.00249 6.72901C8.02915 6.72901 8.06026 6.7199 8.12246 6.71535C8.0647 6.54241 8.01582 6.38312 7.95806 6.22382C7.27822 4.33508 6.59395 2.44633 5.91411 0.557588C5.7586 0.129776 5.83858 0.00689411 6.28736 0.00689411C6.56284 0.00689411 6.83833 -0.0113107 7.10938 0.0114453C7.23379 0.0205477 7.39375 0.0797132 7.46929 0.175288C8.33574 1.22206 9.18887 2.27794 10.042 3.33382C10.9307 4.43065 11.8149 5.52749 12.708 6.61523C12.7569 6.67439 12.8769 6.6926 12.9613 6.6926C14.3387 6.69715 15.7162 6.6926 17.0936 6.69715C17.2891 6.69715 17.4935 6.72901 17.6801 6.78817C18.3022 6.97477 18.9243 7.17047 19.5419 7.37528C19.9596 7.51181 20.1284 7.94417 19.8929 8.29007C19.8085 8.4175 19.653 8.52218 19.5108 8.57224C18.8754 8.7907 18.2311 8.99095 17.5868 9.18665C17.4491 9.22761 17.298 9.24582 17.1514 9.25037C15.7606 9.25947 14.3698 9.26857 12.9746 9.26402C12.8191 9.26402 12.7302 9.32319 12.6414 9.43697C10.9529 11.5533 9.25996 13.6696 7.57149 15.7859C7.45152 15.9361 7.32266 16.0043 7.13604 15.9998C6.84722 15.9907 6.5584 15.9998 6.26958 15.9998C5.92744 15.9952 5.82525 15.8496 5.93633 15.5265C6.63838 13.5376 7.34043 11.5487 8.04248 9.5553C8.06914 9.47793 8.09136 9.39145 8.12691 9.27312Z" fill="#CFCFCF"/>
</svg>
