<svg width="555" height="16" viewBox="0 0 555 16" fill="none" xmlns="http://www.w3.org/2000/svg">
<rect y="7" width="534" height="2" rx="1" fill="#F2F2F2"/>
<path d="M543.127 9.27312C542.705 9.27312 542.318 9.27312 541.936 9.27312C540.483 9.27767 539.035 9.28678 537.582 9.28678C537.417 9.28678 537.306 9.33684 537.204 9.46883C536.822 9.96035 536.417 10.4337 536.04 10.9343C535.871 11.1619 535.684 11.2802 535.404 11.2392C535.289 11.221 535.173 11.2347 535.027 11.2347C535.062 11.1073 535.084 11.0162 535.12 10.9252C535.435 10.0377 535.755 9.15024 536.058 8.25821C536.106 8.11712 536.106 7.92597 536.058 7.78488C535.746 6.88375 535.413 5.98716 535.089 5.08603C535.058 5.0041 535.031 4.91763 535 4.8175C535.418 4.77654 535.778 4.73558 536.062 5.14974C536.413 5.66403 536.835 6.1237 537.239 6.60157C537.297 6.66984 537.408 6.73356 537.493 6.73356C539.328 6.73811 541.163 6.73356 543.002 6.72901C543.029 6.72901 543.06 6.7199 543.122 6.71535C543.065 6.54241 543.016 6.38312 542.958 6.22382C542.278 4.33508 541.594 2.44633 540.914 0.557588C540.759 0.129776 540.839 0.00689411 541.287 0.00689411C541.563 0.00689411 541.838 -0.0113107 542.109 0.0114453C542.234 0.0205477 542.394 0.0797132 542.469 0.175288C543.336 1.22206 544.189 2.27794 545.042 3.33382C545.931 4.43065 546.815 5.52749 547.708 6.61523C547.757 6.67439 547.877 6.6926 547.961 6.6926C549.339 6.69715 550.716 6.6926 552.094 6.69715C552.289 6.69715 552.494 6.72901 552.68 6.78817C553.302 6.97477 553.924 7.17047 554.542 7.37528C554.96 7.51181 555.128 7.94417 554.893 8.29007C554.809 8.4175 554.653 8.52218 554.511 8.57224C553.875 8.7907 553.231 8.99095 552.587 9.18665C552.449 9.22761 552.298 9.24582 552.151 9.25037C550.761 9.25947 549.37 9.26857 547.975 9.26402C547.819 9.26402 547.73 9.32319 547.641 9.43697C545.953 11.5533 544.26 13.6696 542.571 15.7859C542.452 15.9361 542.323 16.0043 542.136 15.9998C541.847 15.9907 541.558 15.9998 541.27 15.9998C540.927 15.9952 540.825 15.8496 540.936 15.5265C541.638 13.5376 542.34 11.5487 543.042 9.5553C543.069 9.47793 543.091 9.39145 543.127 9.27312Z" fill="#CFCFCF"/>
</svg>
