<svg width="595" height="80" viewBox="0 0 595 80" fill="none" xmlns="http://www.w3.org/2000/svg">
<rect width="595" height="80" fill="#F2F2F2"/>
<path fill-rule="evenodd" clip-rule="evenodd" d="M586.355 0C589.759 2.64879 592.692 6.00955 595 9.90213V80H399.1C398.831 75.2671 399.352 70.4957 400.655 65.9453C402.63 59.0499 406.316 52.9603 411.265 48.4193C416.213 43.8782 422.21 41.0822 428.523 40.3722C434.836 39.6622 441.193 41.069 446.817 44.421C447.383 43.0543 448.02 41.7274 448.724 40.4475C451.723 35.0102 455.894 30.5459 460.837 27.4833C465.779 24.4207 471.326 22.8628 476.946 22.9592C476.479 14.9768 477.959 7.03424 481.182 0H586.355Z" fill="#E3E3E3"/>
<path d="M322.054 38.4404C322.341 37.1623 322.486 35.847 322.486 34.5263C322.486 25.7747 316.216 18.6793 308.482 18.6793C306.993 18.6785 305.513 18.9476 304.096 19.4768C302.707 15.4598 300.319 12.0088 297.235 9.55967C294.151 7.11053 290.508 5.77305 286.767 5.71613C283.026 5.65921 279.354 6.88539 276.215 9.23984C273.076 11.5943 270.61 14.9714 269.13 18.9448C267.336 17.8221 265.327 17.2358 263.287 17.2391C256.607 17.2391 251.192 23.3659 251.192 30.9252C251.195 32.5819 251.464 34.2236 251.985 35.7667C251.788 36.0239 251.601 36.2904 251.421 36.5652C250.535 36.1719 249.595 35.9698 248.646 35.969C247.65 35.943 246.66 36.1473 245.733 36.57C244.807 36.9927 243.962 37.6253 243.25 38.4305C242.538 39.2357 241.972 40.1973 241.585 41.259C241.199 42.3206 241 43.4608 241 44.6126C241 45.7645 241.199 46.9047 241.585 47.9663C241.972 49.0279 242.538 49.9896 243.25 50.7948C243.962 51.6 244.807 52.2326 245.733 52.6553C246.66 53.0779 247.65 53.2823 248.646 53.2563C249.878 53.2575 251.092 52.9187 252.188 52.2682C253.623 54.0194 255.457 55.2652 257.479 55.8616C259.501 56.4579 261.628 56.3804 263.613 55.6381C264.125 57.2035 265.039 58.5503 266.232 59.498C267.425 60.4457 268.841 60.9488 270.288 60.94C270.991 60.9403 271.691 60.8223 272.364 60.5897C275.273 63.1651 278.761 64.7196 282.412 65.0679C286.063 65.4163 289.724 64.5439 292.958 62.5546C293.803 63.5032 294.836 64.1972 295.966 64.5754C297.097 64.9536 298.291 65.0045 299.443 64.7235C300.595 64.4425 301.669 63.8383 302.571 62.9641C303.473 62.0899 304.176 60.9725 304.616 59.7104C305.642 59.9694 306.688 60.1007 307.737 60.1023C309.699 60.1091 311.642 59.6529 313.447 58.7615C315.252 57.87 316.88 56.5622 318.233 54.9179C318.957 55.1725 319.711 55.3015 320.468 55.3005C322.311 55.3509 324.104 54.5993 325.491 53.1943C326.877 51.7894 327.758 49.8336 327.957 47.7141C328.156 45.5946 327.66 43.4658 326.566 41.7492C325.473 40.0325 323.862 38.8531 322.052 38.4444L322.054 38.4404Z" fill="#EDEDED"/>
</svg>
