<svg width="595" height="70" viewBox="0 0 595 70" fill="none" xmlns="http://www.w3.org/2000/svg">
<rect width="595" height="70" fill="#1A1C32"/>
<path fill-rule="evenodd" clip-rule="evenodd" d="M586.355 0C589.759 2.31769 592.692 5.25836 595 8.66436V70H399.1C398.831 65.8587 399.352 61.6837 400.655 57.7021C402.63 51.6687 406.316 46.3403 411.265 42.3669C416.213 38.3935 422.21 35.9469 428.523 35.3257C434.836 34.7045 441.193 35.9354 446.817 38.8683C447.383 37.6725 448.02 36.5115 448.724 35.3916C451.723 30.634 455.894 26.7276 460.837 24.0479C465.779 21.3681 471.326 20.005 476.946 20.0893C476.479 13.1047 477.959 6.15496 481.182 0L586.355 0Z" fill="#24263E"/>
<path d="M322.054 33.6354C322.341 32.517 322.486 31.3661 322.486 30.2106C322.486 22.5529 316.216 16.3444 308.482 16.3444C306.993 16.3438 305.513 16.5792 304.096 17.0423C302.707 13.5274 300.319 10.5078 297.235 8.36476C294.151 6.22176 290.508 5.05147 286.767 5.00166C283.026 4.95185 279.354 6.02476 276.215 8.08491C273.076 10.1451 270.61 13.1 269.13 16.5768C267.336 15.5944 265.327 15.0813 263.287 15.0842C256.607 15.0842 251.192 20.4452 251.192 27.0596C251.195 28.5092 251.464 29.9457 251.985 31.2959C251.788 31.5209 251.601 31.7541 251.421 31.9946C250.535 31.6504 249.595 31.4736 248.646 31.4729C247.65 31.4502 246.66 31.629 245.733 31.9988C244.807 32.3687 243.962 32.9222 243.25 33.6267C242.538 34.3313 241.972 35.1727 241.585 36.1017C241.199 37.0306 241 38.0283 241 39.0361C241 40.044 241.199 41.0416 241.585 41.9706C241.972 42.8995 242.538 43.741 243.25 44.4455C243.962 45.1501 244.807 45.7035 245.733 46.0734C246.66 46.4433 247.65 46.6221 248.646 46.5993C249.878 46.6003 251.092 46.3039 252.188 45.7347C253.623 47.2671 255.457 48.3571 257.479 48.8789C259.501 49.4007 261.628 49.3329 263.613 48.6834C264.125 50.0531 265.039 51.2316 266.232 52.0608C267.425 52.89 268.841 53.3303 270.288 53.3226C270.991 53.3228 271.691 53.2196 272.364 53.0161C275.273 55.2695 278.761 56.6297 282.412 56.9345C286.063 57.2393 289.724 56.476 292.958 54.7354C293.803 55.5654 294.836 56.1726 295.966 56.5035C297.097 56.8345 298.291 56.879 299.443 56.6331C300.595 56.3872 301.669 55.8585 302.571 55.0936C303.473 54.3287 304.176 53.351 304.616 52.2467C305.642 52.4732 306.688 52.5882 307.737 52.5896C309.699 52.5955 311.642 52.1963 313.447 51.4163C315.252 50.6363 316.88 49.492 318.233 48.0532C318.957 48.276 319.711 48.3888 320.468 48.388C322.311 48.4321 324.104 47.7744 325.491 46.5451C326.877 45.3158 327.758 43.6045 327.957 41.7499C328.156 39.8953 327.66 38.0326 326.566 36.5306C325.473 35.0285 323.862 33.9965 322.052 33.6389L322.054 33.6354Z" fill="#24263E"/>
</svg>
