<svg width="55" height="35" viewBox="0 0 55 35" fill="none" xmlns="http://www.w3.org/2000/svg">
<path fill-rule="evenodd" clip-rule="evenodd" d="M14.9478 13.7666C14.9478 14.2333 14.0136 14.1167 13.4297 14.1167C12.2619 14.1167 2.9195 14.1167 2.80272 14.1167C2.68594 14.2333 2.80272 14.35 2.80272 14.35C3.15306 14.9333 3.62018 15.6333 4.32086 15.9833C4.90476 16.3333 5.13832 16.2167 5.839 16.2167C8.7585 16.2167 11.7948 16.2167 14.7143 16.2167C15.2982 16.2167 16.2324 16.1 16.2324 16.5667C16.2324 16.9167 15.5317 16.8 15.0646 16.8H5.2551C5.2551 17.0333 5.839 17.7333 5.95578 17.85C6.77324 18.6667 7.24036 18.9 8.52494 18.9H15.8821C16.2324 18.9 17.517 18.7833 17.517 19.1333C17.517 19.4833 17.0499 19.4833 16.5828 19.4833H7.94104C7.94104 19.7167 8.29138 20.3 8.52494 20.4166C8.7585 20.65 8.64172 20.65 8.99205 20.8833C9.45917 21.2333 10.0431 21.5833 10.7438 21.5833H20.0861C20.5533 21.5833 21.1372 21.4667 21.4875 21.2333C22.5385 20.7667 23.0056 20.3 23.7063 19.25C23.8231 19.0167 23.8231 18.9 23.9399 18.6666C23.7063 18.55 23.4728 18.55 23.356 18.4333C22.1882 17.85 21.0204 17.15 19.9694 16.3333C19.8526 16.45 19.8526 16.45 19.7358 16.3333C19.3855 15.9833 18.568 15.05 18.2177 14.5833C17.7506 14 17.517 13.4167 17.2834 12.7167C17.1667 12.3667 16.9331 11.6667 16.9331 11.3167H0C0 11.6667 0.70068 12.3666 0.93424 12.6C1.1678 12.95 1.7517 13.4167 2.21882 13.5333C2.56916 13.65 12.6122 13.5333 14.1304 13.5333C14.3639 13.5333 14.9478 13.5333 14.9478 13.7666Z" fill="white"/>
<path fill-rule="evenodd" clip-rule="evenodd" d="M30.1292 18.9C30.246 19.6 30.9467 20.4167 31.5306 20.8834C32.1145 21.35 33.0487 21.8167 33.9829 21.8167H43.3253C44.4931 21.8167 45.4274 20.8834 46.0113 20.0667C46.1281 19.95 46.2448 19.8334 46.2448 19.6H37.3696C36.9024 19.6 36.5521 19.7167 36.4353 19.25C36.6689 18.9 37.3696 19.0167 38.0702 19.0167H45.4274C46.712 19.0167 47.1791 18.7834 48.1133 17.9667C48.2301 17.85 48.814 17.15 48.814 16.9167H39.0045C38.5374 16.9167 37.8367 17.0334 37.8367 16.5667C37.8367 16.2167 38.8877 16.3334 39.3548 16.3334H48.2301C49.3979 16.3334 49.3979 16.45 50.3321 15.75C50.6825 15.5167 51.4999 14.35 51.3832 14.2334C51.3832 14.1167 49.865 14.2334 49.6315 14.2334H40.7562C40.1723 14.2334 39.238 14.35 39.238 13.8834C39.238 13.5334 39.7052 13.65 40.0555 13.65C41.4569 13.65 51.6167 13.65 51.9671 13.65C52.9013 13.4167 54.0691 12.0167 54.1859 11.55H37.2528C37.136 12.3667 36.4353 14.1167 35.9682 14.8167C35.8514 15.05 35.7346 15.1667 35.6179 15.2834C35.5011 15.4 35.5011 15.4 35.3843 15.5167C35.1507 15.8667 34.5668 16.3334 34.2165 16.6834C34.0997 16.8 33.8662 16.9167 33.7494 17.0334C33.5158 17.15 33.399 17.2667 33.2823 17.3834C32.6984 17.85 31.6474 18.4334 30.9467 18.6667C30.5963 18.6667 30.3628 18.7834 30.1292 18.9Z" fill="white"/>
<path fill-rule="evenodd" clip-rule="evenodd" d="M35.1508 34.8833H38.7709C38.7709 34.7666 39.0045 34.4166 39.0045 34.3C39.1213 34.0666 39.2381 33.8333 39.2381 33.7166H42.8582C42.8582 34.1833 42.975 34.5333 42.975 34.8833H46.3616L45.5442 30.8C45.4274 30.3333 45.3106 29.8666 45.3106 29.4C45.1938 28.4666 44.9603 27.5333 44.7267 26.7166L44.1428 23.9166H40.6394C40.5226 23.9166 40.5226 24.0333 40.4059 24.15C40.4059 24.2666 40.2891 24.3833 40.2891 24.5C40.1723 24.7333 40.0555 24.9666 39.9387 25.2C39.822 25.4333 39.7052 25.6666 39.5884 25.9C39.4716 26.0166 39.4716 26.1333 39.4716 26.25L37.9535 29.4C37.8367 29.6333 37.7199 29.8666 37.6031 30.1L36.9025 31.5C36.7857 31.6166 36.7857 31.7333 36.7857 31.85L35.6179 34.3C35.2675 34.4166 35.2675 34.65 35.1508 34.8833ZM41.8072 27.4166L42.0408 29.4C42.0408 29.75 42.1575 29.9833 42.1575 30.3333C42.1575 30.5666 42.2743 31.0333 42.2743 31.3833H40.0555L41.2233 28.35C41.5737 28.1166 41.6904 27.5333 41.8072 27.4166Z" fill="white"/>
<path fill-rule="evenodd" clip-rule="evenodd" d="M13.5465 34.8834H17.1667L17.6338 33.7167H21.1372C21.1372 34.1834 21.254 34.5334 21.3708 34.8834H24.7574L24.5238 33.4834C24.407 33.0167 24.2903 32.55 24.2903 32.0834C24.1735 31.15 23.9399 30.2167 23.7064 29.2834L22.6553 23.8H19.1519C19.0352 23.8 19.0352 23.9167 18.9184 24.0334L18.4513 25.0834C18.2177 25.55 17.9841 26.0167 17.7506 26.4834C17.2835 27.4167 16.8163 28.35 16.3492 29.2834C15.8821 30.2167 15.415 31.15 14.9479 32.0834C14.8311 32.3167 14.7143 32.5501 14.5975 32.7834L14.2472 33.4834C14.0136 33.9501 13.7801 34.4167 13.5465 34.8834ZM20.203 27.4167C20.203 27.7667 20.6701 31.2667 20.7869 31.3834H18.568C18.6848 31.0334 19.7358 28.5834 19.9694 27.8834C20.0862 27.65 20.0862 27.5334 20.203 27.4167Z" fill="white"/>
<path fill-rule="evenodd" clip-rule="evenodd" d="M26.1588 26.7166H29.195C29.195 27.0666 28.3776 32.3166 28.2608 32.9C28.144 33.25 27.9105 34.65 27.9105 35H31.5306C31.5306 34.5333 31.7642 33.4833 31.7642 32.9L32.3481 28.8166C32.4649 28.35 32.5816 27.0666 32.5816 26.7166H35.5011C35.6179 26.7166 35.6179 26.6 35.6179 26.4833L36.085 23.9166H26.3923L26.1588 25.3166C26.2755 25.6666 26.1588 26.3666 26.1588 26.7166Z" fill="white"/>
<path fill-rule="evenodd" clip-rule="evenodd" d="M7.70746 34.8834H11.3276C11.3276 34.65 11.5612 33.8334 11.5612 33.4834L13.4297 23.8H9.8095C9.8095 24.0334 9.69272 24.2667 9.69272 24.5L7.82424 34.0667C7.82424 34.4167 7.70746 34.7667 7.70746 34.8834Z" fill="white"/>
<path fill-rule="evenodd" clip-rule="evenodd" d="M18.5679 8.28328H22.3049C22.5385 8.28328 22.4217 7.81662 22.5384 7.11662C22.8888 4.89995 23.3559 4.43328 23.4727 3.84995C22.6552 3.38328 22.1881 3.26662 21.4874 2.68328C21.3707 2.56662 21.3707 2.56662 21.1371 2.44995C20.7868 2.68328 19.9693 3.84995 19.7357 4.19995C19.5022 4.78328 19.2686 4.89995 19.0351 5.59995C18.8015 6.41662 18.5679 7.46662 18.5679 8.28328Z" fill="white"/>
<path fill-rule="evenodd" clip-rule="evenodd" d="M21.0203 14.7C21.1371 14.7 21.3707 14.4667 21.6042 14.35C21.8378 14.2334 21.9546 14.1167 22.1881 14C22.8888 13.5334 23.0056 13.65 23.4727 13.3C23.3559 12.95 23.2391 12.7167 23.1223 12.3667C22.772 11.3167 22.4217 10.15 22.4217 8.8667H18.5679C18.5679 10.6167 19.5022 13.0667 20.7868 14.35C20.9035 14.4667 21.0203 14.4667 21.0203 14.7Z" fill="white"/>
<path fill-rule="evenodd" clip-rule="evenodd" d="M30.7132 3.84995C30.7132 3.96662 30.9468 4.54995 31.0635 4.78328C31.4139 5.83328 31.6474 7.11662 31.6474 8.28328H35.3844C35.618 8.28328 35.5012 7.81662 35.5012 7.46662C35.3844 6.64995 35.1508 5.71662 34.8005 5.01662C34.4502 4.31662 34.0998 3.61662 33.6327 3.03328L33.0488 2.44995L31.9978 3.14995C31.6474 3.38328 31.0635 3.84995 30.7132 3.84995Z" fill="white"/>
<path fill-rule="evenodd" clip-rule="evenodd" d="M31.7641 8.98333C31.7641 10.0333 31.5306 11.3167 31.1802 12.25C31.0635 12.6 30.9467 12.8333 30.8299 13.1833C31.7641 13.65 31.6474 13.5333 32.5816 14.2333C32.6984 14.35 32.9319 14.5833 33.1655 14.5833C33.1655 14.35 33.5158 14.2333 33.6326 14C34.5669 12.7167 35.2675 11.4333 35.6179 9.68333C35.6179 9.45 35.7347 8.98333 35.7347 8.75H31.8809V8.98333H31.7641Z" fill="white"/>
<path fill-rule="evenodd" clip-rule="evenodd" d="M23.0057 8.05004V8.28337H26.7426V4.66671C25.9252 4.66671 25.2245 4.55004 24.5238 4.31671C24.2903 4.31671 24.0567 4.08337 23.8231 4.08337C23.5896 4.55004 23.356 5.36671 23.1225 5.83337C23.1225 6.53337 23.0057 7.35004 23.0057 8.05004Z" fill="white"/>
<path fill-rule="evenodd" clip-rule="evenodd" d="M23.0057 9.10003C23.0057 9.80003 23.1225 10.6167 23.2392 11.2C23.356 11.6667 23.7064 12.6 23.9399 12.95C24.1735 12.95 24.407 12.8334 24.5238 12.7167C25.4581 12.4834 25.8084 12.4834 26.7426 12.3667V8.8667H23.0057V9.10003Z" fill="white"/>
<path fill-rule="evenodd" clip-rule="evenodd" d="M27.3265 4.66671V8.28337H31.0634C31.0634 7.35004 30.9467 6.76671 30.7131 5.83337C30.5963 5.48337 30.4795 5.25004 30.4795 4.90004C30.3628 4.66671 30.246 4.31671 30.1292 4.08337L28.8446 4.43337C28.3775 4.55004 27.9104 4.66671 27.3265 4.66671Z" fill="white"/>
<path fill-rule="evenodd" clip-rule="evenodd" d="M27.3266 12.4834C27.5601 12.6 27.7937 12.4834 28.0272 12.6C28.2608 12.6 28.4944 12.7167 28.7279 12.7167C29.195 12.8334 29.5454 12.95 30.0125 13.0667C30.2461 12.7167 30.5964 11.7834 30.5964 11.3167C30.83 10.5 30.9467 9.9167 30.9467 8.8667H27.2098V12.4834H27.3266Z" fill="white"/>
<path fill-rule="evenodd" clip-rule="evenodd" d="M30.4795 3.38333C31.0634 3.15 32.2312 2.56667 32.5816 1.98333C32.348 1.63333 31.0634 0.933333 30.5963 0.7C30.246 0.583333 29.8956 0.35 29.4285 0.233333C29.0782 0.116667 28.2607 0 28.0272 0C28.0272 0 29.0782 1.16667 29.4285 1.51667C29.8956 2.33333 30.0124 2.68333 30.4795 3.38333Z" fill="white"/>
<path fill-rule="evenodd" clip-rule="evenodd" d="M21.6043 2.09994C21.9546 2.56661 23.1224 3.14994 23.7063 3.49994C23.7063 3.26661 23.8231 3.14994 23.9399 3.03328C24.2902 2.33328 24.6406 1.98328 25.1077 1.39994L26.1587 0.233276C25.8084 0.233276 25.1077 0.349943 24.7574 0.46661C24.0567 0.583276 23.0057 1.04994 22.5385 1.39994C22.305 1.51661 21.7211 1.86661 21.6043 2.09994Z" fill="white"/>
<path fill-rule="evenodd" clip-rule="evenodd" d="M21.6043 15.0501C21.7211 15.0501 21.8379 15.2834 22.0714 15.4001L22.5385 15.7501C23.4728 16.3334 24.2902 16.6834 25.458 16.9167C25.458 16.9167 26.0419 17.0334 26.1587 17.0334C26.2755 16.9167 26.0419 16.9167 25.8084 16.6834C25.3413 16.2167 24.9909 15.8667 24.6406 15.2834L24.1735 14.7001C23.9399 14.3501 23.8231 14.1167 23.5896 13.7667C23.1224 13.8834 22.305 14.3501 21.9546 14.7001C21.8379 14.8167 21.8379 14.8167 21.7211 14.9334C21.7211 14.9334 21.6043 14.9334 21.6043 15.0501Z" fill="white"/>
<path fill-rule="evenodd" clip-rule="evenodd" d="M32.5816 15.0501C32.4648 14.9334 32.4648 14.9334 32.348 14.8167C32.2312 14.8167 32.2312 14.7001 32.1144 14.7001C31.7641 14.4667 30.9466 13.8834 30.4795 13.7667C30.246 14.1167 30.1292 14.3501 29.8956 14.7001C29.5453 15.2834 29.0782 15.7501 28.7278 16.2167C28.611 16.3334 28.611 16.3334 28.4943 16.4501C27.9104 17.0334 27.6768 17.0334 28.2607 17.0334C29.1949 16.9167 29.8956 16.6834 30.7131 16.3334C30.9466 16.2167 31.0634 16.2167 31.1802 16.1001C31.5305 15.7501 32.348 15.2834 32.5816 15.0501Z" fill="white"/>
<path fill-rule="evenodd" clip-rule="evenodd" d="M24.1734 13.5333C24.2902 14.1166 25.2244 15.1666 25.5748 15.6333C25.6915 15.75 25.8083 15.8666 25.9251 15.9833C26.1587 16.2166 26.509 16.5666 26.7426 16.6833C26.7426 15.5166 26.7426 14.4666 26.7426 13.3C26.7426 12.95 26.6258 13.0666 26.2754 13.0666C26.0419 13.0666 25.6915 13.0666 25.458 13.1833C25.1076 13.3 24.5237 13.3 24.1734 13.5333Z" fill="white"/>
<path fill-rule="evenodd" clip-rule="evenodd" d="M24.1734 3.61668C24.5237 3.61668 25.2244 4.08334 26.7426 4.08334V0.466675C26.509 0.583341 25.5748 1.51667 25.3412 1.86667C25.1076 2.21668 24.2902 3.26667 24.1734 3.61668Z" fill="white"/>
<path fill-rule="evenodd" clip-rule="evenodd" d="M27.3265 16.6833C27.9104 16.5666 29.7789 14 29.8956 13.5333C29.3117 13.4166 28.7278 13.1833 27.9104 13.0666C27.4433 13.0666 27.4433 12.95 27.4433 13.3C27.3265 14.4666 27.3265 15.5166 27.3265 16.6833Z" fill="white"/>
<path fill-rule="evenodd" clip-rule="evenodd" d="M27.3265 4.08331C28.9614 4.08331 29.5453 3.61664 29.8956 3.61664C29.8956 3.38331 29.5453 2.91664 29.4285 2.68331C28.8446 1.86664 28.7278 1.74998 28.1439 1.04998L27.3265 0.349976V4.08331Z" fill="white"/>
</svg>
