<svg width="175" height="50" viewBox="0 0 175 50" fill="none" xmlns="http://www.w3.org/2000/svg">
<path fill-rule="evenodd" clip-rule="evenodd" d="M25.0902 19.7348L24.9706 19.8546C24.9706 19.8546 24.9706 19.8546 24.9108 19.8546C24.8509 19.8546 24.7911 19.9146 24.7313 19.9146L22.0992 20.993C21.2019 21.2925 19.7662 21.8917 18.9287 21.1128C17.7323 20.6934 16.4163 19.7348 14.7413 19.6749C13.9636 19.615 13.0663 20.0943 13.0663 20.8132C13.0065 21.5921 13.844 21.9516 14.3824 22.2511C14.9806 22.5507 15.6386 22.8503 16.2966 23.1498C17.4332 23.689 17.493 23.6291 17.7921 24.408C18.1511 25.4265 18.9885 27.7631 19.1082 28.7217C19.168 28.7816 20.0653 32.3164 20.3644 32.6759C20.5439 32.9155 21.3215 33.0953 21.7403 33.0953C21.8599 32.5561 21.5608 29.2609 21.501 28.5419C21.3814 28.3023 21.3814 28.0626 21.4412 27.7032C21.3814 27.2838 21.1421 25.9058 21.3814 25.6062C21.6805 25.4864 22.159 25.9657 22.3983 26.0256C22.6974 26.1454 23.176 25.7261 23.3554 25.5463C23.7144 25.3067 24.9108 24.4679 25.0902 24.2282C24.7911 23.9287 23.4751 23.4494 23.2956 23.1498C23.4751 22.8503 26.0473 21.2925 26.3464 21.2326C26.7054 20.8132 28.2607 20.274 28.3803 19.7348C28.1411 19.5551 27.1839 19.0159 26.825 19.0758C26.2268 19.1956 25.4491 19.7348 25.0902 19.7348Z" fill="#FCFBFC"/>
<path fill-rule="evenodd" clip-rule="evenodd" d="M29.5767 4.51709C29.5169 3.43867 29.2776 2.83955 28.7392 2.30034C28.3803 1.94086 27.4232 1.162 26.6455 1.28183C26.4661 1.162 21.3215 1.162 20.843 1.28183C19.3475 1.58139 18.2109 2.77964 18.2109 4.51709V9.19025V10.5682C22.0992 10.5682 26.5857 10.3885 29.4571 10.3286C29.5767 10.3286 29.5767 7.21315 29.5767 4.51709ZM18.9287 21.1128C19.7662 21.8917 21.2019 21.3525 22.0992 20.993L24.7313 19.9745C24.7911 19.9745 24.8509 19.9146 24.9107 19.9146C24.9107 19.9146 24.9107 19.9146 24.9706 19.9146L25.0902 19.7947C24.5518 18.896 21.1421 17.8775 21.9796 15.7806C22.2188 15.1216 22.7572 14.6423 23.3554 14.2229C23.6545 14.0432 24.0134 13.8634 24.3125 13.6837C24.8509 13.3841 25.8081 13.0246 26.3464 12.785C27.3634 12.3656 28.6196 11.9462 29.6964 11.7665C30.7731 11.5268 31.7901 11.2872 32.9267 11.4669C33.2258 11.5268 33.2856 11.5867 33.5847 11.5867C33.4052 11.2872 32.9865 11.1074 32.5079 10.9277C31.491 10.5682 31.0722 10.6881 31.0124 10.3286C30.9526 10.029 30.9526 8.4713 30.8928 4.21753C30.8928 3.97788 30.9526 3.5585 30.7731 3.37876C30.833 2.5999 30.0553 1.52148 29.6964 1.162C29.3374 0.802529 29.158 0.682705 28.7392 0.443055C28.2607 0.203406 28.0214 0.203406 27.483 0.0236691C26.167 0.0236691 24.8509 0.0236691 23.5349 0.0236691C22.3983 0.0236691 20.7233 -0.0961556 19.7064 0.203406C18.7493 0.502968 17.9118 1.22192 17.493 1.94086C16.8948 2.95937 16.8948 4.03779 16.8948 5.41578C16.8948 6.31446 17.0145 10.029 16.8948 10.6281C14.9806 10.8079 14.0833 11.407 13.2458 12.6652C12.3485 13.9832 12.5878 15.9004 12.5878 17.6978C12.5878 18.4767 12.6476 28.6018 12.5878 29.1411C12.8869 29.3208 12.827 29.4406 12.5878 29.6803C12.7074 31.2979 12.5878 33.0953 12.5878 34.7129C12.5878 36.5103 12.5279 37.7085 13.4252 38.9667C14.9806 41.1235 16.7752 40.824 19.168 40.824C19.826 40.824 21.1421 40.8839 21.7403 40.824C21.5608 40.7041 21.501 40.7041 21.2617 40.6442C20.9028 40.3447 20.7831 40.2847 20.7233 39.7455C20.6635 38.727 21.0822 37.1693 22.2188 36.7499C23.3554 36.2706 25.6884 36.6301 26.4063 35.0125C26.7652 34.2336 26.9446 33.3948 26.6455 32.4961C25.9875 30.3992 22.5179 30.3393 21.6206 28.6018C21.3813 28.6018 21.6206 28.6018 21.501 28.6618C21.5608 29.3807 21.8599 32.6759 21.7403 33.2151C21.3215 33.2151 20.5439 33.0953 20.3644 32.7957C20.0653 32.4362 19.168 28.9014 19.1082 28.8415C18.9885 27.8829 18.1511 25.5463 17.7921 24.5278C17.493 23.7489 17.4332 23.8089 16.2966 23.2696C15.6386 22.9701 14.9806 22.6705 14.3824 22.371C13.844 22.0714 13.0663 21.7119 13.0663 20.9331C13.1261 20.2141 13.9636 19.7947 14.7413 19.7947C16.3564 19.7348 17.7323 20.6934 18.9287 21.1128Z" fill="#CB3CE4"/>
<path fill-rule="evenodd" clip-rule="evenodd" d="M12.528 29.6204C12.7672 29.4407 12.8271 29.2609 12.528 29.0812H12.2887C8.75927 30.0398 4.75131 31.5975 2.59778 33.5746C1.34156 34.7728 0.264791 36.2707 0.0255093 38.068C-0.213772 40.165 1.28174 41.9024 2.3585 42.861C6.36646 46.5157 15.0404 48.9122 20.4841 49.691C21.3814 49.8108 22.817 50.0505 23.7742 49.9906C23.4153 49.8708 21.3814 49.691 20.7832 49.5712C17.9118 49.0919 15.1002 48.4928 12.3485 47.5342C10.6137 46.935 8.93874 46.276 7.38341 45.5571C5.82808 44.8381 4.03347 43.8196 3.07634 42.9209C2.47814 42.3218 1.93976 41.9623 1.40138 41.1236C0.922814 40.4046 0.444251 39.6257 0.504072 38.4874C0.683533 35.7914 2.83706 33.7543 4.9906 32.4962C5.70844 32.0768 6.4861 31.6574 7.32359 31.3578C8.10125 30.9984 9.05838 30.6988 9.83604 30.3992C10.7333 30.0997 11.5708 29.8001 12.528 29.6204Z" fill="#28E5F8"/>
<path fill-rule="evenodd" clip-rule="evenodd" d="M21.4412 27.7032C21.8001 27.4036 21.1421 27.4635 22.8769 26.2054L24.1929 25.3067C24.3126 25.1869 24.492 25.0671 24.6715 25.0071C25.2697 24.5878 25.8679 24.1085 26.2268 23.5692C26.4063 23.3296 26.5857 22.9102 26.6455 22.4908C26.6455 22.0714 26.5259 21.4723 26.3464 21.2327C26.0473 21.2926 23.5349 22.8503 23.2956 23.1499C23.4751 23.4494 24.7911 23.9287 25.0902 24.2283C24.9108 24.4679 23.7143 25.3067 23.3554 25.5464C23.1161 25.7261 22.6376 26.1455 22.3983 26.0257C22.159 25.9058 21.7403 25.4864 21.3814 25.6063C21.1421 25.9058 21.3814 27.2838 21.4412 27.7032Z" fill="#E23BF3"/>
<path fill-rule="evenodd" clip-rule="evenodd" d="M35.5588 25.6662C36.3963 25.786 37.2936 26.3252 37.1142 27.2239C37.0543 27.7032 36.7552 27.9429 36.4561 28.1226C36.2767 28.2424 35.6785 28.6019 35.499 28.6019C34.3624 29.0812 32.2687 29.2609 30.9527 29.3208C29.2179 29.4407 27.4831 29.3208 25.7483 29.3208C25.8081 29.4407 25.6885 29.3808 26.2269 29.4407C26.4662 29.4407 26.6456 29.5006 26.8251 29.5006C27.7224 29.5605 29.7563 29.6204 30.6536 29.6803C31.7303 29.6803 33.4053 29.6803 34.4223 29.5006C34.7812 29.4407 35.1999 29.2609 35.5588 29.2609C35.6785 29.0812 36.2767 29.0812 36.9347 28.6019C38.7891 27.2239 36.8151 25.1869 35.5588 25.1869C35.3196 25.3067 35.3794 25.1869 35.3196 25.4265C35.2597 25.6662 35.3196 25.6063 35.5588 25.6662Z" fill="#E839F9"/>
<path fill-rule="evenodd" clip-rule="evenodd" d="M25.0902 19.7348C25.3893 19.7348 26.2268 19.1956 26.7054 19.1357C27.0643 19.0758 28.0214 19.615 28.2607 19.7947C28.1411 20.274 26.5857 20.8132 26.2268 21.2925C26.4063 21.5322 26.5259 22.1313 26.5259 22.5507C26.5259 22.9101 26.2866 23.3894 26.1072 23.6291C25.7482 24.1683 25.15 24.6476 24.5518 25.067C24.3724 25.1868 24.2527 25.3066 24.0733 25.3666L22.7572 26.2652C21.0823 27.5234 21.6805 27.4635 21.3215 27.763C21.3215 28.1225 21.2617 28.3622 21.3814 28.6018C21.501 28.5419 21.2617 28.5419 21.501 28.5419C22.3983 30.2794 25.8679 30.3393 26.5259 32.4362C26.7652 33.3349 26.6455 34.1737 26.2866 34.9525C25.5688 36.5702 23.2358 36.2706 22.0992 36.69C20.9626 37.1094 20.5439 38.6671 20.6037 39.6856C20.6037 40.2248 20.7832 40.2847 21.1421 40.5843C21.3814 40.6442 21.4412 40.6442 21.6206 40.764L27.9616 40.8239C30.0553 40.8239 31.9097 41.0037 33.5249 40.0451C35.14 39.0865 35.3793 37.349 35.4391 35.4917C35.4391 33.9939 35.2597 30.2194 35.4391 29.141C37.473 28.8415 38.49 26.5648 36.2168 25.3666C36.0972 25.3066 35.9775 25.2467 35.8579 25.1868C35.7382 25.1868 35.7382 25.1868 35.6186 25.1269L35.3793 25.067C35.2597 24.7674 35.6784 15.6008 35.2597 13.8035C35.0204 12.785 34.482 11.8264 33.6445 11.5268C33.3454 11.5268 33.2856 11.4669 32.9865 11.407C31.7901 11.2272 30.833 11.5268 29.7562 11.7065C28.6794 11.9462 27.4232 12.3656 26.4063 12.7251C25.8081 12.9647 24.9108 13.2643 24.3724 13.6237C24.0733 13.8035 23.7144 13.9832 23.4152 14.163C22.817 14.5823 22.2787 15.0017 22.0394 15.7207C21.2019 17.8176 24.6117 18.896 25.0902 19.7348ZM35.499 28.6617C35.4391 28.1225 35.4391 26.2053 35.499 25.6661C36.3364 25.726 37.1739 26.2652 37.1141 27.1639C37.0543 27.9428 36.0972 28.482 35.499 28.6617Z" fill="#43BDE3"/>
<path d="M49.744 29.76V34H50.512V30.432H52.904V34H53.672V29.76H49.744ZM56.9741 34.048C58.2461 34.048 59.1741 33.144 59.1741 31.88C59.1741 30.616 58.2461 29.72 56.9741 29.72C55.7021 29.72 54.7661 30.616 54.7661 31.88C54.7661 33.144 55.7021 34.048 56.9741 34.048ZM56.9741 33.376C56.1581 33.376 55.5421 32.784 55.5421 31.88C55.5421 30.976 56.1581 30.392 56.9741 30.392C57.7901 30.392 58.3981 30.976 58.3981 31.88C58.3981 32.784 57.7901 33.376 56.9741 33.376ZM60.2831 34H60.9871L63.5791 30.912V34H64.3471V29.76H63.6511L61.0511 32.848V29.76H60.2831V34ZM67.6858 34.048C68.4458 34.048 69.0778 33.728 69.4138 33.136L68.8298 32.768C68.5578 33.184 68.1418 33.376 67.6778 33.376C66.8458 33.376 66.2218 32.8 66.2218 31.88C66.2218 30.976 66.8458 30.392 67.6778 30.392C68.1418 30.392 68.5578 30.584 68.8298 31L69.4138 30.624C69.0778 30.032 68.4458 29.72 67.6858 29.72C66.3818 29.72 65.4458 30.616 65.4458 31.88C65.4458 33.144 66.3818 34.048 67.6858 34.048ZM73.4801 34H74.3841L72.6641 31.8L74.2721 29.76H73.4481L72.0721 31.552H71.1761V29.76H70.4081V34H71.1761V32.208H72.0561L73.4801 34ZM80.2258 31.8C80.6498 31.632 80.9058 31.304 80.9058 30.848C80.9058 30.152 80.3058 29.76 79.3058 29.76H77.3378V34H79.3778C80.5058 34 81.0498 33.568 81.0498 32.832C81.0498 32.296 80.7858 31.944 80.2258 31.8ZM78.0898 30.352H79.2418C79.8258 30.352 80.1378 30.552 80.1378 30.96C80.1378 31.368 79.8258 31.584 79.2418 31.584H78.0898V30.352ZM79.3218 33.408H78.0898V32.136H79.3698C80.0018 32.136 80.2818 32.344 80.2818 32.784C80.2818 33.216 79.9538 33.408 79.3218 33.408ZM84.1638 31.2L83.0198 31.192V29.76H82.2518V34L84.0358 34.008C85.1718 34.016 85.8118 33.504 85.8118 32.584C85.8118 31.712 85.2358 31.208 84.1638 31.2ZM86.4438 34H87.2118V29.76H86.4438V34ZM83.9798 33.424L83.0198 33.416V31.752L83.9798 31.768C84.6758 31.776 85.0358 32.016 85.0358 32.576C85.0358 33.144 84.6678 33.432 83.9798 33.424ZM91.8249 29.76H88.7049V34H89.4729V30.432H91.8249V29.76ZM94.2397 34.048C95.5117 34.048 96.4397 33.144 96.4397 31.88C96.4397 30.616 95.5117 29.72 94.2397 29.72C92.9677 29.72 92.0317 30.616 92.0317 31.88C92.0317 33.144 92.9677 34.048 94.2397 34.048ZM94.2397 33.376C93.4237 33.376 92.8077 32.784 92.8077 31.88C92.8077 30.976 93.4237 30.392 94.2397 30.392C95.0557 30.392 95.6637 30.976 95.6637 31.88C95.6637 32.784 95.0557 33.376 94.2397 33.376ZM101.181 33.328V29.76H97.8934L97.8294 31.192C97.7734 32.264 97.6694 33.296 97.0614 33.328H96.8374V34.984H97.5654V34H101.109V34.984H101.829V33.328H101.181ZM98.5334 31.248L98.5734 30.432H100.413V33.328H98.0374C98.4214 32.992 98.5014 32.128 98.5334 31.248ZM102.83 34H103.598V32.224H106.014V34H106.782V29.76H106.014V31.56H103.598V29.76H102.83V34ZM110.187 31.2L109.043 31.192V29.76H108.275V34L110.059 34.008C111.195 34.016 111.835 33.504 111.835 32.584C111.835 31.712 111.259 31.208 110.187 31.2ZM112.467 34H113.235V29.76H112.467V34ZM110.003 33.424L109.043 33.416V31.752L110.003 31.768C110.699 31.776 111.059 32.016 111.059 32.576C111.059 33.144 110.691 33.432 110.003 33.424ZM118.248 34L116.56 31.832L118.16 29.76H117.32L116.16 31.288L114.992 29.76H114.136L115.728 31.832L114.056 34H114.912L116.152 32.376L117.376 34H118.248ZM122.717 29.72C122.037 29.72 121.405 29.912 120.965 30.264L121.285 30.84C121.613 30.56 122.125 30.384 122.629 30.384C123.389 30.384 123.765 30.76 123.765 31.408V31.56H122.549C121.285 31.56 120.845 32.12 120.845 32.8C120.845 33.536 121.453 34.048 122.413 34.048C123.077 34.048 123.549 33.824 123.805 33.44V34H124.533V31.44C124.533 30.28 123.877 29.72 122.717 29.72ZM122.541 33.456C121.957 33.456 121.605 33.192 121.605 32.768C121.605 32.408 121.821 32.112 122.581 32.112H123.765V32.704C123.573 33.192 123.117 33.456 122.541 33.456ZM128.804 31.8C129.228 31.632 129.484 31.304 129.484 30.848C129.484 30.152 128.884 29.76 127.884 29.76H125.916V34H127.956C129.084 34 129.628 33.568 129.628 32.832C129.628 32.296 129.364 31.944 128.804 31.8ZM126.668 30.352H127.82C128.404 30.352 128.716 30.552 128.716 30.96C128.716 31.368 128.404 31.584 127.82 31.584H126.668V30.352ZM127.9 33.408H126.668V32.136H127.948C128.58 32.136 128.86 32.344 128.86 32.784C128.86 33.216 128.532 33.408 127.9 33.408ZM130.83 34H131.534L134.126 30.912V34H134.894V29.76H134.198L131.598 32.848V29.76H130.83V34ZM137.897 29.72C137.217 29.72 136.585 29.912 136.145 30.264L136.465 30.84C136.793 30.56 137.305 30.384 137.809 30.384C138.569 30.384 138.945 30.76 138.945 31.408V31.56H137.729C136.465 31.56 136.025 32.12 136.025 32.8C136.025 33.536 136.633 34.048 137.593 34.048C138.257 34.048 138.729 33.824 138.985 33.44V34H139.713V31.44C139.713 30.28 139.057 29.72 137.897 29.72ZM137.721 33.456C137.137 33.456 136.785 33.192 136.785 32.768C136.785 32.408 137.001 32.112 137.761 32.112H138.945V32.704C138.753 33.192 138.297 33.456 137.721 33.456ZM143.256 29.904C142.544 29.904 141.944 30.216 141.584 30.76C141.664 29.656 142.184 29.112 143.288 28.872L145.072 28.488L144.96 27.784L143.024 28.216C141.56 28.536 140.848 29.488 140.848 31.24C140.848 33.024 141.656 34.064 143.104 34.064C144.4 34.064 145.296 33.216 145.296 31.968C145.296 30.752 144.456 29.904 143.256 29.904ZM143.12 33.424C142.304 33.424 141.72 32.832 141.72 31.992C141.72 31.152 142.288 30.592 143.12 30.592C143.952 30.592 144.512 31.152 144.512 31.992C144.512 32.832 143.944 33.424 143.12 33.424ZM146.392 34H147.096L149.688 30.912V34H150.456V29.76H149.76L147.16 32.848V29.76H146.392V34ZM152.331 29.76L152.259 31.328C152.203 32.328 152.171 33.368 151.483 33.368C151.427 33.368 151.363 33.36 151.291 33.344L151.243 33.992C151.419 34.04 151.571 34.064 151.715 34.064C152.675 34.064 152.875 32.872 152.947 31.376L152.995 30.432H154.819V34H155.587V29.76H152.331ZM160.904 31.904C160.904 30.6 160.032 29.72 158.808 29.72C157.584 29.72 156.68 30.624 156.68 31.88C156.68 33.144 157.592 34.048 158.96 34.048C159.664 34.048 160.248 33.808 160.632 33.36L160.208 32.864C159.896 33.208 159.48 33.376 158.984 33.376C158.144 33.376 157.544 32.88 157.448 32.136H160.888C160.896 32.064 160.904 31.968 160.904 31.904ZM158.808 30.368C159.552 30.368 160.088 30.872 160.168 31.584H157.448C157.528 30.864 158.072 30.368 158.808 30.368ZM165.076 29.76H161.204V30.432H162.756V34H163.524V30.432H165.076V29.76ZM167.49 34.048C168.762 34.048 169.69 33.144 169.69 31.88C169.69 30.616 168.762 29.72 167.49 29.72C166.218 29.72 165.282 30.616 165.282 31.88C165.282 33.144 166.218 34.048 167.49 34.048ZM167.49 33.376C166.674 33.376 166.058 32.784 166.058 31.88C166.058 30.976 166.674 30.392 167.49 30.392C168.306 30.392 168.914 30.976 168.914 31.88C168.914 32.784 168.306 33.376 167.49 33.376ZM173.687 31.8C174.111 31.632 174.367 31.304 174.367 30.848C174.367 30.152 173.767 29.76 172.767 29.76H170.799V34H172.839C173.967 34 174.511 33.568 174.511 32.832C174.511 32.296 174.247 31.944 173.687 31.8ZM171.551 30.352H172.703C173.287 30.352 173.599 30.552 173.599 30.96C173.599 31.368 173.287 31.584 172.703 31.584H171.551V30.352ZM172.783 33.408H171.551V32.136H172.831C173.463 32.136 173.743 32.344 173.743 32.784C173.743 33.216 173.415 33.408 172.783 33.408Z" fill="white"/>
<path d="M50.152 24H52.648V12.128H50.152V24ZM59.0605 24.128C61.7965 24.128 63.7805 22.288 63.7805 19.696C63.7805 17.104 61.7965 15.264 59.0605 15.264C56.3245 15.264 54.3245 17.104 54.3245 19.696C54.3245 22.288 56.3245 24.128 59.0605 24.128ZM59.0605 22.08C57.8125 22.08 56.8525 21.184 56.8525 19.696C56.8525 18.208 57.8125 17.312 59.0605 17.312C60.3085 17.312 61.2525 18.208 61.2525 19.696C61.2525 21.184 60.3085 22.08 59.0605 22.08ZM71.8649 24H74.8889L70.9849 19.04L74.5689 15.392H71.5929L67.9449 18.848V12.128H65.4489V24H67.9449V21.808L69.1449 20.624L71.8649 24ZM79.7324 24.128C82.4684 24.128 84.4524 22.288 84.4524 19.696C84.4524 17.104 82.4684 15.264 79.7324 15.264C76.9964 15.264 74.9964 17.104 74.9964 19.696C74.9964 22.288 76.9964 24.128 79.7324 24.128ZM79.7324 22.08C78.4844 22.08 77.5244 21.184 77.5244 19.696C77.5244 18.208 78.4844 17.312 79.7324 17.312C80.9804 17.312 81.9244 18.208 81.9244 19.696C81.9244 21.184 80.9804 22.08 79.7324 22.08ZM90.9208 15.44C89.6727 15.44 88.5848 15.92 87.8968 16.864V15.52H86.4248V27.104H87.9608V22.72C88.6648 23.632 89.7208 24.096 90.9208 24.096C93.4008 24.096 95.2088 22.368 95.2088 19.76C95.2088 17.168 93.4008 15.44 90.9208 15.44ZM90.7928 22.752C89.1768 22.752 87.9448 21.568 87.9448 19.76C87.9448 17.968 89.1768 16.784 90.7928 16.784C92.4248 16.784 93.6568 17.968 93.6568 19.76C93.6568 21.568 92.4248 22.752 90.7928 22.752ZM97.331 24H98.867V12.128H97.331V24ZM104.888 15.44C103.528 15.44 102.264 15.824 101.384 16.528L102.024 17.68C102.68 17.12 103.704 16.768 104.712 16.768C106.232 16.768 106.984 17.52 106.984 18.816V19.12H104.552C102.024 19.12 101.144 20.24 101.144 21.6C101.144 23.072 102.36 24.096 104.28 24.096C105.608 24.096 106.552 23.648 107.064 22.88V24H108.52V18.88C108.52 16.56 107.208 15.44 104.888 15.44ZM104.536 22.912C103.368 22.912 102.664 22.384 102.664 21.536C102.664 20.816 103.096 20.224 104.616 20.224H106.984V21.408C106.6 22.384 105.688 22.912 104.536 22.912ZM115.89 15.44C114.546 15.44 113.458 15.936 112.834 16.8V15.52H111.362V24H112.898V19.632C112.898 17.792 113.954 16.816 115.586 16.816C117.042 16.816 117.874 17.632 117.874 19.296V24H119.41V19.12C119.41 16.624 117.954 15.44 115.89 15.44ZM129.964 19.808C129.964 17.2 128.22 15.44 125.772 15.44C123.324 15.44 121.516 17.248 121.516 19.76C121.516 22.288 123.34 24.096 126.076 24.096C127.484 24.096 128.652 23.616 129.42 22.72L128.572 21.728C127.948 22.416 127.116 22.752 126.124 22.752C124.444 22.752 123.244 21.76 123.052 20.272H129.932C129.948 20.128 129.964 19.936 129.964 19.808ZM125.772 16.736C127.26 16.736 128.332 17.744 128.492 19.168H123.052C123.212 17.728 124.3 16.736 125.772 16.736Z" fill="white"/>
</svg>
