<svg width="38" height="50" viewBox="0 0 38 50" fill="none" xmlns="http://www.w3.org/2000/svg">
<path fill-rule="evenodd" clip-rule="evenodd" d="M25.0902 19.7348L24.9706 19.8546C24.9706 19.8546 24.9706 19.8546 24.9108 19.8546C24.8509 19.8546 24.7911 19.9146 24.7313 19.9146L22.0992 20.993C21.2019 21.2925 19.7662 21.8917 18.9287 21.1128C17.7323 20.6934 16.4163 19.7348 14.7413 19.6749C13.9636 19.615 13.0663 20.0943 13.0663 20.8132C13.0065 21.5921 13.844 21.9516 14.3824 22.2511C14.9806 22.5507 15.6386 22.8503 16.2966 23.1498C17.4332 23.689 17.493 23.6291 17.7921 24.408C18.1511 25.4265 18.9885 27.7631 19.1082 28.7217C19.168 28.7816 20.0653 32.3164 20.3644 32.6759C20.5439 32.9155 21.3215 33.0953 21.7403 33.0953C21.8599 32.5561 21.5608 29.2609 21.501 28.5419C21.3814 28.3023 21.3814 28.0626 21.4412 27.7032C21.3814 27.2838 21.1421 25.9058 21.3814 25.6062C21.6805 25.4864 22.159 25.9657 22.3983 26.0256C22.6974 26.1454 23.176 25.7261 23.3554 25.5463C23.7144 25.3067 24.9108 24.4679 25.0902 24.2282C24.7911 23.9287 23.4751 23.4494 23.2956 23.1498C23.4751 22.8503 26.0473 21.2925 26.3464 21.2326C26.7054 20.8132 28.2607 20.274 28.3803 19.7348C28.1411 19.5551 27.1839 19.0159 26.825 19.0758C26.2268 19.1956 25.4491 19.7348 25.0902 19.7348Z" fill="white"/>
<path fill-rule="evenodd" clip-rule="evenodd" d="M29.5767 4.51709C29.5169 3.43867 29.2776 2.83955 28.7392 2.30034C28.3803 1.94086 27.4232 1.162 26.6455 1.28183C26.4661 1.162 21.3215 1.162 20.843 1.28183C19.3475 1.58139 18.2109 2.77964 18.2109 4.51709V9.19025V10.5682C22.0992 10.5682 26.5857 10.3885 29.4571 10.3286C29.5767 10.3286 29.5767 7.21315 29.5767 4.51709ZM18.9287 21.1128C19.7662 21.8917 21.2019 21.3525 22.0992 20.993L24.7313 19.9745C24.7911 19.9745 24.8509 19.9146 24.9107 19.9146C24.9107 19.9146 24.9107 19.9146 24.9706 19.9146L25.0902 19.7947C24.5518 18.896 21.1421 17.8775 21.9796 15.7806C22.2188 15.1216 22.7572 14.6423 23.3554 14.2229C23.6545 14.0432 24.0134 13.8634 24.3125 13.6837C24.8509 13.3841 25.8081 13.0246 26.3464 12.785C27.3634 12.3656 28.6196 11.9462 29.6964 11.7665C30.7731 11.5268 31.7901 11.2872 32.9267 11.4669C33.2258 11.5268 33.2856 11.5867 33.5847 11.5867C33.4052 11.2872 32.9865 11.1074 32.5079 10.9277C31.491 10.5682 31.0722 10.6881 31.0124 10.3286C30.9526 10.029 30.9526 8.4713 30.8928 4.21753C30.8928 3.97788 30.9526 3.5585 30.7731 3.37876C30.833 2.5999 30.0553 1.52148 29.6964 1.162C29.3374 0.802529 29.158 0.682705 28.7392 0.443055C28.2607 0.203406 28.0214 0.203406 27.483 0.0236691C26.167 0.0236691 24.8509 0.0236691 23.5349 0.0236691C22.3983 0.0236691 20.7233 -0.0961556 19.7064 0.203406C18.7493 0.502968 17.9118 1.22192 17.493 1.94086C16.8948 2.95937 16.8948 4.03779 16.8948 5.41578C16.8948 6.31446 17.0145 10.029 16.8948 10.6281C14.9806 10.8079 14.0833 11.407 13.2458 12.6652C12.3485 13.9832 12.5878 15.9004 12.5878 17.6978C12.5878 18.4767 12.6476 28.6018 12.5878 29.1411C12.8869 29.3208 12.827 29.4406 12.5878 29.6803C12.7074 31.2979 12.5878 33.0953 12.5878 34.7129C12.5878 36.5103 12.5279 37.7085 13.4252 38.9667C14.9806 41.1235 16.7752 40.824 19.168 40.824C19.826 40.824 21.1421 40.8839 21.7403 40.824C21.5608 40.7041 21.501 40.7041 21.2617 40.6442C20.9028 40.3447 20.7831 40.2847 20.7233 39.7455C20.6635 38.727 21.0822 37.1693 22.2188 36.7499C23.3554 36.2706 25.6884 36.6301 26.4063 35.0125C26.7652 34.2336 26.9446 33.3948 26.6455 32.4961C25.9875 30.3992 22.5179 30.3393 21.6206 28.6018C21.3813 28.6018 21.6206 28.6018 21.501 28.6618C21.5608 29.3807 21.8599 32.6759 21.7403 33.2151C21.3215 33.2151 20.5439 33.0953 20.3644 32.7957C20.0653 32.4362 19.168 28.9014 19.1082 28.8415C18.9885 27.8829 18.1511 25.5463 17.7921 24.5278C17.493 23.7489 17.4332 23.8089 16.2966 23.2696C15.6386 22.9701 14.9806 22.6705 14.3824 22.371C13.844 22.0714 13.0663 21.7119 13.0663 20.9331C13.1261 20.2141 13.9636 19.7947 14.7413 19.7947C16.3564 19.7348 17.7323 20.6934 18.9287 21.1128Z" fill="#C9C9C9"/>
<path fill-rule="evenodd" clip-rule="evenodd" d="M12.528 29.6203C12.7672 29.4405 12.8271 29.2608 12.528 29.0811H12.2887C8.75927 30.0397 4.75131 31.5974 2.59778 33.5745C1.34156 34.7727 0.264791 36.2705 0.0255093 38.0679C-0.213772 40.1648 1.28174 41.9023 2.3585 42.8609C6.36646 46.5155 15.0404 48.912 20.4841 49.6909C21.3814 49.8107 22.817 50.0504 23.7742 49.9905C23.4153 49.8706 21.3814 49.6909 20.7832 49.5711C17.9118 49.0918 15.1002 48.4926 12.3485 47.534C10.6137 46.9349 8.93874 46.2759 7.38341 45.5569C5.82808 44.838 4.03347 43.8195 3.07634 42.9208C2.47814 42.3217 1.93976 41.9622 1.40138 41.1234C0.922814 40.4045 0.444251 39.6256 0.504072 38.4873C0.683533 35.7912 2.83706 33.7542 4.9906 32.4961C5.70844 32.0767 6.4861 31.6573 7.32359 31.3577C8.10125 30.9982 9.05838 30.6987 9.83604 30.3991C10.7333 30.0996 11.5708 29.8 12.528 29.6203Z" fill="#A2A2A2"/>
<path fill-rule="evenodd" clip-rule="evenodd" d="M21.4412 27.7032C21.8001 27.4036 21.1421 27.4635 22.8769 26.2054L24.1929 25.3067C24.3126 25.1869 24.492 25.0671 24.6715 25.0071C25.2697 24.5878 25.8679 24.1085 26.2268 23.5692C26.4063 23.3296 26.5857 22.9102 26.6455 22.4908C26.6455 22.0714 26.5259 21.4723 26.3464 21.2327C26.0473 21.2926 23.5349 22.8503 23.2956 23.1499C23.4751 23.4494 24.7911 23.9287 25.0902 24.2283C24.9108 24.4679 23.7143 25.3067 23.3554 25.5464C23.1161 25.7261 22.6376 26.1455 22.3983 26.0257C22.159 25.9058 21.7403 25.4864 21.3814 25.6063C21.1421 25.9058 21.3814 27.2838 21.4412 27.7032Z" fill="#C9C9C9"/>
<path fill-rule="evenodd" clip-rule="evenodd" d="M35.5588 25.6662C36.3963 25.786 37.2936 26.3252 37.1142 27.2239C37.0543 27.7032 36.7552 27.9429 36.4561 28.1226C36.2767 28.2424 35.6785 28.6019 35.499 28.6019C34.3624 29.0812 32.2687 29.2609 30.9527 29.3208C29.2179 29.4407 27.4831 29.3208 25.7483 29.3208C25.8081 29.4407 25.6885 29.3808 26.2269 29.4407C26.4662 29.4407 26.6456 29.5006 26.8251 29.5006C27.7224 29.5605 29.7563 29.6204 30.6536 29.6803C31.7303 29.6803 33.4053 29.6803 34.4223 29.5006C34.7812 29.4407 35.1999 29.2609 35.5588 29.2609C35.6785 29.0812 36.2767 29.0812 36.9347 28.6019C38.7891 27.2239 36.8151 25.1869 35.5588 25.1869C35.3196 25.3067 35.3794 25.1869 35.3196 25.4265C35.2597 25.6662 35.3196 25.6063 35.5588 25.6662Z" fill="#C9C9C9"/>
<path fill-rule="evenodd" clip-rule="evenodd" d="M25.0902 19.7348C25.3893 19.7348 26.2268 19.1956 26.7054 19.1357C27.0643 19.0758 28.0214 19.615 28.2607 19.7947C28.1411 20.274 26.5857 20.8132 26.2268 21.2925C26.4063 21.5322 26.5259 22.1313 26.5259 22.5507C26.5259 22.9101 26.2866 23.3894 26.1072 23.6291C25.7482 24.1683 25.15 24.6476 24.5518 25.067C24.3724 25.1868 24.2527 25.3066 24.0733 25.3666L22.7572 26.2652C21.0823 27.5234 21.6805 27.4635 21.3215 27.763C21.3215 28.1225 21.2617 28.3622 21.3814 28.6018C21.501 28.5419 21.2617 28.5419 21.501 28.5419C22.3983 30.2794 25.8679 30.3393 26.5259 32.4362C26.7652 33.3349 26.6455 34.1737 26.2866 34.9525C25.5688 36.5702 23.2358 36.2706 22.0992 36.69C20.9626 37.1094 20.5439 38.6671 20.6037 39.6856C20.6037 40.2248 20.7832 40.2847 21.1421 40.5843C21.3814 40.6442 21.4412 40.6442 21.6206 40.764L27.9616 40.8239C30.0553 40.8239 31.9097 41.0037 33.5249 40.0451C35.14 39.0865 35.3793 37.349 35.4391 35.4917C35.4391 33.9939 35.2597 30.2194 35.4391 29.141C37.473 28.8415 38.49 26.5648 36.2168 25.3666C36.0972 25.3066 35.9775 25.2467 35.8579 25.1868C35.7382 25.1868 35.7382 25.1868 35.6186 25.1269L35.3793 25.067C35.2597 24.7674 35.6784 15.6008 35.2597 13.8035C35.0204 12.785 34.482 11.8264 33.6445 11.5268C33.3454 11.5268 33.2856 11.4669 32.9865 11.407C31.7901 11.2272 30.833 11.5268 29.7562 11.7065C28.6794 11.9462 27.4232 12.3656 26.4063 12.7251C25.8081 12.9647 24.9108 13.2643 24.3724 13.6237C24.0733 13.8035 23.7144 13.9832 23.4152 14.163C22.817 14.5823 22.2787 15.0017 22.0394 15.7207C21.2019 17.8176 24.6117 18.896 25.0902 19.7348ZM35.499 28.6617C35.4391 28.1225 35.4391 26.2053 35.499 25.6661C36.3364 25.726 37.1739 26.2652 37.1141 27.1639C37.0543 27.9428 36.0972 28.482 35.499 28.6617Z" fill="#A2A2A2"/>
</svg>
