<?xml version="1.0" encoding="utf-8"?><svg viewBox="0 0 28 25" xmlns="http://www.w3.org/2000/svg" xmlns:xlink="http://www.w3.org/1999/xlink"><style>:root>svg{display:none}:root>svg:target{display:block}</style><svg fill="none" viewBox="0 0 25 25" id="sprite--cart" xmlns="http://www.w3.org/2000/svg"><path fill-rule="evenodd" clip-rule="evenodd" d="M23.774 3.862c.171.017.33.099.446.23a.5.5 0 01.083.488l-1.336 5.776c-.298 1.3-1.357 2.267-2.644 2.414l-11.72 1.264-.223.517c-.162.457-.11.966.14 1.38.252.418.691.677 1.168.689h10.83c.307 0 .556.257.556.575a.565.565 0 01-.557.574H9.69a2.572 2.572 0 01-2.09-1.206 2.835 2.835 0 01-.25-2.5l.277-.661L4.093 2.396a1.453 1.453 0 00-1.336-1.005H.892A.566.566 0 01.335.816C.335.499.585.24.892.24h1.865c1.082.012 2.04.725 2.394 1.782l.501 1.58 18.122.259zm-3.59 7.758c.828-.068 1.517-.685 1.697-1.523l1.197-5.086-17.064-.258 2.589 8.103 11.58-1.236zM7.99 19.177c-1.384 0-2.506 1.156-2.506 2.583 0 1.426 1.122 2.582 2.506 2.582 1.384 0 2.505-1.156 2.505-2.582 0-1.427-1.121-2.583-2.505-2.583zm0 4.018c-.769 0-1.392-.643-1.392-1.435 0-.793.623-1.435 1.392-1.435.769 0 1.392.642 1.392 1.435 0 .792-.623 1.435-1.392 1.435zm10.578-4.018c-1.384 0-2.505 1.156-2.505 2.583 0 1.426 1.121 2.582 2.505 2.582s2.505-1.156 2.505-2.582c0-1.427-1.121-2.583-2.505-2.583zm0 4.018c-.769 0-1.392-.643-1.392-1.435 0-.793.623-1.435 1.392-1.435.769 0 1.392.642 1.392 1.435 0 .792-.623 1.435-1.392 1.435z" fill="#fff"/><path d="M24.22 4.092l.038-.032v-.001l-.038.033zm-.446-.23l.005-.05h-.004v.05zm.53.718l-.048-.017-.001.006.048.011zm-1.337 5.776l-.048-.011.048.01zm-2.644 2.414l.005.05-.005-.05zm-11.72 1.264l-.006-.05-.029.003-.011.027.046.02zm-.223.517l-.046-.02-.001.003.047.017zm.14 1.38l.042-.026-.043.025zm1.168.689v.05-.05zm0 1.15l-.001.05h.002v-.05zm-2.087-1.207l-.043.026.043-.026zm-.25-2.5l-.047-.02v.002l.046.018zm.277-.661l.047.02.007-.018-.006-.018-.048.016zM4.093 2.396l.048-.015-.048.015zM2.757 1.391l.001-.05h-.001v.05zm0-1.15v-.05.05zM5.15 2.023l.048-.015v-.001l-.048.016zm.501 1.58l-.048.015.011.035h.036l.001-.05zm16.23 6.494l-.05-.011.05.011zm-1.699 1.523l-.004-.05.004.05zm2.895-6.609l.05.012.013-.06-.062-.002v.05zM6.014 4.753v-.05l-.069-.001.021.066.048-.015zm2.589 8.103l-.048.015.013.039.04-.005-.005-.05zm1.893 8.904h-.05.05zm-1.113 0h-.05.05zm10.578 0h-.05.05zm4.296-17.701a.738.738 0 00-.478-.247l-.01.1a.639.639 0 01.413.213l.075-.066zm.093.538a.55.55 0 00-.092-.537l-.077.064c.1.12.13.29.075.44l.094.033zm-1.334 5.77l1.336-5.776-.097-.022-1.336 5.776.097.022zm-2.688 2.452c1.31-.149 2.385-1.131 2.688-2.452l-.097-.022c-.294 1.28-1.337 2.231-2.602 2.375l.011.1zm-11.72 1.265l11.72-1.265-.01-.1-11.72 1.265.01.1zm-.182.487l.223-.517-.092-.04-.223.517.092.04zm.136 1.334a1.575 1.575 0 01-.135-1.337l-.094-.034c-.167.472-.114.996.144 1.422l.085-.051zm1.128.665a1.361 1.361 0 01-1.128-.665l-.086.051c.262.433.716.701 1.211.714l.003-.1zm10.827 0H9.688v.1h10.83v-.1zm.607.625a.616.616 0 00-.607-.625v.1c.279 0 .507.233.507.525h.1zm-.607.624a.616.616 0 00.607-.624h-.1a.516.516 0 01-.507.524v.1zm-10.828 0h10.828v-.1H9.69v.1zm-2.13-1.23a2.622 2.622 0 002.128 1.23l.003-.1a2.522 2.522 0 01-2.047-1.183l-.085.053zm-.256-2.544a2.885 2.885 0 00.255 2.544l.085-.053a2.785 2.785 0 01-.246-2.456l-.094-.035zm.28-.663l-.279.661.092.039.279-.66-.093-.04zM4.044 2.412L7.58 13.417l.095-.03L4.141 2.38l-.096.03zm-1.29-.971a1.4 1.4 0 011.29.971l.096-.032a1.503 1.503 0 00-1.383-1.04l-.002.1zm-1.863 0h1.865v-.1H.892v.1zM.285.816c0 .343.27.625.607.625v-.1A.516.516 0 01.385.816h-.1zM.892.19a.616.616 0 00-.607.625h.1C.385.525.613.29.892.29v-.1zm1.865 0H.892v.1h1.865v-.1zm2.441 1.816C4.838.93 3.862.203 2.758.19l-.002.1c1.06.012 2.001.71 2.348 1.748l.094-.032zM5.7 3.588l-.501-1.58-.096.03.501 1.58.096-.03zm18.075.224L5.653 3.553l-.002.1 18.123.259.001-.1zm-1.942 6.275c-.177.816-.848 1.417-1.654 1.483l.009.1c.85-.07 1.557-.704 1.742-1.562l-.097-.021zM23.03 5l-1.197 5.086.097.023 1.197-5.086L23.03 5zM6.013 4.803l17.065.258.001-.1-17.064-.258-.002.1zM8.65 12.84L6.062 4.737l-.096.03 2.59 8.104.094-.03zm11.528-1.27l-11.58 1.235.01.1 11.58-1.236-.01-.1zM5.535 21.76c0-1.4 1.101-2.533 2.456-2.533v-.1c-1.413 0-2.556 1.18-2.556 2.633h.1zm2.456 2.532c-1.355 0-2.456-1.132-2.456-2.532h-.1c0 1.452 1.143 2.632 2.556 2.632v-.1zm2.455-2.532c0 1.4-1.1 2.532-2.455 2.532v.1c1.413 0 2.555-1.18 2.555-2.632h-.1zm-2.455-2.533c1.355 0 2.455 1.133 2.455 2.533h.1c0-1.453-1.142-2.633-2.555-2.633v.1zM6.549 21.76c0 .818.644 1.485 1.442 1.485v-.1c-.74 0-1.342-.619-1.342-1.385h-.1zm1.442-1.485c-.798 0-1.442.666-1.442 1.485h.1c0-.767.602-1.385 1.342-1.385v-.1zm1.442 1.485c0-.819-.644-1.485-1.442-1.485v.1c.74 0 1.342.619 1.342 1.385h.1zM7.99 23.245c.798 0 1.442-.667 1.442-1.485h-.1c0 .766-.602 1.385-1.342 1.385v.1zm8.122-1.485c0-1.4 1.101-2.533 2.456-2.533v-.1c-1.413 0-2.555 1.18-2.555 2.633h.1zm2.456 2.532c-1.355 0-2.456-1.132-2.456-2.532h-.1c0 1.452 1.143 2.632 2.556 2.632v-.1zm2.455-2.532c0 1.4-1.1 2.532-2.455 2.532v.1c1.413 0 2.555-1.18 2.555-2.632h-.1zm-2.455-2.533c1.355 0 2.455 1.133 2.455 2.533h.1c0-1.453-1.142-2.633-2.555-2.633v.1zm-1.442 2.533c0 .818.644 1.485 1.442 1.485v-.1c-.74 0-1.342-.619-1.342-1.385h-.1zm1.442-1.485c-.798 0-1.442.666-1.442 1.485h.1c0-.767.602-1.385 1.342-1.385v-.1zm1.442 1.485c0-.819-.644-1.485-1.442-1.485v.1c.74 0 1.342.619 1.342 1.385h.1zm-1.442 1.485c.798 0 1.442-.667 1.442-1.485h-.1c0 .766-.602 1.385-1.342 1.385v.1z" fill="#1E2433"/></svg><svg fill="none" viewBox="0 0 28 24" id="sprite--favorite" xmlns="http://www.w3.org/2000/svg"><path d="M19.641 1.07c-2.117-.012-4.13.954-5.494 2.638-1.356-1.695-3.375-2.665-5.495-2.639-3.976 0-7.198 3.35-7.198 7.482 0 7.082 11.89 13.996 12.371 14.263a.56.56 0 00.643 0c.482-.267 12.371-7.081 12.371-14.263 0-4.132-3.222-7.482-7.198-7.482z" stroke="#fff"/></svg><svg fill="none" viewBox="0 0 22 22" id="sprite--profile" xmlns="http://www.w3.org/2000/svg"><path fill-rule="evenodd" clip-rule="evenodd" d="M5.74 5.228c0-2.68 2.36-4.86 5.26-4.86s5.261 2.18 5.261 4.86-2.36 4.86-5.26 4.86c-2.901 0-5.262-2.18-5.262-4.86zm.956 0c0 2.192 1.931 3.977 4.304 3.977s4.305-1.785 4.305-3.977S13.373 1.251 11 1.251c-2.373 0-4.304 1.785-4.304 3.977zM0 21.189c0-5.603 4.935-10.162 11-10.162s11 4.558 11 10.162c0 .244-.214.442-.478.442s-.479-.198-.479-.442c0-5.116-4.505-9.279-10.043-9.279-5.538 0-10.043 4.163-10.043 9.28 0 .243-.215.44-.479.44S0 21.434 0 21.19z" fill="#fff"/></svg><svg fill="none" viewBox="0 0 23 23" id="sprite--search" xmlns="http://www.w3.org/2000/svg"><path d="M16.123 15.887l-.062.07.066.067 5.71 5.804a.637.637 0 010 .89h0a.607.607 0 01-.87 0h0l-5.733-5.828-.064-.065-.07.058a9.074 9.074 0 01-5.794 2.09C4.223 18.973.1 14.785.1 9.614.1 4.444 4.223.255 9.306.255c5.083 0 9.206 4.188 9.206 9.359a9.399 9.399 0 01-2.389 6.273zM1.332 9.614c0 4.474 3.568 8.103 7.974 8.103 4.405 0 7.974-3.63 7.974-8.103 0-4.474-3.569-8.103-7.974-8.103-4.406 0-7.974 3.63-7.974 8.103z" fill="#fff" stroke="#1E2433" stroke-width=".2"/></svg></svg>