<svg width="118" height="26" viewBox="0 0 118 26" fill="none" xmlns="http://www.w3.org/2000/svg">
<path d="M28.2988 24.6225V4.57394H47.5581V10.4791H38.5395V12.8122H46.9681V16.3636H38.5395V18.738H47.5581V24.6225H28.2988Z" fill="#F99D21"/>
<path d="M61.4233 4.57394H51.1826V24.6225H61.4233V4.57394Z" fill="#F99D21"/>
<path d="M75.3092 25.2209C68.9246 25.2209 65.3846 23.1768 64.4153 22.5367V16.7348C68.9457 19.5428 75.4146 20.1003 75.8782 18.4692C76.3417 16.8793 74.3189 16.9413 71.7482 16.6522C65.7849 15.9502 63.8042 13.7409 63.8042 10.871C63.8042 9.96247 63.6989 3.99539 76.1099 3.99539C79.9871 3.99539 83.4849 4.51158 86.0978 5.72977V11.5317C83.506 10.3961 80.5349 9.81794 78.1117 9.81794C76.1942 9.81794 75.1196 9.98312 75.1196 11.1187C75.1196 13.7822 87.3199 10.2309 87.3199 17.7465C87.2989 22.6399 81.9889 25.2209 75.3092 25.2209Z" fill="#F99D21"/>
<path d="M12.5796 4.57394H0C0 24.6225 0 4.57394 0 24.6225H12.5796C23.1575 24.6225 25.8968 19.8943 25.8968 14.5879C25.8968 9.30219 23.1575 4.57394 12.5796 4.57394ZM12.6428 19.9149H10.2407V9.30219H12.6428C15.6561 9.30219 16.225 12.8329 16.2461 14.6086C16.225 16.3636 15.6561 19.9149 12.6428 19.9149Z" fill="#F99D21"/>
<path d="M100.005 25.2209C93.6204 25.2209 90.0804 23.1768 89.1111 22.5367V16.7348C93.6415 19.5428 100.11 20.1003 100.574 18.4692C101.038 16.8793 99.0147 16.9413 96.444 16.6522C90.4807 15.9502 88.5 13.7409 88.5 10.871C88.5 9.96247 88.3947 3.99539 100.806 3.99539C104.683 3.99539 108.181 4.51158 110.794 5.72977V11.5317C108.202 10.3961 105.231 9.81794 102.808 9.81794C100.89 9.81794 99.8154 9.98312 99.8154 11.1187C99.8154 13.7822 112.016 10.2309 112.016 17.7465C111.974 22.6399 106.685 25.2209 100.005 25.2209Z" fill="#F99D21"/>
<path d="M116.167 3.31493C116.293 3.25309 116.399 3.15002 116.483 3.02633C116.567 2.90264 116.588 2.75834 116.588 2.59343C116.588 2.42851 116.546 2.30482 116.462 2.18113C116.378 2.05745 116.272 1.95438 116.125 1.89253C115.977 1.83069 115.809 1.78946 115.598 1.78946H113.997V4.4075H114.755V3.29432L115.682 4.4075H116.588L115.724 3.41801C115.893 3.41801 116.04 3.37678 116.167 3.31493ZM115.303 3.04694H114.755V2.32544H115.345C115.493 2.32544 115.598 2.34605 115.682 2.40789C115.767 2.46974 115.788 2.5522 115.788 2.65527C115.788 2.92326 115.619 3.04694 115.303 3.04694Z" fill="#F99D21"/>
<path d="M115.282 1.00646C116.462 1.00646 117.41 1.93438 117.41 3.08913C117.41 4.24388 116.462 5.1718 115.282 5.1718C114.102 5.1718 113.153 4.24388 113.153 3.08913C113.153 1.955 114.123 1.00646 115.282 1.00646ZM115.282 0.449707C113.786 0.449707 112.563 1.64569 112.563 3.10975C112.563 4.5738 113.786 5.76979 115.282 5.76979C116.778 5.76979 118 4.5738 118 3.10975C118 1.64569 116.778 0.449707 115.282 0.449707Z" fill="#F99D21"/>
</svg>
