<svg width="22" height="22" fill="none" xmlns="http://www.w3.org/2000/svg"><path fill-rule="evenodd" clip-rule="evenodd" d="M5.74 5.228c0-2.68 2.36-4.86 5.26-4.86s5.261 2.18 5.261 4.86-2.36 4.86-5.26 4.86c-2.901 0-5.262-2.18-5.262-4.86zm.956 0c0 2.192 1.931 3.977 4.304 3.977s4.305-1.785 4.305-3.977S13.373 1.251 11 1.251c-2.373 0-4.304 1.785-4.304 3.977zM0 21.189c0-5.603 4.935-10.162 11-10.162s11 4.558 11 10.162c0 .244-.214.442-.478.442s-.479-.198-.479-.442c0-5.116-4.505-9.279-10.043-9.279-5.538 0-10.043 4.163-10.043 9.28 0 .243-.215.44-.479.44S0 21.434 0 21.19z" fill="#fff"/></svg>