<svg width="23" height="23" fill="none" xmlns="http://www.w3.org/2000/svg"><path d="M16.123 15.887l-.062.07.066.067 5.71 5.804a.637.637 0 010 .89h0a.607.607 0 01-.87 0h0l-5.733-5.828-.064-.065-.07.058a9.074 9.074 0 01-5.794 2.09C4.223 18.973.1 14.785.1 9.614.1 4.444 4.223.255 9.306.255c5.083 0 9.206 4.188 9.206 9.359a9.399 9.399 0 01-2.389 6.273zM1.332 9.614c0 4.474 3.568 8.103 7.974 8.103 4.405 0 7.974-3.63 7.974-8.103 0-4.474-3.569-8.103-7.974-8.103-4.406 0-7.974 3.63-7.974 8.103z" fill="#fff" stroke="#1E2433" stroke-width=".2"/></svg>